{
.appVersion = "3221";
.formatVersion = 3;
DisplayStrings = (

glyphs = (
{
glyphname = A;
kernLeft = KO_A;
kernRight = KO_A;
lastChange = "2023-10-04 05:43:11 +0000";
layers = (
{
.lastUpdate = 718090991.723;
layerId = m01;
shapes = (
{
closed = 1;
nodes = (
(50,-5,o),
(59,8,o),
(86,61,cs),
(539,948,l),
(959,948,l),
(1030,54,ls),
(1032,25,o),
(1040,-5,o),
(1092,-5,cs),
(1136,-5,o),
(1148,17,o),
(1144,56,cs),
(995,1820,ls),
(993,1846,o),
(979,1862,o),
(937,1862,cs),
(885,1862,o),
(884,1842,o),
(862,1798,cs),
(-39,68,ls),
(-65,19,o),
(-39,-5,o),
(0,-5,cs)
);
},
{
closed = 1;
nodes = (
(800,1458,l),
(920,1726,l),
(920,1439,l),
(951,1055,l),
(594,1055,l)
);
}
);
vertWidth = 0;
width = 1259;
},
{
.lastUpdate = 718090344.065;
guides = (
{
angle = 180;
pos = (850,1213);
},
{
pos = (820,950);
}
);
layerId = "140DECC1-64C4-40C0-9C07-503DBC3F4160";
shapes = (
{
closed = 1;
nodes = (
(161,0,o),
(202,24,o),
(241,93,c),
(570,743,l),
(962,743,l),
(1015,116,ls),
(1020,45,o),
(1066,0,o),
(1154,0,cs),
(1234,0,o),
(1291,43,o),
(1284,132,cs),
(1147,1722,ls),
(1140,1812,o),
(1075,1857,o),
(986,1857,cs),
(892,1857,o),
(833,1815,o),
(806,1761,cs),
(-22,171,ls),
(-76,68,o),
(-3,0,o),
(84,0,cs)
);
},
{
closed = 1;
nodes = (
(844,1282,l),
(926,1494,l),
(916,1280,l),
(940,1001,l),
(701,1001,l)
);
}
);
vertWidth = 0;
width = 1382;
}
);
unicode = 65;
},
{
glyphname = B;
kernLeft = KO_B;
kernRight = KO_B;
lastChange = "2023-10-04 05:32:24 +0000";
layers = (
{
.lastUpdate = 718090344.065;
layerId = m01;
shapes = (
{
closed = 1;
nodes = (
(954,0,o),
(1183,144,o),
(1230,460,cs),
(1271,734,o),
(1114,916,o),
(770,999,c),
(1215,1046,o),
(1311,1172,o),
(1338,1375,cs),
(1381,1708,o),
(1092,1857,o),
(471,1857,cs),
(426,1857,o),
(408,1844,o),
(399,1791,cs),
(96,74,ls),
(89,34,o),
(105,0,o),
(136,0,cs)
);
},
{
closed = 1;
nodes = (
(373,960,l),
(932,944,o),
(1151,736,o),
(1114,473,cs),
(1072,179,o),
(748,108,o),
(222,106,c)
);
},
{
closed = 1;
nodes = (
(512,1754,l),
(971,1749,o),
(1250,1651,o),
(1218,1376,cs),
(1199,1203,o),
(1054,1085,o),
(388,1046,c)
);
}
);
vertWidth = 0;
width = 1349;
},
{
.lastUpdate = 718090344.065;
layerId = "140DECC1-64C4-40C0-9C07-503DBC3F4160";
shapes = (
{
closed = 1;
nodes = (
(1068,0,o),
(1359,75,o),
(1415,466,cs),
(1455,746,o),
(1335,904,o),
(1116,1000,c),
(1398,1072,o),
(1535,1205,o),
(1551,1367,cs),
(1586,1705,o),
(1263,1857,o),
(528,1857,cs),
(463,1857,o),
(406,1836,o),
(389,1740,cs),
(110,152,ls),
(94,65,o),
(156,0,o),
(230,0,cs)
);
},
{
closed = 1;
nodes = (
(530,880,l),
(1010,863,o),
(1167,760,o),
(1131,516,cs),
(1104,329,o),
(929,269,o),
(421,257,c)
);
},
{
closed = 1;
nodes = (
(657,1597,l),
(1168,1583,o),
(1269,1494,o),
(1264,1383,cs),
(1258,1281,o),
(1229,1132,o),
(572,1115,c)
);
}
);
vertWidth = 0;
width = 1523;
}
);
metricLeft = H;
unicode = 66;
},
{
glyphname = C;
kernLeft = KO_C;
kernRight = KO_C;
lastChange = "2023-10-04 06:16:50 +0000";
layers = (
{
.lastUpdate = 718090344.066;
layerId = m01;
shapes = (
{
closed = 1;
nodes = (
(926,-5,o),
(1116,122,o),
(1283,305,cs),
(1351,380,o),
(1357,411,o),
(1354,428,cs),
(1349,456,o),
(1333,468,o),
(1301,468,cs),
(1262,468,o),
(1250,426,o),
(1188,371,cs),
(1028,218,o),
(879,102,o),
(682,102,cs),
(464,102,o),
(241,372,o),
(327,870,cs),
(386,1207,o),
(527,1758,o),
(1050,1758,cs),
(1189,1758,o),
(1335,1694,o),
(1467,1555,cs),
(1501,1521,o),
(1531,1528,o),
(1549,1551,c),
(1570,1571,o),
(1565,1607,o),
(1540,1630,c),
(1400,1779,o),
(1230,1862,o),
(1053,1862,cs),
(444,1862,o),
(283,1281,o),
(210,868,cs),
(108,301,o),
(405,-5,o),
(680,-5,cs)
);
}
);
vertWidth = 0;
width = 1437;
},
{
.lastUpdate = 718090344.066;
layerId = "140DECC1-64C4-40C0-9C07-503DBC3F4160";
shapes = (
{
closed = 1;
nodes = (
(1006,0,o),
(1252,111,o),
(1418,293,cs),
(1490,371,o),
(1516,409,o),
(1516,462,cs),
(1516,515,o),
(1475,561,o),
(1400,561,cs),
(1355,561,o),
(1298,544,o),
(1230,469,cs),
(1112,337,o),
(942,257,o),
(778,257,cs),
(566,257,o),
(455,517,o),
(515,869,cs),
(598,1354,o),
(807,1600,o),
(1139,1600,cs),
(1268,1600,o),
(1360,1571,o),
(1451,1486,cs),
(1521,1425,o),
(1608,1398,o),
(1671,1461,cs),
(1735,1525,o),
(1699,1610,o),
(1627,1674,cs),
(1475,1812,o),
(1319,1857,o),
(1141,1857,cs),
(650,1857,o),
(345,1525,o),
(229,871,cs),
(142,371,o),
(376,0,o),
(775,0,cs)
);
}
);
vertWidth = 0;
width = 1535;
}
);
unicode = 67;
userData = {
KernOnName = C;
};
},
{
glyphname = D;
kernLeft = KO_E;
kernRight = KO_D;
lastChange = "2023-10-04 05:41:33 +0000";
layers = (
{
.lastUpdate = 718090892.508;
layerId = m01;
shapes = (
{
closed = 1;
nodes = (
(334,0,ls),
(889,0,o),
(1356,345,o),
(1441,987,cs),
(1517,1559,o),
(1110,1857,o),
(577,1857,cs),
(472,1857,ls),
(419,1857,o),
(408,1835,o),
(400,1790,cs),
(94,62,ls),
(88,23,o),
(103,0,o),
(147,0,cs)
);
},
{
closed = 1;
nodes = (
(513,1754,l),
(587,1754,ls),
(1041,1754,o),
(1377,1481,o),
(1323,1004,cs),
(1250,405,o),
(811,106,o),
(334,106,cs),
(223,106,l)
);
}
);
vertWidth = 0;
width = 1440;
},
{
.lastUpdate = 718090893.054;
layerId = "140DECC1-64C4-40C0-9C07-503DBC3F4160";
shapes = (
{
closed = 1;
nodes = (
(458,0,ls),
(1033,0,o),
(1516,428,o),
(1594,1004,cs),
(1666,1533,o),
(1317,1857,o),
(679,1857,cs),
(537,1857,ls),
(449,1857,o),
(405,1819,o),
(390,1740,cs),
(106,140,ls),
(92,63,o),
(148,0,o),
(237,0,cs)
);
},
{
closed = 1;
nodes = (
(655,1602,l),
(694,1602,ls),
(1127,1602,o),
(1365,1372,o),
(1317,1001,cs),
(1262,575,o),
(893,255,o),
(458,255,cs),
(419,255,l)
);
}
);
vertWidth = 0;
width = 1617;
}
);
metricLeft = H;
unicode = 68;
},
{
glyphname = E;
kernLeft = KO_E;
kernRight = KO_E;
lastChange = "2023-10-04 06:08:56 +0000";
layers = (
{
.lastUpdate = 718090892.508;
layerId = m01;
shapes = (
{
closed = 1;
nodes = (
(1123,0,ls),
(1172,0,o),
(1186,31,o),
(1186,63,cs),
(1186,92,o),
(1175,106,o),
(1123,106,cs),
(224,106,l),
(372,948,l),
(1154,948,ls),
(1204,948,o),
(1216,969,o),
(1216,1000,cs),
(1216,1033,o),
(1204,1055,o),
(1154,1055,cs),
(390,1055,l),
(514,1754,l),
(1409,1754,ls),
(1461,1754,o),
(1471,1769,o),
(1471,1801,cs),
(1471,1832,o),
(1459,1857,o),
(1409,1857,cs),
(474,1857,ls),
(419,1857,o),
(407,1835,o),
(400,1791,cs),
(94,62,ls),
(87,22,o),
(102,0,o),
(147,0,cs)
);
}
);
vertWidth = 0;
width = 1320;
},
{
.lastUpdate = 718090893.055;
layerId = "140DECC1-64C4-40C0-9C07-503DBC3F4160";
shapes = (
{
closed = 1;
nodes = (
(1207,0,ls),
(1291,0,o),
(1349,45,o),
(1349,120,cs),
(1349,188,o),
(1303,255,o),
(1212,255,cs),
(423,255,l),
(533,879,l),
(1270,879,ls),
(1361,879,o),
(1424,934,o),
(1424,1002,cs),
(1424,1076,o),
(1368,1122,o),
(1284,1122,cs),
(575,1122,l),
(660,1602,l),
(1487,1602,ls),
(1574,1602,o),
(1634,1658,o),
(1634,1733,cs),
(1634,1805,o),
(1582,1857,o),
(1495,1857,cs),
(542,1857,ls),
(453,1857,o),
(404,1826,o),
(390,1746,cs),
(107,142,ls),
(93,63,o),
(129,0,o),
(214,0,cs)
);
}
);
vertWidth = 0;
width = 1428;
}
);
metricLeft = H;
unicode = 69;
userData = {
KernOnName = E;
};
},
{
glyphname = F;
kernLeft = KO_E;
kernRight = KO_F;
lastChange = "2023-10-04 05:41:33 +0000";
layers = (
{
.lastUpdate = 718090892.509;
layerId = m01;
shapes = (
{
closed = 1;
nodes = (
(201,0,o),
(209,33,o),
(215,62,cs),
(372,948,l),
(1122,948,ls),
(1173,948,o),
(1185,969,o),
(1185,1000,cs),
(1185,1033,o),
(1173,1055,o),
(1122,1055,cs),
(390,1055,l),
(513,1754,l),
(1379,1754,ls),
(1431,1754,o),
(1441,1769,o),
(1441,1801,cs),
(1441,1832,o),
(1429,1857,o),
(1379,1857,cs),
(475,1857,ls),
(419,1857,o),
(407,1835,o),
(400,1791,cs),
(94,62,ls),
(88,23,o),
(104,0,o),
(148,0,cs)
);
}
);
vertWidth = 0;
width = 1167;
},
{
.lastUpdate = 718090893.055;
layerId = "140DECC1-64C4-40C0-9C07-503DBC3F4160";
shapes = (
{
closed = 1;
nodes = (
(324,0,o),
(385,60,o),
(400,147,cs),
(530,879,l),
(1256,879,ls),
(1347,879,o),
(1395,934,o),
(1395,1004,cs),
(1395,1076,o),
(1345,1122,o),
(1258,1122,cs),
(573,1122,l),
(659,1602,l),
(1455,1602,ls),
(1549,1602,o),
(1604,1667,o),
(1604,1728,cs),
(1604,1807,o),
(1551,1857,o),
(1464,1857,cs),
(536,1857,ls),
(447,1857,o),
(403,1824,o),
(389,1745,cs),
(109,154,ls),
(95,77,o),
(121,0,o),
(234,0,cs)
);
}
);
vertWidth = 0;
width = 1334;
}
);
metricLeft = E;
unicode = 70;
},
{
glyphname = G;
kernLeft = KO_G;
kernRight = KO_G;
lastChange = "2023-10-04 05:41:33 +0000";
layers = (
{
.lastUpdate = 718090892.509;
layerId = m01;
shapes = (
{
closed = 1;
nodes = (
(845,-18,o),
(1018,100,o),
(1228,416,c),
(1167,62,ls),
(1162,31,o),
(1167,3,o),
(1213,0,cs),
(1270,-2,o),
(1281,35,o),
(1287,67,cs),
(1402,722,ls),
(1411,768,o),
(1404,784,o),
(1360,784,cs),
(1308,784,o),
(1284,750,o),
(1252,675,cs),
(1097,318,o),
(881,88,o),
(665,88,cs),
(391,88,o),
(255,431,o),
(330,870,cs),
(431,1457,o),
(672,1754,o),
(1050,1754,cs),
(1189,1754,o),
(1326,1692,o),
(1460,1552,cs),
(1492,1520,o),
(1519,1528,o),
(1540,1549,cs),
(1560,1570,o),
(1557,1604,o),
(1533,1628,cs),
(1392,1777,o),
(1230,1857,o),
(1053,1857,cs),
(610,1857,o),
(330,1531,o),
(210,868,cs),
(123,362,o),
(315,-18,o),
(662,-18,cs)
);
}
);
vertWidth = 0;
width = 1534;
},
{
.lastUpdate = 718090893.056;
layerId = "140DECC1-64C4-40C0-9C07-503DBC3F4160";
shapes = (
{
closed = 1;
nodes = (
(918,-18,o),
(1056,105,o),
(1188,291,c),
(1160,140,ls),
(1143,51,o),
(1203,0,o),
(1302,0,cs),
(1400,0,o),
(1427,51,o),
(1439,120,cs),
(1552,763,ls),
(1568,852,o),
(1521,907,o),
(1432,907,cs),
(1375,907,o),
(1314,893,o),
(1242,760,cs),
(1098,508,o),
(912,239,o),
(718,239,cs),
(549,239,o),
(456,491,o),
(521,869,cs),
(603,1354,o),
(807,1600,o),
(1139,1600,cs),
(1268,1600,o),
(1360,1571,o),
(1451,1486,cs),
(1521,1425,o),
(1608,1398,o),
(1671,1461,cs),
(1735,1525,o),
(1699,1610,o),
(1627,1674,cs),
(1475,1812,o),
(1319,1857,o),
(1141,1857,cs),
(650,1857,o),
(345,1525,o),
(229,871,cs),
(135,332,o),
(345,-18,o),
(715,-18,cs)
);
}
);
vertWidth = 0;
width = 1686;
}
);
metricLeft = C;
metricRight = H;
unicode = 71;
},
{
glyphname = H;
kernLeft = KO_H;
kernRight = KO_H;
lastChange = "2023-10-04 06:13:06 +0000";
layers = (
{
.lastUpdate = 718090344.069;
layerId = m01;
shapes = (
{
closed = 1;
nodes = (
(200,0,o),
(209,33,o),
(214,62,cs),
(370,948,l),
(1230,948,l),
(1075,62,ls),
(1069,30,o),
(1075,0,o),
(1129,0,cs),
(1176,0,o),
(1189,27,o),
(1193,53,cs),
(1499,1791,ls),
(1507,1835,o),
(1496,1857,o),
(1448,1857,cs),
(1402,1857,o),
(1387,1833,o),
(1382,1805,cs),
(1250,1055,l),
(389,1055,l),
(517,1783,ls),
(525,1832,o),
(513,1857,o),
(474,1857,cs),
(425,1857,o),
(406,1834,o),
(399,1790,cs),
(94,62,ls),
(87,22,o),
(102,0,o),
(146,0,cs)
);
}
);
vertWidth = 0;
width = 1443;
},
{
.lastUpdate = 718090344.069;
layerId = "140DECC1-64C4-40C0-9C07-503DBC3F4160";
shapes = (
{
closed = 1;
nodes = (
(341,0,o),
(386,57,o),
(396,116,cs),
(530,879,l),
(1195,879,l),
(1065,140,ls),
(1050,57,o),
(1102,0,o),
(1195,0,cs),
(1277,0,o),
(1339,48,o),
(1350,105,cs),
(1633,1713,ls),
(1648,1805,o),
(1591,1857,o),
(1502,1857,cs),
(1421,1857,o),
(1360,1814,o),
(1349,1752,cs),
(1238,1122,l),
(573,1122,l),
(675,1706,ls),
(693,1807,o),
(637,1857,o),
(555,1857,cs),
(478,1857,o),
(404,1821,o),
(389,1740,cs),
(107,140,ls),
(93,60,o),
(152,0,o),
(242,0,cs)
);
}
);
vertWidth = 0;
width = 1583;
}
);
unicode = 72;
userData = {
KernOnName = H;
};
},
{
glyphname = I;
kernLeft = KO_I;
kernRight = KO_I;
lastChange = "2023-10-04 06:10:44 +0000";
layers = (
{
.lastUpdate = 718090344.069;
layerId = m01;
shapes = (
{
closed = 1;
nodes = (
(417,0,ls),
(468,0,o),
(479,21,o),
(479,52,cs),
(479,85,o),
(468,106,o),
(417,106,cs),
(350,106,l),
(640,1754,l),
(720,1754,ls),
(768,1754,o),
(779,1777,o),
(779,1807,cs),
(779,1838,o),
(769,1857,o),
(720,1857,cs),
(460,1857,ls),
(409,1857,o),
(398,1838,o),
(398,1807,cs),
(398,1777,o),
(410,1754,o),
(460,1754,cs),
(520,1754,l),
(229,106,l),
(145,106,ls),
(97,106,o),
(86,85,o),
(86,52,cs),
(86,21,o),
(97,0,o),
(145,0,cs)
);
}
);
vertWidth = 0;
width = 723;
},
{
.lastUpdate = 718092644.01;
layerId = "140DECC1-64C4-40C0-9C07-503DBC3F4160";
shapes = (
{
closed = 1;
nodes = (
(692,0,ls),
(788,0,o),
(820,57,o),
(829,125,cs),
(841,195,o),
(805,257,o),
(733,257,cs),
(623,257,l),
(857,1600,l),
(979,1600,ls),
(1069,1600,o),
(1111,1667,o),
(1123,1734,cs),
(1132,1805,o),
(1084,1857,o),
(1019,1857,cs),
(509,1857,ls),
(423,1857,o),
(382,1805,o),
(370,1734,cs),
(358,1667,o),
(403,1600,o),
(471,1600,cs),
(567,1600,l),
(335,257,l),
(225,257,ls),
(134,257,o),
(91,195,o),
(79,125,cs),
(67,57,o),
(112,0,o),
(184,0,cs)
);
}
);
vertWidth = 0;
width = 951;
}
);
unicode = 73;
userData = {
KernOnName = I;
};
},
{
glyphname = J;
kernLeft = KO_J;
kernRight = KO_J;
lastChange = "2023-10-04 05:32:24 +0000";
layers = (
{
.lastUpdate = 718090344.07;
layerId = m01;
shapes = (
{
closed = 1;
nodes = (
(-23,-5,o),
(238,7,o),
(294,15,cs),
(678,72,o),
(753,417,o),
(831,848,cs),
(993,1754,l),
(1386,1754,ls),
(1436,1754,o),
(1447,1774,o),
(1447,1806,cs),
(1447,1836,o),
(1436,1857,o),
(1386,1857,cs),
(500,1857,ls),
(449,1857,o),
(438,1836,o),
(438,1806,cs),
(438,1774,o),
(449,1754,o),
(500,1754,cs),
(875,1754,l),
(714,857,ls),
(655,527,o),
(605,175,o),
(311,124,cs),
(230,110,o),
(-43,102,o),
(-112,102,cs),
(-144,102,o),
(-171,84,o),
(-171,52,cs),
(-171,16,o),
(-144,-5,o),
(-112,-5,cs)
);
}
);
vertWidth = 0;
width = 1055;
},
{
.lastUpdate = 718090344.07;
layerId = "140DECC1-64C4-40C0-9C07-503DBC3F4160";
shapes = (
{
closed = 1;
nodes = (
(160,0,o),
(408,5,o),
(459,12,cs),
(978,75,o),
(973,452,o),
(1045,840,cs),
(1180,1600,l),
(1472,1600,ls),
(1563,1600,o),
(1613,1658,o),
(1613,1733,cs),
(1613,1812,o),
(1558,1857,o),
(1474,1857,cs),
(651,1857,ls),
(562,1857,o),
(507,1809,o),
(507,1733,cs),
(507,1653,o),
(562,1600,o),
(647,1600,cs),
(890,1600,l),
(761,876,ls),
(711,573,o),
(683,301,o),
(453,272,cs),
(384,263,o),
(136,257,o),
(76,257,cs),
(6,257,o),
(-64,202,o),
(-64,128,cs),
(-64,51,o),
(6,0,o),
(76,0,cs)
);
}
);
vertWidth = 0;
width = 1399;
}
);
unicode = 74;
},
{
glyphname = K;
kernLeft = KO_B;
kernRight = KO_K;
lastChange = "2023-10-04 05:32:24 +0000";
layers = (
{
.lastUpdate = 718090344.07;
layerId = m01;
shapes = (
{
closed = 1;
nodes = (
(1163,0,o),
(1190,22,o),
(1190,52,cs),
(1190,71,o),
(1182,86,o),
(1159,117,cs),
(491,1001,l),
(1447,1745,ls),
(1483,1772,o),
(1496,1787,o),
(1496,1818,cs),
(1496,1838,o),
(1482,1857,o),
(1452,1857,cs),
(1431,1857,o),
(1406,1850,o),
(1372,1823,cs),
(389,1050,l),
(517,1783,ls),
(525,1833,o),
(519,1857,o),
(474,1857,cs),
(423,1857,o),
(406,1834,o),
(399,1791,cs),
(96,77,ls),
(89,37,o),
(105,0,o),
(148,0,cs),
(199,0,o),
(210,41,o),
(216,79,cs),
(375,971,l),
(1059,51,ls),
(1080,22,o),
(1100,0,o),
(1133,0,cs)
);
}
);
vertWidth = 0;
width = 1315;
},
{
.lastUpdate = 718090344.071;
layerId = "140DECC1-64C4-40C0-9C07-503DBC3F4160";
shapes = (
{
closed = 1;
nodes = (
(1277,0,o),
(1335,63,o),
(1335,135,cs),
(1335,173,o),
(1322,215,o),
(1301,243,cs),
(783,981,l),
(1561,1617,ls),
(1604,1651,o),
(1634,1694,o),
(1634,1746,cs),
(1634,1805,o),
(1590,1857,o),
(1506,1857,cs),
(1460,1857,o),
(1404,1842,o),
(1359,1805,cs),
(582,1170,l),
(675,1706,ls),
(695,1819,o),
(618,1857,o),
(549,1857,cs),
(475,1857,o),
(403,1821,o),
(389,1740,cs),
(110,154,ls),
(95,69,o),
(156,0,o),
(247,0,cs),
(334,0,o),
(385,56,o),
(398,128,cs),
(523,847,l),
(1061,72,ls),
(1092,27,o),
(1147,0,o),
(1200,0,cs)
);
}
);
vertWidth = 0;
width = 1425;
}
);
metricLeft = H;
unicode = 75;
},
{
glyphname = L;
kernLeft = KO_H;
kernRight = KO_L;
lastChange = "2023-10-04 06:09:16 +0000";
layers = (
{
.lastUpdate = 718090892.511;
layerId = m01;
shapes = (
{
closed = 1;
nodes = (
(1129,0,ls),
(1174,0,o),
(1191,31,o),
(1191,63,cs),
(1191,91,o),
(1177,106,o),
(1129,106,cs),
(223,106,l),
(518,1782,ls),
(527,1833,o),
(522,1857,o),
(474,1857,cs),
(424,1857,o),
(407,1834,o),
(400,1790,cs),
(94,62,ls),
(88,23,o),
(103,0,o),
(147,0,cs)
);
}
);
vertWidth = 0;
width = 1324;
},
{
.lastUpdate = 718090344.071;
layerId = "140DECC1-64C4-40C0-9C07-503DBC3F4160";
shapes = (
{
closed = 1;
nodes = (
(1219,0,ls),
(1305,0,o),
(1363,63,o),
(1363,132,cs),
(1363,200,o),
(1305,257,o),
(1219,257,cs),
(421,257,l),
(675,1706,ls),
(697,1825,o),
(630,1857,o),
(558,1857,cs),
(473,1857,o),
(404,1821,o),
(389,1740,cs),
(107,140,ls),
(93,60,o),
(146,0,o),
(230,0,cs)
);
}
);
vertWidth = 0;
width = 1439;
}
);
metricLeft = E;
metricRight = E;
unicode = 76;
userData = {
KernOnName = L;
};
},
{
glyphname = M;
kernLeft = KO_M;
kernRight = KO_M;
lastChange = "2023-10-04 05:41:33 +0000";
layers = (
{
.lastUpdate = 718090344.071;
layerId = m01;
shapes = (
{
closed = 1;
nodes = (
(30,-5,o),
(62,12,o),
(84,61,c),
(900,1643,l),
(1018,54,ls),
(1021,26,o),
(1030,-5,o),
(1086,-5,cs),
(1133,-5,o),
(1152,37,o),
(1164,59,cs),
(1985,1647,l),
(2107,53,ls),
(2108,26,o),
(2119,-5,o),
(2171,-5,cs),
(2210,-5,o),
(2227,18,o),
(2223,56,cs),
(2080,1794,l),
(2078,1840,o),
(2072,1862,o),
(2021,1862,cs),
(1967,1862,o),
(1953,1826,o),
(1935,1793,cs),
(1116,200,l),
(993,1820,l),
(991,1840,o),
(980,1862,o),
(934,1862,cs),
(893,1862,o),
(878,1837,o),
(857,1799,cs),
(-35,85,ls),
(-66,25,o),
(-39,-5,o),
(2,-5,cs)
);
}
);
vertWidth = 0;
width = 2337;
},
{
.lastUpdate = 718090893.057;
layerId = "140DECC1-64C4-40C0-9C07-503DBC3F4160";
shapes = (
{
closed = 1;
nodes = (
(143,0,o),
(222,27,o),
(256,93,cs),
(857,1269,l),
(944,116,l),
(952,51,o),
(1000,0,o),
(1086,0,cs),
(1199,0,o),
(1228,56,o),
(1245,89,cs),
(1855,1272,l),
(1938,116,ls),
(1941,56,o),
(2003,0,o),
(2091,0,cs),
(2174,0,o),
(2229,57,o),
(2222,132,cs),
(2091,1733,ls),
(2085,1814,o),
(2067,1857,o),
(1967,1857,cs),
(1882,1857,o),
(1832,1824,o),
(1801,1761,cs),
(1181,563,l),
(1096,1733,ls),
(1091,1814,o),
(1057,1857,o),
(940,1857,cs),
(862,1857,o),
(836,1824,o),
(805,1764,cs),
(-20,183,l),
(-74,87,o),
(6,0,o),
(90,0,cs)
);
}
);
vertWidth = 0;
width = 2319;
}
);
metricLeft = A;
metricRight = A;
unicode = 77;
},
{
glyphname = N;
kernLeft = KO_E;
kernRight = KO_H;
lastChange = "2023-10-04 05:41:33 +0000";
layers = (
{
.lastUpdate = 718090892.512;
layerId = m01;
shapes = (
{
closed = 1;
nodes = (
(203,0,o),
(211,35,o),
(217,69,cs),
(490,1626,l),
(1073,43,ls),
(1082,19,o),
(1102,0,o),
(1138,0,cs),
(1187,0,o),
(1191,32,o),
(1196,62,cs),
(1500,1783,ls),
(1510,1834,o),
(1503,1857,o),
(1458,1857,cs),
(1410,1857,o),
(1393,1833,o),
(1386,1791,cs),
(1111,250,l),
(550,1807,ls),
(542,1832,o),
(517,1857,o),
(472,1857,cs),
(420,1857,o),
(408,1835,o),
(400,1790,cs),
(94,62,ls),
(88,23,o),
(106,0,o),
(149,0,cs)
);
}
);
vertWidth = 0;
width = 1445;
},
{
.lastUpdate = 718090893.058;
layerId = "140DECC1-64C4-40C0-9C07-503DBC3F4160";
shapes = (
{
closed = 1;
nodes = (
(325,0,o),
(380,56,o),
(392,120,cs),
(581,1260,l),
(1076,80,l),
(1100,29,o),
(1140,0,o),
(1213,0,cs),
(1309,0,o),
(1336,56,o),
(1348,116,cs),
(1627,1706,ls),
(1644,1797,o),
(1597,1867,o),
(1504,1867,cs),
(1424,1867,o),
(1360,1821,o),
(1345,1740,cs),
(1155,590,l),
(659,1773,ls),
(633,1833,o),
(583,1857,o),
(524,1857,cs),
(452,1857,o),
(404,1819,o),
(390,1740,cs),
(106,140,ls),
(92,60,o),
(147,0,o),
(228,0,cs)
);
}
);
vertWidth = 0;
width = 1579;
}
);
metricLeft = H;
metricRight = H;
unicode = 78;
},
{
glyphname = O;
kernLeft = KO_O;
kernRight = KO_O;
lastChange = "2023-10-04 06:13:02 +0000";
layers = (
{
.lastUpdate = 718090892.512;
layerId = m01;
shapes = (
{
closed = 1;
nodes = (
(1199,-5,o),
(1421,731,o),
(1488,1113,cs),
(1573,1586,o),
(1424,1862,o),
(1018,1862,cs),
(510,1862,o),
(291,1340,o),
(222,939,cs),
(141,467,o),
(217,-5,o),
(709,-5,cs)
);
},
{
closed = 1;
nodes = (
(384,1168,o),
(568,1758,o),
(1004,1758,cs),
(1405,1758,o),
(1431,1425,o),
(1371,1091,cs),
(1313,768,o),
(1057,102,o),
(707,102,cs),
(305,102,o),
(275,569,o),
(337,914,cs)
);
}
);
vertWidth = 0;
width = 1505;
},
{
.lastUpdate = 718090893.058;
layerId = "140DECC1-64C4-40C0-9C07-503DBC3F4160";
shapes = (
{
closed = 1;
nodes = (
(1212,0,o),
(1534,424,o),
(1655,1106,cs),
(1736,1576,o),
(1585,1857,o),
(1108,1857,cs),
(642,1857,o),
(351,1549,o),
(242,941,cs),
(141,361,o),
(355,0,o),
(805,0,cs)
);
},
{
closed = 1;
nodes = (
(608,1369,o),
(798,1600,o),
(1093,1600,cs),
(1401,1600,o),
(1426,1414,o),
(1368,1090,cs),
(1279,575,o),
(1063,257,o),
(803,257,cs),
(560,257,o),
(454,505,o),
(524,912,cs)
);
}
);
vertWidth = 0;
width = 1648;
}
);
metricLeft = C;
unicode = 79;
userData = {
KernOnName = O;
};
},
{
glyphname = P;
kernLeft = KO_P;
kernRight = KO_P;
lastChange = "2023-10-04 05:41:32 +0000";
layers = (
{
.lastUpdate = 718090892.513;
layerId = m01;
shapes = (
{
closed = 1;
nodes = (
(203,0,o),
(210,33,o),
(215,62,cs),
(371,948,l),
(948,952,o),
(1377,1009,o),
(1428,1392,cs),
(1472,1715,o),
(1097,1857,o),
(474,1857,cs),
(420,1857,o),
(408,1835,o),
(400,1790,cs),
(94,62,ls),
(88,23,o),
(106,0,o),
(150,0,cs)
);
},
{
closed = 1;
nodes = (
(513,1754,l),
(1103,1747,o),
(1338,1615,o),
(1312,1403,cs),
(1276,1116,o),
(868,1059,o),
(389,1055,c)
);
}
);
vertWidth = 0;
width = 1276;
},
{
.lastUpdate = 718090344.073;
layerId = "140DECC1-64C4-40C0-9C07-503DBC3F4160";
shapes = (
{
closed = 1;
nodes = (
(338,0,o),
(384,48,o),
(395,111,cs),
(530,879,l),
(1038,890,o),
(1512,944,o),
(1570,1371,cs),
(1617,1721,o),
(1242,1857,o),
(542,1857,cs),
(456,1857,o),
(404,1821,o),
(389,1740,cs),
(107,137,ls),
(93,60,o),
(148,0,o),
(241,0,cs)
);
},
{
closed = 1;
nodes = (
(659,1607,l),
(1235,1607,o),
(1305,1523,o),
(1292,1386,cs),
(1275,1201,o),
(953,1134,o),
(573,1121,c)
);
}
);
vertWidth = 0;
width = 1463;
}
);
metricLeft = H;
unicode = 80;
},
{
glyphname = Q;
kernLeft = KO_O;
kernRight = KO_Q;
lastChange = "2023-10-04 05:32:24 +0000";
layers = (
{
.lastUpdate = 718090344.073;
layerId = m01;
shapes = (
{
closed = 1;
nodes = (
(794,-18,o),
(869,1,o),
(938,56,c),
(1104,-185,ls),
(1133,-227,o),
(1168,-245,o),
(1199,-228,cs),
(1233,-209,o),
(1232,-166,o),
(1211,-135,cs),
(1034,123,l),
(1303,352,o),
(1442,831,o),
(1492,1115,cs),
(1577,1589,o),
(1425,1857,o),
(1019,1857,cs),
(511,1857,o),
(292,1342,o),
(223,941,cs),
(142,470,o),
(218,-18,o),
(710,-18,cs)
);
},
{
closed = 1;
nodes = (
(385,1171,o),
(569,1754,o),
(1005,1754,cs),
(1406,1754,o),
(1427,1427,o),
(1367,1092,cs),
(1326,855,o),
(1178,431,o),
(964,225,c),
(897,322,ls),
(871,360,o),
(830,376,o),
(795,345,cs),
(767,324,o),
(771,301,o),
(800,257,cs),
(871,154,l),
(820,105,o),
(765,88,o),
(708,88,cs),
(306,88,o),
(276,571,o),
(338,917,cs)
);
}
);
vertWidth = 0;
width = 1509;
},
{
.lastUpdate = 718090344.074;
layerId = "140DECC1-64C4-40C0-9C07-503DBC3F4160";
shapes = (
{
closed = 1;
nodes = (
(868,0,o),
(930,10,o),
(990,31,c),
(1107,-142,ls),
(1158,-219,o),
(1247,-243,o),
(1310,-202,cs),
(1375,-161,o),
(1388,-80,o),
(1343,-12,cs),
(1220,170,l),
(1425,354,o),
(1578,680,o),
(1654,1106,cs),
(1735,1576,o),
(1584,1857,o),
(1107,1857,cs),
(641,1857,o),
(350,1549,o),
(241,941,cs),
(140,361,o),
(354,0,o),
(804,0,cs)
);
},
{
closed = 1;
nodes = (
(607,1369,o),
(797,1600,o),
(1092,1600,cs),
(1400,1600,o),
(1425,1414,o),
(1367,1090,cs),
(1312,770,o),
(1207,526,o),
(1074,388,c),
(1038,440,ls),
(987,517,o),
(898,541,o),
(835,496,cs),
(773,452,o),
(761,365,o),
(807,299,cs),
(834,259,l),
(823,258,o),
(813,257,o),
(802,257,cs),
(559,257,o),
(453,505,o),
(523,912,cs)
);
}
);
vertWidth = 0;
width = 1647;
}
);
unicode = 81;
},
{
glyphname = R;
kernLeft = KO_R;
kernRight = KO_R;
lastChange = "2023-10-04 05:32:24 +0000";
layers = (
{
.lastUpdate = 718090344.074;
layerId = m01;
shapes = (
{
closed = 1;
nodes = (
(200,0,o),
(209,35,o),
(216,79,cs),
(367,932,l),
(1072,43,ls),
(1101,6,o),
(1124,-5,o),
(1142,-5,cs),
(1194,-5,o),
(1213,47,o),
(1158,117,cs),
(499,950,l),
(1000,965,o),
(1382,1045,o),
(1428,1398,cs),
(1470,1715,o),
(1106,1857,o),
(474,1857,cs),
(419,1857,o),
(407,1835,o),
(399,1790,cs),
(97,79,ls),
(89,33,o),
(104,0,o),
(146,0,cs)
);
},
{
closed = 1;
nodes = (
(512,1754,l),
(1064,1747,o),
(1339,1620,o),
(1312,1408,cs),
(1274,1120,o),
(864,1059,o),
(389,1055,c)
);
}
);
vertWidth = 0;
width = 1301;
},
{
.lastUpdate = 718090344.074;
layerId = "140DECC1-64C4-40C0-9C07-503DBC3F4160";
shapes = (
{
closed = 1;
nodes = (
(310,0,o),
(388,65,o),
(402,152,cs),
(516,804,l),
(1068,65,ls),
(1112,6,o),
(1178,0,o),
(1215,0,cs),
(1306,0,o),
(1391,112,o),
(1285,255,cs),
(821,880,l),
(1205,920,o),
(1511,1044,o),
(1570,1368,cs),
(1634,1721,o),
(1241,1857,o),
(546,1857,cs),
(457,1857,o),
(404,1821,o),
(389,1740,cs),
(110,154,ls),
(95,69,o),
(130,0,o),
(221,0,cs)
);
},
{
closed = 1;
nodes = (
(657,1600,l),
(1167,1602,o),
(1317,1519,o),
(1292,1375,cs),
(1263,1203,o),
(963,1134,o),
(573,1122,c)
);
}
);
vertWidth = 0;
width = 1426;
}
);
metricLeft = H;
unicode = 82;
},
{
glyphname = S;
kernLeft = KO_S;
kernRight = KO_S;
lastChange = "2023-10-04 06:15:15 +0000";
layers = (
{
.lastUpdate = 718090344.075;
layerId = m01;
shapes = (
{
closed = 1;
nodes = (
(889,-5,o),
(1121,205,o),
(1121,553,cs),
(1121,733,o),
(991,898,o),
(785,1042,cs),
(569,1191,o),
(431,1287,o),
(431,1430,cs),
(431,1633,o),
(623,1758,o),
(924,1758,cs),
(1133,1758,o),
(1185,1692,o),
(1203,1579,cs),
(1206,1550,o),
(1252,1544,o),
(1284,1551,cs),
(1317,1560,o),
(1317,1590,o),
(1313,1618,cs),
(1279,1798,o),
(1170,1862,o),
(927,1862,cs),
(545,1862,o),
(317,1695,o),
(317,1422,cs),
(317,1226,o),
(478,1119,o),
(684,969,cs),
(918,803,o),
(1002,678,o),
(1002,534,cs),
(1002,267,o),
(811,102,o),
(507,102,cs),
(330,102,o),
(239,163,o),
(213,278,cs),
(205,310,o),
(177,320,o),
(147,312,cs),
(110,301,o),
(99,265,o),
(104,241,cs),
(131,80,o),
(279,-5,o),
(507,-5,cs)
);
}
);
vertWidth = 0;
width = 1268;
},
{
.lastUpdate = 718090344.075;
layerId = "140DECC1-64C4-40C0-9C07-503DBC3F4160";
shapes = (
{
closed = 1;
nodes = (
(929,0,o),
(1227,260,o),
(1227,606,cs),
(1227,770,o),
(1165,893,o),
(870,1100,cs),
(726,1203,o),
(544,1304,o),
(544,1393,cs),
(544,1530,o),
(681,1600,o),
(953,1600,cs),
(1078,1600,o),
(1142,1569,o),
(1154,1504,cs),
(1169,1417,o),
(1256,1398,o),
(1318,1414,c),
(1388,1438,o),
(1414,1499,o),
(1402,1566,cs),
(1364,1776,o),
(1225,1857,o),
(996,1857,cs),
(512,1857,o),
(267,1701,o),
(267,1393,cs),
(267,1121,o),
(527,1005,o),
(681,895,cs),
(893,741,o),
(956,684,o),
(956,575,cs),
(956,397,o),
(794,257,o),
(580,257,cs),
(436,257,o),
(341,299,o),
(329,353,cs),
(313,438,o),
(228,452,o),
(168,440,cs),
(93,426,o),
(65,361,o),
(80,291,cs),
(111,111,o),
(284,0,o),
(532,0,cs)
);
}
);
vertWidth = 0;
width = 1326;
}
);
unicode = 83;
userData = {
KernOnName = S;
};
},
{
glyphname = T;
kernLeft = KO_T;
kernRight = KO_T;
lastChange = "2023-10-04 06:12:16 +0000";
layers = (
{
.lastUpdate = 718090344.075;
layerId = m01;
shapes = (
{
closed = 1;
nodes = (
(611,0,o),
(619,33,o),
(623,62,cs),
(919,1754,l),
(1422,1754,ls),
(1470,1754,o),
(1481,1774,o),
(1481,1806,cs),
(1481,1836,o),
(1470,1857,o),
(1422,1857,cs),
(293,1857,ls),
(242,1857,o),
(231,1836,o),
(231,1806,cs),
(231,1774,o),
(242,1754,o),
(293,1754,cs),
(801,1754,l),
(507,62,ls),
(500,22,o),
(513,0,o),
(560,0,cs)
);
}
);
vertWidth = 0;
width = 1141;
},
{
.lastUpdate = 718090344.075;
layerId = "140DECC1-64C4-40C0-9C07-503DBC3F4160";
shapes = (
{
closed = 1;
nodes = (
(680,-3,o),
(728,51,o),
(740,111,cs),
(1002,1610,l),
(1397,1610,ls),
(1488,1610,o),
(1539,1667,o),
(1539,1734,cs),
(1539,1809,o),
(1484,1867,o),
(1397,1867,cs),
(363,1867,ls),
(276,1867,o),
(220,1809,o),
(220,1734,cs),
(220,1667,o),
(271,1610,o),
(363,1610,cs),
(713,1610,l),
(454,140,ls),
(439,60,o),
(497,-3,o),
(586,-3,cs)
);
}
);
vertWidth = 0;
width = 1185;
}
);
unicode = 84;
userData = {
KernOnName = T;
};
},
{
glyphname = U;
kernLeft = KO_U;
kernRight = KO_H;
lastChange = "2023-10-04 05:41:33 +0000";
layers = (
{
.lastUpdate = 718090892.513;
guides = (
{
angle = 80;
pos = (1321,998);
}
);
layerId = m01;
shapes = (
{
closed = 1;
nodes = (
(618,-18,o),
(965,309,o),
(1234,993,c),
(1070,65,ls),
(1062,19,o),
(1091,0,o),
(1128,0,cs),
(1158,0,o),
(1186,17,o),
(1192,56,cs),
(1499,1798,ls),
(1506,1837,o),
(1493,1857,o),
(1444,1857,cs),
(1399,1857,o),
(1382,1832,o),
(1376,1800,cs),
(1320,1480,l),
(1075,685,o),
(669,89,o),
(376,89,cs),
(223,89,o),
(260,321,o),
(293,510,cs),
(519,1793,ls),
(525,1830,o),
(508,1855,o),
(471,1857,cs),
(431,1857,o),
(404,1826,o),
(397,1782,cs),
(173,511,ls),
(107,135,o),
(189,-18,o),
(352,-18,cs)
);
}
);
vertWidth = 0;
width = 1441;
},
{
.lastUpdate = 718090893.06;
layerId = "140DECC1-64C4-40C0-9C07-503DBC3F4160";
shapes = (
{
closed = 1;
nodes = (
(682,-18,o),
(933,179,o),
(1129,515,c),
(1064,140,ls),
(1047,45,o),
(1118,0,o),
(1198,0,cs),
(1263,0,o),
(1337,33,o),
(1350,105,cs),
(1633,1721,ls),
(1647,1800,o),
(1595,1857,o),
(1498,1857,cs),
(1417,1857,o),
(1359,1814,o),
(1347,1749,cs),
(1312,1552,l),
(1092,744,o),
(786,239,o),
(517,239,cs),
(428,239,o),
(438,359,o),
(468,529,cs),
(676,1716,ls),
(690,1797,o),
(633,1857,o),
(548,1857,cs),
(457,1860,o),
(397,1782,o),
(388,1733,cs),
(180,558,ls),
(111,164,o),
(228,-18,o),
(437,-18,cs)
);
}
);
vertWidth = 0;
width = 1583;
}
);
metricLeft = H;
metricRight = H;
unicode = 85;
},
{
glyphname = V;
kernLeft = KO_V;
kernRight = KO_V;
lastChange = "2023-10-04 05:32:24 +0000";
layers = (
{
.lastUpdate = 718090344.076;
layerId = m01;
shapes = (
{
closed = 1;
nodes = (
(438,-5,o),
(448,19,o),
(468,61,cs),
(1322,1789,ls),
(1347,1839,o),
(1324,1862,o),
(1286,1862,cs),
(1235,1862,o),
(1219,1846,o),
(1195,1799,cs),
(426,209,l),
(352,1807,ls),
(352,1833,o),
(340,1862,o),
(284,1862,cs),
(241,1862,o),
(230,1841,o),
(232,1800,cs),
(327,64,l),
(332,30,o),
(350,-5,o),
(392,-5,cs)
);
}
);
vertWidth = 0;
width = 1017;
},
{
.lastUpdate = 718090344.076;
layerId = "140DECC1-64C4-40C0-9C07-503DBC3F4160";
shapes = (
{
closed = 1;
nodes = (
(537,-5,o),
(573,43,o),
(602,96,c),
(1388,1689,ls),
(1439,1788,o),
(1375,1857,o),
(1283,1857,cs),
(1201,1857,o),
(1145,1824,o),
(1119,1766,c),
(553,597,l),
(499,1745,ls),
(496,1809,o),
(443,1857,o),
(352,1857,cs),
(270,1857,o),
(215,1812,o),
(222,1728,c),
(313,125,ls),
(315,56,o),
(374,-5,o),
(455,-5,cs)
);
}
);
vertWidth = 0;
width = 1187;
}
);
unicode = 86;
},
{
glyphname = W;
kernLeft = KO_W;
kernRight = KO_W;
lastChange = "2023-10-04 05:32:24 +0000";
layers = (
{
.lastUpdate = 718090344.077;
layerId = m01;
shapes = (
{
closed = 1;
nodes = (
(428,-5,o),
(449,32,o),
(463,64,c),
(1237,1663,l),
(1319,39,ls),
(1322,6,o),
(1335,-5,o),
(1381,-5,cs),
(1412,-5,o),
(1434,15,o),
(1454,61,c),
(2307,1789,ls),
(2331,1839,o),
(2308,1862,o),
(2260,1862,cs),
(2224,1862,o),
(2202,1843,o),
(2179,1799,c),
(1416,222,l),
(1335,1806,l),
(1331,1833,o),
(1319,1862,o),
(1261,1862,cs),
(1222,1862,o),
(1195,1820,o),
(1186,1801,cs),
(420,213,l),
(341,1807,l),
(341,1833,o),
(331,1862,o),
(275,1862,cs),
(231,1862,o),
(220,1841,o),
(223,1800,cs),
(318,64,ls),
(322,21,o),
(343,-5,o),
(388,-5,cs)
);
}
);
vertWidth = 0;
width = 2001;
},
{
.lastUpdate = 718090344.077;
layerId = "140DECC1-64C4-40C0-9C07-503DBC3F4160";
shapes = (
{
closed = 1;
nodes = (
(515,0,o),
(566,36,o),
(598,96,cs),
(1178,1264,l),
(1256,128,ls),
(1262,48,o),
(1317,0,o),
(1396,0,cs),
(1459,0,o),
(1516,36,o),
(1546,101,cs),
(2325,1689,ls),
(2373,1788,o),
(2299,1857,o),
(2214,1857,cs),
(2125,1857,o),
(2077,1809,o),
(2051,1758,cs),
(1496,609,l),
(1415,1745,ls),
(1411,1814,o),
(1363,1857,o),
(1262,1857,cs),
(1167,1857,o),
(1141,1805,o),
(1124,1769,cs),
(548,592,l),
(499,1745,ls),
(497,1809,o),
(446,1857,o),
(354,1857,cs),
(273,1857,o),
(215,1812,o),
(222,1728,c),
(306,125,l),
(314,48,o),
(369,0,o),
(461,0,cs)
);
}
);
vertWidth = 0;
width = 2121;
}
);
unicode = 87;
},
{
glyphname = X;
kernLeft = KO_X;
kernRight = KO_X;
lastChange = "2023-10-04 05:32:24 +0000";
layers = (
{
.lastUpdate = 718090344.078;
layerId = m01;
shapes = (
{
closed = 1;
nodes = (
(-31,-14,o),
(13,-17,o),
(40,22,cs),
(611,808,l),
(897,43,ls),
(914,-6,o),
(960,-13,o),
(993,4,cs),
(1017,16,o),
(1025,40,o),
(1010,80,cs),
(694,920,l),
(1306,1765,ls),
(1335,1803,o),
(1329,1834,o),
(1309,1850,cs),
(1284,1871,o),
(1240,1869,o),
(1212,1831,cs),
(644,1052,l),
(355,1818,ls),
(338,1865,o),
(301,1873,o),
(270,1860,cs),
(240,1850,o),
(229,1823,o),
(249,1773,cs),
(562,939,l),
(-62,83,l),
(-85,54,o),
(-80,26,o),
(-59,9,cs)
);
}
);
vertWidth = 0;
width = 1102;
},
{
.lastUpdate = 718090344.078;
layerId = "140DECC1-64C4-40C0-9C07-503DBC3F4160";
shapes = (
{
closed = 1;
nodes = (
(31,-9,o),
(144,-24,o),
(194,45,cs),
(622,643,l),
(833,80,ls),
(864,-3,o),
(972,-17,o),
(1037,17,cs),
(1097,48,o),
(1126,104,o),
(1097,173,c),
(817,915,l),
(1345,1653,ls),
(1395,1721,o),
(1383,1781,o),
(1330,1826,cs),
(1279,1872,o),
(1177,1874,o),
(1126,1805,cs),
(703,1217,l),
(490,1781,ls),
(460,1860,o),
(368,1872,o),
(302,1850,cs),
(228,1824,o),
(202,1764,o),
(236,1674,cs),
(508,946,l),
(-31,197,ls),
(-75,137,o),
(-75,81,o),
(-24,36,cs)
);
}
);
vertWidth = 0;
width = 1177;
}
);
unicode = 88;
},
{
glyphname = Y;
kernLeft = KO_Y;
kernRight = KO_Y;
lastChange = "2023-10-04 05:32:24 +0000";
layers = (
{
.lastUpdate = 718090344.078;
layerId = m01;
shapes = (
{
closed = 1;
nodes = (
(526,-5,o),
(534,29,o),
(541,58,c),
(694,927,l),
(1309,1764,ls),
(1323,1785,o),
(1331,1801,o),
(1331,1815,cs),
(1331,1840,o),
(1303,1862,o),
(1276,1862,cs),
(1249,1862,o),
(1231,1856,o),
(1212,1831,cs),
(648,1052,l),
(355,1812,ls),
(344,1844,o),
(324,1862,o),
(285,1862,cs),
(256,1862,o),
(232,1841,o),
(232,1818,cs),
(232,1803,o),
(234,1798,o),
(244,1773,cs),
(572,925,l),
(419,57,ls),
(413,19,o),
(428,-5,o),
(471,-5,cs)
);
}
);
vertWidth = 0;
width = 1017;
},
{
.lastUpdate = 718090344.078;
layerId = "140DECC1-64C4-40C0-9C07-503DBC3F4160";
shapes = (
{
closed = 1;
nodes = (
(631,-5,o),
(670,56,o),
(682,116,cs),
(819,902,l),
(1377,1643,l),
(1399,1674,o),
(1411,1704,o),
(1411,1737,cs),
(1411,1812,o),
(1322,1857,o),
(1271,1857,cs),
(1226,1857,o),
(1179,1836,o),
(1153,1797,c),
(713,1190,l),
(494,1769,l),
(467,1829,o),
(434,1857,o),
(374,1857,cs),
(290,1857,o),
(222,1812,o),
(222,1752,cs),
(222,1722,o),
(227,1706,o),
(239,1674,cs),
(530,921,l),
(395,140,ls),
(381,60,o),
(441,-5,o),
(533,-5,cs)
);
}
);
vertWidth = 0;
width = 1093;
}
);
unicode = 89;
},
{
glyphname = Z;
kernLeft = KO_Z;
kernRight = KO_Z;
lastChange = "2023-10-04 06:08:47 +0000";
layers = (
{
.lastUpdate = 718090344.079;
layerId = m01;
shapes = (
{
closed = 1;
nodes = (
(956,-5,ls),
(1007,-5,o),
(1019,21,o),
(1019,55,cs),
(1019,85,o),
(1008,102,o),
(956,102,cs),
(85,102,l),
(1281,1761,ls),
(1295,1782,o),
(1304,1803,o),
(1304,1818,cs),
(1304,1850,o),
(1290,1862,o),
(1243,1862,cs),
(296,1862,ls),
(247,1862,o),
(235,1836,o),
(235,1806,cs),
(235,1773,o),
(245,1758,o),
(296,1758,cs),
(1144,1758,l),
(-60,86,ls),
(-72,69,o),
(-75,56,o),
(-75,43,cs),
(-75,18,o),
(-59,-5,o),
(-12,-5,cs)
);
}
);
vertWidth = 0;
width = 1102;
},
{
.lastUpdate = 718090344.079;
layerId = "140DECC1-64C4-40C0-9C07-503DBC3F4160";
shapes = (
{
closed = 1;
nodes = (
(987,0,ls),
(1079,0,o),
(1129,56,o),
(1129,123,cs),
(1129,197,o),
(1071,257,o),
(987,257,cs),
(343,257,l),
(1355,1648,ls),
(1382,1684,o),
(1391,1716,o),
(1391,1745,cs),
(1391,1814,o),
(1331,1867,o),
(1238,1867,cs),
(369,1867,ls),
(282,1867,o),
(227,1809,o),
(227,1734,cs),
(227,1667,o),
(278,1610,o),
(369,1610,cs),
(989,1610,l),
(-40,200,ls),
(-56,178,o),
(-64,152,o),
(-64,125,cs),
(-64,72,o),
(-28,0,o),
(100,0,cs)
);
}
);
vertWidth = 0;
width = 1198;
}
);
unicode = 90;
userData = {
KernOnName = Z;
};
},
{
color = 10;
glyphname = A.ss02;
kernLeft = KO_M;
kernRight = KO_A.ss04;
lastChange = "2023-10-04 05:41:33 +0000";
layers = (
{
.lastUpdate = 718090892.515;
layerId = m01;
shapes = (
{
closed = 1;
nodes = (
(86,0,o),
(102,23,o),
(129,77,cs),
(565,932,l),
(935,932,l),
(1003,78,ls),
(1005,48,o),
(1017,0,o),
(1085,0,cs),
(1142,0,o),
(1162,36,o),
(1158,84,cs),
(1014,1797,ls),
(1011,1830,o),
(988,1857,o),
(935,1857,cs),
(865,1857,o),
(861,1820,o),
(842,1783,cs),
(-32,105,ls),
(-67,40,o),
(-23,0,o),
(26,0,cs)
);
},
{
closed = 1;
nodes = (
(-14,19,o),
(-44,45,o),
(-17,96,cs),
(858,1775,ls),
(880,1816,o),
(881,1839,o),
(935,1839,cs),
(978,1839,o),
(993,1820,o),
(995,1795,cs),
(1140,82,ls),
(1144,42,o),
(1130,19,o),
(1085,19,cs),
(1031,19,o),
(1023,51,o),
(1021,79,cs),
(952,951,l),
(554,951,l),
(113,85,ls),
(86,33,o),
(76,19,o),
(26,19,cs)
);
},
{
closed = 1;
nodes = (
(923,1072,l),
(886,1562,l),
(637,1072,l)
);
},
{
closed = 1;
nodes = (
(877,1585,ls),
(894,1619,o),
(899,1619,o),
(902,1580,cs),
(943,1055,l),
(607,1055,l)
);
}
);
vertWidth = 0;
width = 1268;
},
{
.lastUpdate = 718090893.061;
layerId = "140DECC1-64C4-40C0-9C07-503DBC3F4160";
shapes = (
{
closed = 1;
nodes = (
(187,-18,o),
(238,7,o),
(277,85,cs),
(610,743,l),
(964,742,l),
(1016,115,ls),
(1022,34,o),
(1075,-18,o),
(1174,-18,cs),
(1263,-18,o),
(1330,32,o),
(1322,134,cs),
(1185,1724,ls),
(1177,1824,o),
(1103,1876,o),
(1005,1876,cs),
(904,1876,o),
(839,1828,o),
(808,1770,cs),
(-19,179,ls),
(-80,65,o),
(3,-18,o),
(104,-18,cs)
);
},
{
closed = 1;
nodes = (
(24,19,o),
(-33,72,o),
(14,163,cs),
(842,1753,ls),
(868,1803,o),
(918,1839,o),
(1005,1839,cs),
(1089,1839,o),
(1141,1802,o),
(1148,1721,cs),
(1285,130,ls),
(1291,52,o),
(1247,19,o),
(1174,19,cs),
(1092,19,o),
(1058,54,o),
(1053,117,cs),
(997,779,l),
(587,780,l),
(243,102,ls),
(210,36,o),
(176,19,o),
(104,19,cs)
);
},
{
closed = 1;
nodes = (
(940,1038,l),
(914,1342,l),
(759,1038,l)
);
},
{
closed = 1;
nodes = (
(898,1392,ls),
(930,1453,o),
(940,1458,o),
(945,1396,cs),
(979,1001,l),
(699,1001,l)
);
}
);
vertWidth = 0;
width = 1420;
}
);
metricLeft = A;
metricRight = A;
},
{
color = 10;
glyphname = B.ss02;
kernLeft = KO_B;
kernRight = KO_B.ss04;
lastChange = "2023-10-04 05:41:33 +0000";
layers = (
{
.lastUpdate = 718090892.515;
layerId = m01;
shapes = (
{
closed = 1;
nodes = (
(967,0,o),
(1198,154,o),
(1247,471,cs),
(1287,728,o),
(1160,903,o),
(891,996,c),
(1241,1053,o),
(1329,1183,o),
(1351,1359,cs),
(1395,1701,o),
(1100,1857,o),
(488,1857,cs),
(437,1857,o),
(407,1835,o),
(396,1774,cs),
(100,99,ls),
(92,51,o),
(116,0,o),
(161,0,cs)
);
},
{
closed = 1;
nodes = (
(129,19,o),
(110,56,o),
(117,95,cs),
(413,1770,ls),
(423,1824,o),
(444,1839,o),
(488,1839,cs),
(1093,1839,o),
(1374,1690,o),
(1333,1362,cs),
(1310,1175,o),
(1217,1051,o),
(805,1003,c),
(1123,919,o),
(1270,742,o),
(1229,473,cs),
(1183,167,o),
(959,19,o),
(161,19,cs)
);
},
{
closed = 1;
nodes = (
(765,154,o),
(1052,228,o),
(1089,489,cs),
(1124,736,o),
(927,924,o),
(410,944,c),
(270,150,l)
);
},
{
closed = 1;
nodes = (
(394,962,l),
(932,945,o),
(1144,746,o),
(1107,487,cs),
(1067,208,o),
(759,133,o),
(248,131,c)
);
},
{
closed = 1;
nodes = (
(1080,1081,o),
(1171,1190,o),
(1190,1365,cs),
(1217,1610,o),
(972,1704,o),
(544,1710,c),
(432,1073,l)
);
},
{
closed = 1;
nodes = (
(529,1729,l),
(970,1725,o),
(1240,1627,o),
(1209,1363,cs),
(1188,1178,o),
(1089,1061,o),
(411,1055,c)
);
}
);
vertWidth = 0;
width = 1364;
},
{
.lastUpdate = 718090893.063;
layerId = "140DECC1-64C4-40C0-9C07-503DBC3F4160";
shapes = (
{
closed = 1;
nodes = (
(1091,-18,o),
(1394,57,o),
(1451,469,cs),
(1487,725,o),
(1380,882,o),
(1183,983,c),
(1439,1060,o),
(1568,1195,o),
(1586,1346,cs),
(1631,1717,o),
(1288,1876,o),
(547,1876,cs),
(476,1876,o),
(409,1852,o),
(389,1743,cs),
(109,154,ls),
(92,56,o),
(163,-18,o),
(248,-18,cs)
);
},
{
closed = 1;
nodes = (
(182,19,o),
(132,70,o),
(146,149,cs),
(426,1737,ls),
(441,1822,o),
(486,1839,o),
(547,1839,cs),
(1277,1839,o),
(1589,1695,o),
(1549,1351,cs),
(1530,1189,o),
(1386,1061,o),
(1069,993,c),
(1319,900,o),
(1453,746,o),
(1414,475,cs),
(1360,90,o),
(1083,19,o),
(248,19,cs)
);
},
{
closed = 1;
nodes = (
(948,290,o),
(1104,345,o),
(1130,524,cs),
(1162,737,o),
(1023,831,o),
(561,848,c),
(461,277,l)
);
},
{
closed = 1;
nodes = (
(531,887,l),
(1033,871,o),
(1202,763,o),
(1167,519,cs),
(1138,311,o),
(947,249,o),
(416,238,c)
);
},
{
closed = 1;
nodes = (
(1229,1141,o),
(1254,1274,o),
(1263,1365,cs),
(1273,1485,o),
(1184,1562,o),
(690,1578,c),
(609,1122,l)
);
},
{
closed = 1;
nodes = (
(659,1616,l),
(1197,1603,o),
(1313,1507,o),
(1300,1362,cs),
(1290,1263,o),
(1263,1099,o),
(565,1083,c)
);
}
);
vertWidth = 0;
width = 1558;
}
);
metricLeft = B;
metricRight = B;
},
{
color = 10;
glyphname = C.ss02;
kernLeft = KO_C;
kernRight = KO_C.ss02;
lastChange = "2023-10-04 05:41:33 +0000";
layers = (
{
.lastUpdate = 718090344.081;
layerId = m01;
shapes = (
{
closed = 1;
nodes = (
(936,0,o),
(1129,129,o),
(1292,308,cs),
(1363,387,o),
(1371,425,o),
(1368,447,cs),
(1361,485,o),
(1332,505,o),
(1292,505,cs),
(1240,505,o),
(1223,453,o),
(1167,404,cs),
(1013,257,o),
(875,150,o),
(692,150,cs),
(494,150,o),
(290,398,o),
(370,868,cs),
(427,1193,o),
(561,1710,o),
(1049,1710,cs),
(1178,1710,o),
(1313,1652,o),
(1438,1521,cs),
(1481,1478,o),
(1525,1490,o),
(1551,1518,cs),
(1578,1548,o),
(1571,1597,o),
(1542,1625,cs),
(1396,1766,o),
(1230,1857,o),
(1052,1857,cs),
(444,1857,o),
(283,1277,o),
(211,873,cs),
(110,310,o),
(413,0,o),
(690,0,cs)
);
},
{
closed = 1;
nodes = (
(422,19,o),
(130,317,o),
(229,870,cs),
(301,1272,o),
(458,1839,o),
(1052,1839,cs),
(1226,1839,o),
(1391,1758,o),
(1529,1612,cs),
(1553,1589,o),
(1559,1551,o),
(1537,1530,cs),
(1518,1507,o),
(1486,1499,o),
(1451,1533,cs),
(1324,1668,o),
(1182,1729,o),
(1049,1729,cs),
(547,1729,o),
(409,1197,o),
(352,870,cs),
(270,390,o),
(484,131,o),
(692,131,cs),
(882,131,o),
(1025,243,o),
(1179,391,cs),
(1240,443,o),
(1252,487,o),
(1292,487,cs),
(1326,487,o),
(1344,473,o),
(1350,444,cs),
(1352,426,o),
(1346,395,o),
(1278,320,cs),
(1117,142,o),
(930,19,o),
(690,19,cs)
);
}
);
vertWidth = 0;
width = 1447;
},
{
.lastUpdate = 718090893.065;
layerId = "140DECC1-64C4-40C0-9C07-503DBC3F4160";
shapes = (
{
closed = 1;
nodes = (
(1031,-18,o),
(1281,95,o),
(1451,280,cs),
(1524,360,o),
(1554,402,o),
(1554,462,cs),
(1554,524,o),
(1506,579,o),
(1420,579,cs),
(1371,579,o),
(1308,561,o),
(1236,481,cs),
(1120,352,o),
(957,276,o),
(797,276,cs),
(598,276,o),
(494,519,o),
(553,866,cs),
(635,1346,o),
(834,1582,o),
(1158,1582,cs),
(1285,1582,o),
(1370,1554,o),
(1459,1473,cs),
(1533,1407,o),
(1631,1375,o),
(1703,1448,cs),
(1778,1523,o),
(1735,1619,o),
(1659,1688,cs),
(1503,1829,o),
(1342,1876,o),
(1161,1876,cs),
(660,1876,o),
(348,1536,o),
(230,874,cs),
(142,364,o),
(382,-18,o),
(795,-18,cs)
);
},
{
closed = 1;
nodes = (
(405,19,o),
(181,375,o),
(267,869,cs),
(382,1517,o),
(678,1839,o),
(1161,1839,cs),
(1336,1839,o),
(1486,1795,o),
(1635,1660,cs),
(1703,1598,o),
(1733,1530,o),
(1677,1474,cs),
(1622,1419,o),
(1549,1441,o),
(1483,1500,cs),
(1389,1587,o),
(1291,1619,o),
(1158,1619,cs),
(815,1619,o),
(600,1364,o),
(516,871,cs),
(455,511,o),
(571,239,o),
(797,239,cs),
(967,239,o),
(1142,321,o),
(1264,457,cs),
(1327,527,o),
(1377,542,o),
(1420,542,cs),
(1487,542,o),
(1517,508,o),
(1517,462,cs),
(1517,414,o),
(1495,383,o),
(1424,306,cs),
(1260,127,o),
(1022,19,o),
(795,19,cs)
);
}
);
vertWidth = 0;
width = 1573;
}
);
metricLeft = C;
metricRight = C;
},
{
color = 10;
glyphname = D.ss02;
kernLeft = KO_R;
kernRight = KO_D.ss04;
lastChange = "2023-10-04 05:41:33 +0000";
layers = (
{
.lastUpdate = 718090892.516;
layerId = m01;
shapes = (
{
closed = 1;
nodes = (
(356,0,ls),
(903,0,o),
(1364,349,o),
(1449,982,cs),
(1523,1551,o),
(1117,1857,o),
(591,1857,cs),
(488,1857,ls),
(423,1857,o),
(404,1821,o),
(396,1774,cs),
(98,87,ls),
(90,38,o),
(114,0,o),
(171,0,cs)
);
},
{
closed = 1;
nodes = (
(125,19,o),
(108,43,o),
(116,83,cs),
(414,1770,ls),
(422,1814,o),
(435,1839,o),
(488,1839,cs),
(591,1839,ls),
(1110,1839,o),
(1503,1542,o),
(1430,985,cs),
(1347,360,o),
(895,19,o),
(356,19,cs),
(171,19,ls)
);
},
{
closed = 1;
nodes = (
(356,150,ls),
(810,150,o),
(1221,436,o),
(1289,1004,cs),
(1341,1453,o),
(1031,1710,o),
(601,1710,cs),
(545,1710,l),
(269,150,l)
);
},
{
closed = 1;
nodes = (
(529,1729,l),
(601,1729,ls),
(1039,1729,o),
(1361,1462,o),
(1308,1002,cs),
(1238,425,o),
(817,131,o),
(356,131,cs),
(248,131,l)
);
}
);
vertWidth = 0;
width = 1448;
},
{
.lastUpdate = 718090893.066;
layerId = "140DECC1-64C4-40C0-9C07-503DBC3F4160";
shapes = (
{
closed = 1;
nodes = (
(477,-18,ls),
(1062,-18,o),
(1553,417,o),
(1632,1001,cs),
(1706,1543,o),
(1347,1876,o),
(698,1876,cs),
(555,1876,ls),
(457,1876,o),
(405,1831,o),
(389,1744,cs),
(107,143,ls),
(92,55,o),
(156,-18,o),
(256,-18,cs)
);
},
{
closed = 1;
nodes = (
(176,19,o),
(132,68,o),
(144,136,cs),
(426,1736,ls),
(439,1809,o),
(474,1839,o),
(555,1839,cs),
(698,1839,ls),
(1329,1839,o),
(1666,1525,o),
(1595,1006,cs),
(1518,438,o),
(1045,19,o),
(477,19,cs),
(256,19,ls)
);
},
{
closed = 1;
nodes = (
(477,274,ls),
(906,274,o),
(1263,585,o),
(1318,1004,cs),
(1365,1365,o),
(1139,1584,o),
(713,1584,cs),
(691,1584,l),
(461,274,l)
);
},
{
closed = 1;
nodes = (
(659,1621,l),
(713,1621,ls),
(1156,1621,o),
(1405,1381,o),
(1355,998,cs),
(1299,564,o),
(922,237,o),
(477,237,cs),
(416,237,l)
);
}
);
vertWidth = 0;
width = 1656;
}
);
metricLeft = D;
metricRight = D;
},
{
color = 10;
glyphname = E.ss02;
kernLeft = KO_H;
kernRight = KO_E.ss04;
lastChange = "2023-10-04 05:41:33 +0000";
layers = (
{
.lastUpdate = 718090892.517;
layerId = m01;
shapes = (
{
closed = 1;
nodes = (
(1122,0,ls),
(1186,0,o),
(1205,47,o),
(1205,83,cs),
(1205,120,o),
(1185,150,o),
(1122,150,cs),
(269,150,l),
(407,930,l),
(1151,930,ls),
(1215,930,o),
(1234,967,o),
(1233,997,cs),
(1232,1036,o),
(1215,1073,o),
(1150,1073,cs),
(432,1073,l),
(545,1710,l),
(1399,1710,ls),
(1462,1710,o),
(1481,1740,o),
(1481,1780,cs),
(1481,1816,o),
(1462,1857,o),
(1399,1857,cs),
(491,1857,ls),
(423,1857,o),
(404,1820,o),
(396,1774,cs),
(98,87,ls),
(90,38,o),
(114,0,o),
(171,0,cs)
);
},
{
closed = 1;
nodes = (
(125,19,o),
(108,43,o),
(116,83,cs),
(414,1770,ls),
(422,1814,o),
(435,1839,o),
(491,1839,cs),
(1399,1839,ls),
(1449,1839,o),
(1463,1810,o),
(1463,1780,cs),
(1463,1746,o),
(1451,1729,o),
(1399,1729,cs),
(529,1729,l),
(410,1055,l),
(1150,1055,ls),
(1203,1055,o),
(1214,1030,o),
(1215,997,cs),
(1215,972,o),
(1203,948,o),
(1151,948,cs),
(391,948,l),
(248,131,l),
(1122,131,ls),
(1175,131,o),
(1188,114,o),
(1188,83,cs),
(1188,52,o),
(1173,19,o),
(1122,19,cs),
(171,19,ls)
);
}
);
vertWidth = 0;
width = 1335;
},
{
.lastUpdate = 718090893.068;
layerId = "140DECC1-64C4-40C0-9C07-503DBC3F4160";
shapes = (
{
closed = 1;
nodes = (
(1226,-18,ls),
(1319,-18,o),
(1386,34,o),
(1386,120,cs),
(1386,196,o),
(1334,274,o),
(1230,274,cs),
(461,274,l),
(560,842,l),
(1285,842,ls),
(1385,842,o),
(1457,905,o),
(1457,983,cs),
(1457,1068,o),
(1392,1122,o),
(1299,1122,cs),
(610,1122,l),
(691,1584,l),
(1507,1584,ls),
(1603,1584,o),
(1672,1647,o),
(1672,1733,cs),
(1672,1815,o),
(1611,1876,o),
(1514,1876,cs),
(561,1876,ls),
(465,1876,o),
(407,1839,o),
(391,1750,cs),
(107,144,ls),
(92,56,o),
(135,-18,o),
(232,-18,cs)
);
},
{
closed = 1;
nodes = (
(159,19,o),
(131,67,o),
(144,139,cs),
(428,1743,ls),
(441,1815,o),
(478,1839,o),
(561,1839,cs),
(1514,1839,ls),
(1594,1839,o),
(1635,1797,o),
(1635,1733,cs),
(1635,1666,o),
(1586,1621,o),
(1507,1621,cs),
(659,1621,l),
(565,1085,l),
(1299,1085,ls),
(1376,1085,o),
(1420,1049,o),
(1420,983,cs),
(1420,924,o),
(1368,879,o),
(1285,879,cs),
(528,879,l),
(416,237,l),
(1230,237,ls),
(1312,237,o),
(1349,182,o),
(1349,120,cs),
(1349,55,o),
(1303,19,o),
(1226,19,cs),
(232,19,ls)
);
}
);
vertWidth = 0;
width = 1466;
}
);
metricLeft = E;
metricRight = E;
},
{
color = 10;
glyphname = F.ss02;
kernLeft = KO_E;
kernRight = KO_F.ss04;
lastChange = "2023-10-04 05:41:33 +0000";
layers = (
{
.lastUpdate = 718090344.084;
layerId = m01;
shapes = (
{
closed = 1;
nodes = (
(241,0,o),
(251,50,o),
(256,80,cs),
(407,930,l),
(1119,930,ls),
(1184,930,o),
(1203,967,o),
(1203,997,cs),
(1203,1036,o),
(1184,1073,o),
(1119,1073,cs),
(433,1073,l),
(545,1710,l),
(1370,1710,ls),
(1433,1710,o),
(1453,1740,o),
(1453,1780,cs),
(1453,1816,o),
(1434,1857,o),
(1370,1857,cs),
(491,1857,ls),
(423,1857,o),
(404,1820,o),
(396,1774,cs),
(98,87,ls),
(90,38,o),
(115,0,o),
(172,0,cs)
);
},
{
closed = 1;
nodes = (
(126,19,o),
(109,44,o),
(116,83,cs),
(414,1770,ls),
(422,1814,o),
(435,1839,o),
(491,1839,cs),
(1370,1839,ls),
(1422,1839,o),
(1435,1810,o),
(1435,1780,cs),
(1435,1746,o),
(1423,1729,o),
(1370,1729,cs),
(529,1729,l),
(411,1055,l),
(1119,1055,ls),
(1172,1055,o),
(1185,1030,o),
(1185,997,cs),
(1185,972,o),
(1172,948,o),
(1119,948,cs),
(391,948,l),
(239,82,ls),
(234,55,o),
(226,19,o),
(172,19,cs)
);
}
);
vertWidth = 0;
width = 1183;
},
{
.lastUpdate = 718090893.07;
layerId = "140DECC1-64C4-40C0-9C07-503DBC3F4160";
shapes = (
{
closed = 1;
nodes = (
(352,-18,o),
(422,49,o),
(438,144,cs),
(560,842,l),
(1272,842,ls),
(1374,842,o),
(1429,907,o),
(1429,985,cs),
(1429,1067,o),
(1370,1122,o),
(1274,1122,cs),
(610,1122,l),
(691,1584,l),
(1474,1584,ls),
(1580,1584,o),
(1642,1658,o),
(1642,1728,cs),
(1642,1817,o),
(1581,1876,o),
(1484,1876,cs),
(556,1876,ls),
(458,1876,o),
(406,1836,o),
(390,1747,cs),
(110,157,ls),
(95,73,o),
(125,-18,o),
(253,-18,cs)
);
},
{
closed = 1;
nodes = (
(153,19,o),
(134,79,o),
(147,150,cs),
(427,1742,ls),
(440,1814,o),
(473,1839,o),
(556,1839,cs),
(1484,1839,ls),
(1563,1839,o),
(1605,1799,o),
(1605,1728,cs),
(1605,1673,o),
(1560,1621,o),
(1474,1621,cs),
(659,1621,l),
(565,1085,l),
(1274,1085,ls),
(1353,1085,o),
(1392,1049,o),
(1392,985,cs),
(1392,922,o),
(1354,879,o),
(1272,879,cs),
(529,879,l),
(401,150,ls),
(388,69,o),
(336,19,o),
(253,19,cs)
);
}
);
vertWidth = 0;
width = 1372;
}
);
metricLeft = F;
metricRight = F;
},
{
color = 10;
glyphname = G.ss02;
kernLeft = KO_G;
kernRight = KO_G.ss04;
lastChange = "2023-10-04 05:41:33 +0000";
layers = (
{
.lastUpdate = 718090344.085;
layerId = m01;
shapes = (
{
closed = 1;
nodes = (
(840,-18,o),
(996,88,o),
(1178,336,c),
(1138,87,ls),
(1132,51,o),
(1141,4,o),
(1203,0,cs),
(1277,-3,o),
(1293,52,o),
(1299,84,cs),
(1409,724,ls),
(1418,777,o),
(1403,811,o),
(1345,811,cs),
(1282,811,o),
(1251,767,o),
(1219,692,cs),
(1070,351,o),
(874,131,o),
(675,131,cs),
(427,131,o),
(300,450,o),
(370,868,cs),
(467,1429,o),
(695,1729,o),
(1049,1729,cs),
(1178,1729,o),
(1303,1673,o),
(1431,1541,cs),
(1471,1500,o),
(1515,1511,o),
(1542,1539,cs),
(1570,1568,o),
(1563,1618,o),
(1535,1647,cs),
(1395,1794,o),
(1230,1876,o),
(1052,1876,cs),
(611,1876,o),
(329,1524,o),
(211,873,cs),
(125,374,o),
(320,-18,o),
(672,-18,cs)
);
},
{
closed = 1;
nodes = (
(333,0,o),
(144,378,o),
(229,870,cs),
(346,1515,o),
(620,1857,o),
(1052,1857,cs),
(1226,1857,o),
(1384,1779,o),
(1522,1634,cs),
(1546,1610,o),
(1548,1573,o),
(1528,1551,cs),
(1508,1529,o),
(1476,1521,o),
(1444,1553,cs),
(1314,1689,o),
(1182,1747,o),
(1049,1747,cs),
(685,1747,o),
(450,1438,o),
(352,870,cs),
(280,447,o),
(413,113,o),
(675,113,cs),
(882,113,o),
(1086,339,o),
(1236,685,cs),
(1267,758,o),
(1292,793,o),
(1345,793,cs),
(1391,793,o),
(1399,773,o),
(1391,728,cs),
(1281,87,ls),
(1276,56,o),
(1264,16,o),
(1204,19,cs),
(1157,21,o),
(1152,52,o),
(1156,83,cs),
(1201,360,ls),
(1207,402,o),
(1201,400,o),
(1175,363,cs),
(991,105,o),
(838,0,o),
(672,0,cs)
);
}
);
vertWidth = 0;
width = 1543;
},
{
.lastUpdate = 718090893.073;
layerId = "140DECC1-64C4-40C0-9C07-503DBC3F4160";
shapes = (
{
closed = 1;
nodes = (
(920,-18,o),
(1054,67,o),
(1175,217,c),
(1164,161,ls),
(1144,60,o),
(1216,-1,o),
(1325,-1,cs),
(1436,-1,o),
(1467,60,o),
(1480,135,cs),
(1590,760,ls),
(1608,860,o),
(1551,926,o),
(1451,926,cs),
(1391,926,o),
(1323,911,o),
(1246,770,cs),
(1102,518,o),
(922,276,o),
(737,276,cs),
(581,276,o),
(489,493,o),
(553,866,cs),
(635,1346,o),
(834,1582,o),
(1158,1582,cs),
(1285,1582,o),
(1370,1554,o),
(1459,1473,cs),
(1533,1407,o),
(1631,1375,o),
(1703,1448,cs),
(1778,1523,o),
(1735,1619,o),
(1659,1688,cs),
(1503,1829,o),
(1342,1876,o),
(1161,1876,cs),
(660,1876,o),
(348,1536,o),
(230,874,cs),
(134,325,o),
(353,-18,o),
(735,-18,cs)
);
},
{
closed = 1;
nodes = (
(375,19,o),
(174,336,o),
(267,869,cs),
(382,1517,o),
(678,1839,o),
(1161,1839,cs),
(1336,1839,o),
(1486,1795,o),
(1635,1660,cs),
(1703,1598,o),
(1733,1530,o),
(1677,1474,cs),
(1622,1419,o),
(1549,1441,o),
(1483,1500,cs),
(1389,1587,o),
(1291,1619,o),
(1158,1619,cs),
(815,1619,o),
(600,1364,o),
(516,871,cs),
(450,484,o),
(554,239,o),
(737,239,cs),
(942,239,o),
(1132,497,o),
(1278,751,cs),
(1346,877,o),
(1396,889,o),
(1451,889,cs),
(1532,889,o),
(1567,846,o),
(1553,766,cs),
(1443,141,ls),
(1432,75,o),
(1412,36,o),
(1325,36,cs),
(1232,36,o),
(1187,76,o),
(1201,154,cs),
(1223,275,ls),
(1233,328,o),
(1215,333,o),
(1180,286,cs),
(1055,112,o),
(925,19,o),
(735,19,cs)
);
}
);
vertWidth = 0;
width = 1724;
}
);
metricLeft = G;
metricRight = G;
},
{
color = 10;
glyphname = H.ss02;
kernLeft = KO_E;
kernRight = KO_H.ss04;
lastChange = "2023-10-04 05:41:33 +0000";
layers = (
{
.lastUpdate = 718090344.087;
layerId = m01;
shapes = (
{
closed = 1;
nodes = (
(241,0,o),
(252,50,o),
(257,80,cs),
(407,930,l),
(1197,930,l),
(1051,87,ls),
(1044,51,o),
(1052,0,o),
(1124,0,cs),
(1186,0,o),
(1204,42,o),
(1209,70,cs),
(1508,1766,ls),
(1517,1819,o),
(1496,1857,o),
(1435,1857,cs),
(1376,1857,o),
(1350,1820,o),
(1344,1788,cs),
(1221,1073,l),
(432,1073,l),
(553,1758,ls),
(563,1816,o),
(545,1857,o),
(490,1857,cs),
(430,1857,o),
(404,1821,o),
(396,1774,cs),
(98,87,ls),
(90,38,o),
(115,0,o),
(171,0,cs)
);
},
{
closed = 1;
nodes = (
(125,19,o),
(108,43,o),
(116,83,cs),
(413,1770,ls),
(421,1813,o),
(440,1839,o),
(490,1839,cs),
(533,1839,o),
(544,1811,o),
(535,1761,cs),
(410,1055,l),
(1237,1055,l),
(1363,1784,ls),
(1367,1812,o),
(1388,1839,o),
(1435,1839,cs),
(1484,1839,o),
(1499,1814,o),
(1490,1769,cs),
(1191,73,ls),
(1187,48,o),
(1174,19,o),
(1124,19,cs),
(1068,19,o),
(1064,52,o),
(1069,83,cs),
(1218,948,l),
(391,948,l),
(239,82,ls),
(234,55,o),
(227,19,o),
(171,19,cs)
);
}
);
vertWidth = 0;
width = 1456;
},
{
.lastUpdate = 718090893.074;
layerId = "140DECC1-64C4-40C0-9C07-503DBC3F4160";
shapes = (
{
closed = 1;
nodes = (
(371,-18,o),
(423,48,o),
(431,113,c),
(548,787,l),
(1178,787,l),
(1066,142,ls),
(1049,49,o),
(1109,-18,o),
(1214,-18,cs),
(1304,-18,o),
(1373,36,o),
(1387,102,c),
(1666,1709,ls),
(1684,1814,o),
(1616,1876,o),
(1517,1876,cs),
(1427,1876,o),
(1359,1827,o),
(1347,1755,cs),
(1229,1082,l),
(599,1082,l),
(708,1703,ls),
(727,1816,o),
(666,1876,o),
(573,1876,cs),
(490,1876,o),
(406,1836,o),
(389,1744,cs),
(108,143,ls),
(92,52,o),
(160,-18,o),
(261,-18,cs)
);
},
{
closed = 1;
nodes = (
(178,19,o),
(132,67,o),
(145,136,cs),
(426,1736,ls),
(439,1808,o),
(501,1839,o),
(573,1839,cs),
(648,1839,o),
(687,1800,o),
(671,1708,cs),
(555,1045,l),
(1261,1045,l),
(1384,1749,ls),
(1392,1804,o),
(1441,1839,o),
(1517,1839,cs),
(1598,1839,o),
(1644,1798,o),
(1629,1717,cs),
(1350,109,ls),
(1339,58,o),
(1289,19,o),
(1214,19,cs),
(1128,19,o),
(1089,63,o),
(1103,137,cs),
(1223,824,l),
(517,824,l),
(394,118,l),
(388,65,o),
(351,19,o),
(261,19,cs)
);
}
);
vertWidth = 0;
width = 1620;
}
);
metricLeft = H;
metricRight = H;
},
{
color = 10;
glyphname = I.ss02;
kernLeft = KO_I.ss04;
kernRight = KO_I.ss04;
lastChange = "2023-10-04 05:41:33 +0000";
layers = (
{
.lastUpdate = 718090892.519;
layerId = m01;
shapes = (
{
closed = 1;
nodes = (
(433,0,ls),
(498,0,o),
(516,37,o),
(516,73,cs),
(516,113,o),
(498,150,o),
(433,150,cs),
(395,150,l),
(670,1710,l),
(729,1710,ls),
(790,1710,o),
(809,1750,o),
(809,1786,cs),
(809,1823,o),
(790,1857,o),
(729,1857,cs),
(476,1857,ls),
(412,1857,o),
(394,1823,o),
(394,1786,cs),
(394,1750,o),
(412,1710,o),
(476,1710,cs),
(504,1710,l),
(232,150,l),
(169,150,ls),
(108,150,o),
(89,112,o),
(89,73,cs),
(89,37,o),
(108,0,o),
(169,0,cs)
);
},
{
closed = 1;
nodes = (
(120,19,o),
(107,43,o),
(107,73,cs),
(107,106,o),
(120,131,o),
(169,131,cs),
(248,131,l),
(526,1729,l),
(476,1729,ls),
(425,1729,o),
(412,1755,o),
(412,1786,cs),
(412,1818,o),
(425,1839,o),
(476,1839,cs),
(729,1839,ls),
(779,1839,o),
(791,1818,o),
(791,1786,cs),
(791,1755,o),
(778,1729,o),
(729,1729,cs),
(654,1729,l),
(374,131,l),
(433,131,ls),
(486,131,o),
(498,106,o),
(498,73,cs),
(498,43,o),
(486,19,o),
(433,19,cs),
(169,19,ls)
);
}
);
vertWidth = 0;
width = 756;
},
{
.lastUpdate = 718090893.076;
layerId = "140DECC1-64C4-40C0-9C07-503DBC3F4160";
shapes = (
{
closed = 1;
nodes = (
(611,-18,ls),
(721,-18,o),
(757,50,o),
(767,122,cs),
(780,202,o),
(737,276,o),
(652,276,cs),
(565,276,l),
(792,1582,l),
(898,1582,ls),
(1001,1582,o),
(1048,1659,o),
(1061,1732,cs),
(1071,1814,o),
(1015,1876,o),
(939,1876,cs),
(428,1876,ls),
(331,1876,o),
(284,1814,o),
(271,1737,cs),
(257,1660,o),
(310,1582,o),
(390,1582,cs),
(464,1582,l),
(239,276,l),
(144,276,ls),
(42,276,o),
(-7,204,o),
(-20,128,cs),
(-34,50,o),
(19,-18,o),
(104,-18,cs)
);
},
{
closed = 1;
nodes = (
(41,19,o),
(5,62,o),
(17,122,cs),
(28,188,o),
(63,239,o),
(144,239,cs),
(270,239,l),
(509,1619,l),
(390,1619,ls),
(333,1619,o),
(297,1671,o),
(308,1732,cs),
(319,1797,o),
(351,1839,o),
(428,1839,cs),
(939,1839,ls),
(995,1839,o),
(1032,1798,o),
(1024,1737,cs),
(1013,1673,o),
(979,1619,o),
(898,1619,cs),
(760,1619,l),
(521,239,l),
(652,239,ls),
(714,239,o),
(741,191,o),
(730,128,cs),
(721,63,o),
(696,19,o),
(611,19,cs),
(104,19,ls)
);
}
);
vertWidth = 0;
width = 797;
}
);
metricLeft = I;
metricRight = I;
},
{
color = 10;
glyphname = J.ss02;
kernLeft = KO_J.ss04;
kernRight = KO_J.ss04;
lastChange = "2023-10-04 05:32:24 +0000";
layers = (
{
.lastUpdate = 718090344.089;
layerId = m01;
shapes = (
{
closed = 1;
nodes = (
(1,0,o),
(256,12,o),
(312,19,cs),
(701,77,o),
(779,426,o),
(853,846,cs),
(1006,1710,l),
(1368,1710,ls),
(1432,1710,o),
(1450,1746,o),
(1450,1784,cs),
(1450,1820,o),
(1432,1857,o),
(1368,1857,cs),
(508,1857,ls),
(444,1857,o),
(425,1820,o),
(425,1784,cs),
(425,1746,o),
(444,1710,o),
(508,1710,cs),
(845,1710,l),
(695,863,ls),
(639,542,o),
(590,216,o),
(321,170,cs),
(244,156,o),
(-18,150,o),
(-85,150,cs),
(-125,150,o),
(-166,122,o),
(-166,78,cs),
(-166,31,o),
(-125,0,o),
(-85,0,cs)
);
},
{
closed = 1;
nodes = (
(-117,19,o),
(-147,41,o),
(-147,78,cs),
(-147,112,o),
(-118,131,o),
(-85,131,cs),
(-18,131,o),
(246,139,o),
(324,153,cs),
(606,201,o),
(658,538,o),
(712,860,cs),
(867,1729,l),
(508,1729,ls),
(456,1729,o),
(443,1753,o),
(443,1784,cs),
(443,1815,o),
(456,1839,o),
(508,1839,cs),
(1368,1839,ls),
(1419,1839,o),
(1432,1815,o),
(1432,1784,cs),
(1432,1753,o),
(1420,1729,o),
(1368,1729,cs),
(992,1729,l),
(834,850,ls),
(761,430,o),
(685,93,o),
(309,38,cs),
(254,31,o),
(1,19,o),
(-85,19,cs)
);
}
);
vertWidth = 0;
width = 1062;
},
{
.lastUpdate = 718090344.089;
layerId = "140DECC1-64C4-40C0-9C07-503DBC3F4160";
shapes = (
{
closed = 1;
nodes = (
(179,-18,o),
(428,-14,o),
(480,-6,cs),
(1015,58,o),
(1010,450,o),
(1082,836,cs),
(1215,1582,l),
(1490,1582,ls),
(1593,1582,o),
(1650,1648,o),
(1650,1733,cs),
(1650,1823,o),
(1585,1876,o),
(1492,1876,cs),
(670,1876,ls),
(572,1876,o),
(507,1820,o),
(507,1733,cs),
(507,1643,o),
(571,1582,o),
(665,1582,cs),
(886,1582,l),
(761,879,ls),
(711,575,o),
(685,317,o),
(469,290,cs),
(401,281,o),
(154,276,o),
(94,276,cs),
(16,276,o),
(-64,213,o),
(-64,128,cs),
(-64,39,o),
(17,-18,o),
(94,-18,cs)
);
},
{
closed = 1;
nodes = (
(31,19,o),
(-27,60,o),
(-27,128,cs),
(-27,192,o),
(31,239,o),
(94,239,cs),
(154,239,o),
(404,244,o),
(475,253,cs),
(719,284,o),
(748,570,o),
(798,873,cs),
(931,1619,l),
(665,1619,ls),
(588,1619,o),
(544,1661,o),
(544,1733,cs),
(544,1801,o),
(587,1839,o),
(670,1839,cs),
(1492,1839,ls),
(1570,1839,o),
(1613,1804,o),
(1613,1733,cs),
(1613,1664,o),
(1573,1619,o),
(1490,1619,cs),
(1183,1619,l),
(1045,844,ls),
(973,453,o),
(979,92,o),
(475,31,cs),
(425,23,o),
(179,19,o),
(94,19,cs)
);
}
);
vertWidth = 0;
width = 1436;
}
);
metricLeft = J;
metricRight = J;
},
{
color = 10;
glyphname = K.ss02;
kernLeft = KO_K.ss04;
kernRight = KO_K.ss04;
lastChange = "2023-10-04 05:41:33 +0000";
layers = (
{
.lastUpdate = 718090892.52;
layerId = m01;
shapes = (
{
closed = 1;
nodes = (
(1169,0,o),
(1210,32,o),
(1210,73,cs),
(1210,98,o),
(1199,118,o),
(1175,151,cs),
(538,994,l),
(1454,1708,ls),
(1489,1735,o),
(1510,1756,o),
(1510,1796,cs),
(1510,1823,o),
(1487,1857,o),
(1447,1857,cs),
(1420,1857,o),
(1388,1847,o),
(1352,1819,cs),
(439,1102,l),
(557,1758,ls),
(567,1814,o),
(553,1857,o),
(490,1857,cs),
(428,1857,o),
(407,1821,o),
(399,1773,cs),
(101,102,ls),
(93,54,o),
(117,0,o),
(174,0,cs),
(241,0,o),
(255,57,o),
(262,96,cs),
(406,914,l),
(1041,59,ls),
(1063,30,o),
(1089,0,o),
(1131,0,cs)
);
},
{
closed = 1;
nodes = (
(1097,19,o),
(1077,42,o),
(1055,69,cs),
(414,933,ls),
(398,956,o),
(395,956,o),
(391,932,cs),
(243,99,ls),
(237,61,o),
(227,19,o),
(174,19,cs),
(130,19,o),
(111,58,o),
(118,98,cs),
(416,1770,ls),
(424,1814,o),
(439,1839,o),
(490,1839,cs),
(538,1839,o),
(548,1812,o),
(538,1761,cs),
(419,1090,ls),
(414,1064,o),
(418,1062,o),
(444,1082,cs),
(1363,1806,ls),
(1397,1832,o),
(1424,1839,o),
(1445,1839,cs),
(1476,1839,o),
(1491,1817,o),
(1491,1796,cs),
(1491,1764,o),
(1477,1748,o),
(1443,1721,cs),
(512,998,l),
(1160,140,ls),
(1183,109,o),
(1191,93,o),
(1191,73,cs),
(1191,43,o),
(1162,19,o),
(1131,19,cs)
);
}
);
vertWidth = 0;
width = 1331;
},
{
.lastUpdate = 718090893.079;
layerId = "140DECC1-64C4-40C0-9C07-503DBC3F4160";
shapes = (
{
closed = 1;
nodes = (
(1305,-18,o),
(1371,54,o),
(1371,135,cs),
(1371,177,o),
(1356,223,o),
(1335,253,cs),
(826,977,l),
(1591,1603,ls),
(1635,1639,o),
(1670,1686,o),
(1670,1746,cs),
(1670,1814,o),
(1619,1876,o),
(1523,1876,cs),
(1473,1876,o),
(1412,1859,o),
(1364,1819,cs),
(623,1215,l),
(711,1703,ls),
(734,1831,o),
(642,1876,o),
(566,1876,cs),
(486,1876,o),
(407,1835,o),
(390,1744,cs),
(109,156,ls),
(92,61,o),
(163,-18,o),
(264,-18,cs),
(362,-18,o),
(416,44,o),
(430,124,cs),
(550,800,l),
(1063,62,ls),
(1098,12,o),
(1159,-18,o),
(1217,-18,cs)
);
},
{
closed = 1;
nodes = (
(1169,19,o),
(1122,42,o),
(1094,82,cs),
(570,837,ls),
(537,883,o),
(527,881,o),
(518,828,cs),
(393,131,ls),
(381,64,o),
(343,19,o),
(264,19,cs),
(182,19,o),
(132,75,o),
(146,151,cs),
(427,1736,ls),
(440,1809,o),
(498,1839,o),
(566,1839,cs),
(631,1839,o),
(692,1808,o),
(674,1708,cs),
(582,1190,ls),
(572,1135,o),
(577,1128,o),
(635,1176,cs),
(1388,1790,ls),
(1430,1824,o),
(1480,1839,o),
(1523,1839,cs),
(1599,1839,o),
(1633,1798,o),
(1633,1746,cs),
(1633,1700,o),
(1608,1664,o),
(1567,1631,cs),
(776,984,l),
(1303,233,ls),
(1322,206,o),
(1334,169,o),
(1334,135,cs),
(1334,70,o),
(1287,19,o),
(1217,19,cs)
);
}
);
vertWidth = 0;
width = 1462;
}
);
metricLeft = K;
metricRight = K;
},
{
color = 10;
glyphname = L.ss02;
kernLeft = KO_N.ss04;
kernRight = KO_L.ss04;
lastChange = "2023-10-04 05:41:33 +0000";
layers = (
{
.lastUpdate = 718090344.091;
layerId = m01;
shapes = (
{
closed = 1;
nodes = (
(1128,0,ls),
(1186,0,o),
(1210,46,o),
(1210,83,cs),
(1210,122,o),
(1184,150,o),
(1128,150,cs),
(273,150,l),
(558,1758,ls),
(567,1813,o),
(557,1857,o),
(491,1857,cs),
(428,1857,o),
(404,1821,o),
(396,1774,cs),
(101,87,ls),
(91,39,o),
(118,0,o),
(174,0,cs)
);
},
{
closed = 1;
nodes = (
(130,19,o),
(111,44,o),
(119,83,cs),
(413,1770,ls),
(424,1814,o),
(439,1839,o),
(491,1839,cs),
(541,1839,o),
(549,1812,o),
(539,1761,cs),
(251,131,l),
(1128,131,ls),
(1176,131,o),
(1191,113,o),
(1191,83,cs),
(1191,52,o),
(1174,19,o),
(1128,19,cs),
(174,19,ls)
);
}
);
vertWidth = 0;
width = 1340;
},
{
.lastUpdate = 718090893.08;
layerId = "140DECC1-64C4-40C0-9C07-503DBC3F4160";
shapes = (
{
closed = 1;
nodes = (
(1238,-18,ls),
(1334,-18,o),
(1400,54,o),
(1400,132,cs),
(1400,210,o),
(1334,276,o),
(1238,276,cs),
(461,276,l),
(715,1703,l),
(735,1839,o),
(655,1876,o),
(576,1876,cs),
(485,1876,o),
(408,1835,o),
(391,1744,cs),
(107,142,ls),
(92,52,o),
(153,-18,o),
(249,-18,cs)
);
},
{
closed = 1;
nodes = (
(173,19,o),
(131,66,o),
(144,137,cs),
(428,1736,ls),
(441,1809,o),
(496,1839,o),
(576,1839,cs),
(645,1839,o),
(695,1815,o),
(678,1708,cs),
(416,239,l),
(1238,239,ls),
(1316,239,o),
(1363,192,o),
(1363,132,cs),
(1363,70,o),
(1315,19,o),
(1238,19,cs),
(249,19,ls)
);
}
);
vertWidth = 0;
width = 1476;
}
);
metricLeft = L;
metricRight = L;
},
{
color = 10;
glyphname = M.ss02;
kernLeft = KO_M.ss04;
kernRight = KO_M.ss04;
lastChange = "2023-10-04 05:41:32 +0000";
layers = (
{
.lastUpdate = 718090892.521;
layerId = m01;
shapes = (
{
closed = 1;
nodes = (
(61,0,o),
(101,23,o),
(129,77,cs),
(883,1539,l),
(993,77,ls),
(995,47,o),
(1009,0,o),
(1080,0,cs),
(1141,0,o),
(1166,53,o),
(1177,74,cs),
(1936,1544,l),
(2048,78,ls),
(2051,47,o),
(2066,0,o),
(2134,0,cs),
(2185,0,o),
(2212,36,o),
(2207,84,cs),
(2068,1770,ls),
(2065,1818,o),
(2054,1857,o),
(1988,1857,cs),
(1920,1857,o),
(1901,1809,o),
(1884,1778,cs),
(1127,304,l),
(1014,1797,ls),
(1010,1820,o),
(992,1857,o),
(933,1857,cs),
(880,1857,o),
(858,1821,o),
(839,1783,cs),
(-29,120,ls),
(-65,46,o),
(-23,0,o),
(29,0,cs)
);
},
{
closed = 1;
nodes = (
(-14,19,o),
(-43,51,o),
(-12,112,cs),
(855,1775,ls),
(874,1812,o),
(891,1839,o),
(933,1839,cs),
(980,1839,o),
(993,1814,o),
(995,1795,cs),
(1109,287,ls),
(1112,248,o),
(1118,249,o),
(1137,285,cs),
(1901,1770,ls),
(1918,1801,o),
(1932,1839,o),
(1988,1839,cs),
(2041,1839,o),
(2046,1814,o),
(2050,1769,cs),
(2189,82,ls),
(2193,43,o),
(2174,19,o),
(2134,19,cs),
(2080,19,o),
(2068,52,o),
(2066,79,cs),
(1954,1562,ls),
(1951,1599,o),
(1946,1602,o),
(1926,1563,cs),
(1160,82,ls),
(1148,61,o),
(1129,19,o),
(1080,19,cs),
(1023,19,o),
(1014,51,o),
(1011,79,cs),
(900,1557,ls),
(897,1590,o),
(889,1592,o),
(869,1552,cs),
(113,85,ls),
(88,36,o),
(56,19,o),
(29,19,cs)
);
}
);
vertWidth = 0;
width = 2316;
},
{
.lastUpdate = 718090344.093;
layerId = "140DECC1-64C4-40C0-9C07-503DBC3F4160";
shapes = (
{
closed = 1;
nodes = (
(167,-18,o),
(253,10,o),
(291,85,cs),
(861,1203,l),
(944,114,ls),
(950,41,o),
(1008,-18,o),
(1104,-18,cs),
(1229,-18,o),
(1263,46,o),
(1280,80,cs),
(1859,1205,l),
(1938,115,ls),
(1943,44,o),
(2012,-18,o),
(2110,-18,cs),
(2202,-18,o),
(2266,48,o),
(2259,134,cs),
(2128,1734,ls),
(2121,1820,o),
(2100,1876,o),
(1985,1876,cs),
(1893,1876,o),
(1838,1838,o),
(1803,1770,cs),
(1214,630,l),
(1133,1733,ls),
(1127,1823,o),
(1087,1876,o),
(958,1876,cs),
(870,1876,o),
(840,1835,o),
(807,1772,cs),
(-18,191,ls),
(-76,81,o),
(11,-18,o),
(108,-18,cs)
);
},
{
closed = 1;
nodes = (
(32,19,o),
(-31,88,o),
(15,175,cs),
(840,1756,ls),
(870,1814,o),
(890,1839,o),
(958,1839,cs),
(1067,1839,o),
(1091,1807,o),
(1096,1732,cs),
(1179,586,ls),
(1185,511,o),
(1192,511,o),
(1232,586,cs),
(1836,1753,ls),
(1866,1810,o),
(1906,1839,o),
(1985,1839,cs),
(2074,1839,o),
(2085,1809,o),
(2091,1731,cs),
(2222,130,ls),
(2227,64,o),
(2185,19,o),
(2110,19,cs),
(2029,19,o),
(1979,64,o),
(1975,117,cs),
(1893,1261,ls),
(1888,1329,o),
(1882,1329,o),
(1844,1256,cs),
(1247,97,ls),
(1230,64,o),
(1206,19,o),
(1104,19,cs),
(1027,19,o),
(986,59,o),
(981,117,cs),
(895,1252,ls),
(890,1326,o),
(883,1325,o),
(846,1252,cs),
(258,102,ls),
(228,42,o),
(159,19,o),
(108,19,cs)
);
}
);
vertWidth = 0;
width = 2356;
}
);
metricLeft = M;
metricRight = M;
},
{
color = 10;
glyphname = N.ss02;
kernLeft = KO_N.ss04;
kernRight = KO_N.ss04;
lastChange = "2023-10-04 05:41:33 +0000";
layers = (
{
.lastUpdate = 718090344.093;
layerId = m01;
shapes = (
{
closed = 1;
nodes = (
(243,0,o),
(255,52,o),
(262,87,cs),
(513,1523,l),
(1049,56,ls),
(1060,27,o),
(1089,0,o),
(1133,0,cs),
(1201,0,o),
(1207,51,o),
(1212,80,cs),
(1507,1758,ls),
(1516,1813,o),
(1506,1857,o),
(1443,1857,cs),
(1383,1857,o),
(1359,1821,o),
(1351,1773,cs),
(1100,359,l),
(586,1795,ls),
(575,1822,o),
(543,1857,o),
(487,1857,cs),
(422,1857,o),
(404,1820,o),
(396,1774,cs),
(101,87,ls),
(93,39,o),
(118,0,o),
(174,0,cs)
);
},
{
closed = 1;
nodes = (
(129,19,o),
(112,44,o),
(118,83,cs),
(413,1770,ls),
(421,1815,o),
(435,1839,o),
(487,1839,cs),
(535,1839,o),
(560,1812,o),
(568,1788,cs),
(1091,329,ls),
(1102,298,o),
(1107,298,o),
(1113,329,cs),
(1369,1770,ls),
(1376,1813,o),
(1394,1839,o),
(1443,1839,cs),
(1490,1839,o),
(1499,1812,o),
(1489,1761,cs),
(1194,82,ls),
(1190,54,o),
(1185,19,o),
(1133,19,cs),
(1097,19,o),
(1076,38,o),
(1067,63,cs),
(523,1550,ls),
(511,1584,o),
(505,1584,o),
(500,1550,cs),
(243,90,ls),
(238,56,o),
(229,19,o),
(174,19,cs)
);
}
);
vertWidth = 0;
width = 1457;
},
{
.lastUpdate = 718090893.083;
layerId = "140DECC1-64C4-40C0-9C07-503DBC3F4160";
shapes = (
{
closed = 1;
nodes = (
(353,-18,o),
(418,44,o),
(430,117,cs),
(608,1193,l),
(1078,72,ls),
(1103,14,o),
(1152,-18,o),
(1232,-18,cs),
(1341,-18,o),
(1374,48,o),
(1386,112,cs),
(1665,1702,ls),
(1683,1804,o),
(1630,1885,o),
(1523,1885,cs),
(1436,1885,o),
(1361,1834,o),
(1346,1743,cs),
(1167,657,l),
(696,1781,ls),
(667,1850,o),
(609,1876,o),
(544,1876,cs),
(463,1876,o),
(407,1831,o),
(391,1743,cs),
(107,143,ls),
(91,52,o),
(155,-18,o),
(248,-18,cs)
);
},
{
closed = 1;
nodes = (
(175,19,o),
(132,66,o),
(144,136,cs),
(428,1737,ls),
(441,1808,o),
(478,1839,o),
(544,1839,cs),
(597,1839,o),
(639,1820,o),
(662,1766,cs),
(1149,603,ls),
(1178,533,o),
(1184,533,o),
(1196,608,cs),
(1383,1737,ls),
(1395,1810,o),
(1449,1848,o),
(1523,1848,cs),
(1607,1848,o),
(1643,1794,o),
(1628,1709,cs),
(1349,119,ls),
(1338,61,o),
(1316,19,o),
(1232,19,cs),
(1165,19,o),
(1131,40,o),
(1112,87,cs),
(626,1247,ls),
(597,1315,o),
(591,1314,o),
(579,1243,cs),
(393,123,ls),
(384,65,o),
(337,19,o),
(248,19,cs)
);
}
);
vertWidth = 0;
width = 1618;
}
);
metricLeft = N;
metricRight = N;
},
{
color = 10;
glyphname = O.ss02;
kernLeft = KO_O;
kernRight = KO_O.ss04;
lastChange = "2023-10-04 05:41:33 +0000";
layers = (
{
.lastUpdate = 718090892.522;
layerId = m01;
shapes = (
{
closed = 1;
nodes = (
(1211,0,o),
(1431,731,o),
(1497,1103,cs),
(1581,1573,o),
(1427,1857,o),
(1018,1857,cs),
(509,1857,o),
(290,1335,o),
(223,943,cs),
(144,480,o),
(221,0,o),
(719,0,cs)
);
},
{
closed = 1;
nodes = (
(237,19,o),
(163,481,o),
(241,939,cs),
(308,1329,o),
(521,1839,o),
(1018,1839,cs),
(1415,1839,o),
(1561,1568,o),
(1478,1106,cs),
(1413,735,o),
(1197,19,o),
(719,19,cs)
);
},
{
closed = 1;
nodes = (
(320,580,o),
(348,150,o),
(716,150,cs),
(1038,150,o),
(1283,779,o),
(1338,1090,cs),
(1395,1410,o),
(1372,1710,o),
(1004,1710,cs),
(598,1710,o),
(424,1155,o),
(379,910,cs)
);
},
{
closed = 1;
nodes = (
(406,1160,o),
(585,1729,o),
(1004,1729,cs),
(1389,1729,o),
(1413,1410,o),
(1355,1087,cs),
(1301,773,o),
(1052,131,o),
(716,131,cs),
(330,131,o),
(302,581,o),
(362,914,cs)
);
}
);
vertWidth = 0;
width = 1516;
},
{
.lastUpdate = 718090893.085;
layerId = "140DECC1-64C4-40C0-9C07-503DBC3F4160";
shapes = (
{
closed = 1;
nodes = (
(1241,-18,o),
(1569,413,o),
(1692,1104,cs),
(1774,1582,o),
(1617,1876,o),
(1127,1876,cs),
(650,1876,o),
(353,1560,o),
(242,944,cs),
(139,353,o),
(361,-18,o),
(823,-18,cs)
);
},
{
closed = 1;
nodes = (
(384,19,o),
(179,364,o),
(279,938,cs),
(387,1541,o),
(669,1839,o),
(1127,1839,cs),
(1592,1839,o),
(1735,1573,o),
(1655,1109,cs),
(1535,431,o),
(1221,19,o),
(823,19,cs)
);
},
{
closed = 1;
nodes = (
(492,507,o),
(590,276,o),
(821,276,cs),
(1071,276,o),
(1280,583,o),
(1368,1092,cs),
(1426,1414,o),
(1403,1582,o),
(1112,1582,cs),
(825,1582,o),
(644,1361,o),
(561,909,cs)
);
},
{
closed = 1;
nodes = (
(610,1379,o),
(806,1619,o),
(1112,1619,cs),
(1437,1619,o),
(1463,1417,o),
(1405,1087,cs),
(1315,566,o),
(1093,239,o),
(821,239,cs),
(564,239,o),
(453,500,o),
(524,915,cs)
);
}
);
vertWidth = 0;
width = 1686;
}
);
metricLeft = O;
metricRight = O;
},
{
color = 10;
glyphname = P.ss02;
kernLeft = KO_P;
kernRight = KO_P.ss04;
lastChange = "2023-10-04 05:41:32 +0000";
layers = (
{
.lastUpdate = 718090892.524;
layerId = m01;
shapes = (
{
closed = 1;
nodes = (
(241,0,o),
(251,51,o),
(256,80,cs),
(406,924,l),
(963,929,o),
(1388,991,o),
(1440,1381,cs),
(1484,1708,o),
(1102,1857,o),
(491,1857,cs),
(423,1857,o),
(404,1821,o),
(396,1774,cs),
(98,87,ls),
(90,39,o),
(116,0,o),
(172,0,cs)
);
},
{
closed = 1;
nodes = (
(127,19,o),
(110,44,o),
(116,83,cs),
(414,1770,ls),
(422,1814,o),
(435,1839,o),
(491,1839,cs),
(1097,1839,o),
(1462,1695,o),
(1422,1384,cs),
(1372,1004,o),
(953,946,o),
(391,942,c),
(239,82,ls),
(234,54,o),
(227,19,o),
(172,19,cs)
);
},
{
closed = 1;
nodes = (
(885,1079,o),
(1250,1138,o),
(1282,1399,cs),
(1304,1578,o),
(1096,1702,o),
(545,1710,c),
(433,1073,l)
);
},
{
closed = 1;
nodes = (
(529,1729,l),
(1099,1723,o),
(1323,1591,o),
(1299,1396,cs),
(1265,1116,o),
(875,1059,o),
(411,1055,c)
);
}
);
vertWidth = 0;
width = 1290;
},
{
.lastUpdate = 718090344.095;
layerId = "140DECC1-64C4-40C0-9C07-503DBC3F4160";
shapes = (
{
closed = 1;
nodes = (
(367,-18,o),
(421,38,o),
(433,107,cs),
(559,826,l),
(1063,839,o),
(1534,851,o),
(1602,1333,cs),
(1659,1734,o),
(1266,1876,o),
(561,1876,cs),
(466,1876,o),
(406,1834,o),
(390,1744,cs),
(107,141,ls),
(92,52,o),
(155,-18,o),
(260,-18,cs)
);
},
{
closed = 1;
nodes = (
(175,19,o),
(132,66,o),
(144,133,cs),
(427,1736,ls),
(440,1810,o),
(480,1839,o),
(561,1839,cs),
(1257,1839,o),
(1619,1708,o),
(1565,1338,cs),
(1500,875,o),
(1040,873,o),
(527,863,c),
(396,115,ls),
(386,56,o),
(347,19,o),
(260,19,cs)
);
},
{
closed = 1;
nodes = (
(979,1137,o),
(1263,1139,o),
(1289,1351,cs),
(1309,1515,o),
(1246,1587,o),
(693,1588,c),
(611,1122,l)
);
},
{
closed = 1;
nodes = (
(661,1625,l),
(1265,1627,o),
(1349,1534,o),
(1326,1348,cs),
(1295,1097,o),
(959,1094,o),
(566,1083,c)
);
}
);
vertWidth = 0;
width = 1502;
}
);
metricLeft = P;
metricRight = P;
},
{
color = 10;
glyphname = Q.ss02;
kernLeft = KO_O;
kernRight = KO_Q.ss04;
lastChange = "2023-10-04 05:41:33 +0000";
layers = (
{
.lastUpdate = 718090892.524;
layerId = m01;
shapes = (
{
closed = 1;
nodes = (
(796,-1,o),
(868,18,o),
(931,49,c),
(1081,-168,ls),
(1113,-214,o),
(1163,-241,o),
(1203,-216,cs),
(1250,-191,o),
(1250,-130,o),
(1223,-93,cs),
(1063,140,l),
(1319,370,o),
(1449,831,o),
(1497,1102,cs),
(1581,1572,o),
(1427,1856,o),
(1018,1856,cs),
(509,1856,o),
(290,1334,o),
(223,941,cs),
(144,479,o),
(221,-1,o),
(719,-1,cs)
);
},
{
closed = 1;
nodes = (
(237,18,o),
(163,480,o),
(241,938,cs),
(308,1328,o),
(521,1838,o),
(1018,1838,cs),
(1415,1838,o),
(1561,1567,o),
(1478,1105,cs),
(1431,831,o),
(1299,365,o),
(1039,142,c),
(1208,-105,ls),
(1230,-135,o),
(1230,-181,o),
(1194,-201,cs),
(1163,-219,o),
(1125,-199,o),
(1097,-158,cs),
(937,73,l),
(871,37,o),
(798,18,o),
(719,18,cs)
);
},
{
closed = 1;
nodes = (
(320,579,o),
(348,148,o),
(716,148,cs),
(759,148,o),
(801,160,o),
(842,180,c),
(787,260,ls),
(754,308,o),
(748,348,o),
(785,377,cs),
(831,414,o),
(887,394,o),
(919,350,cs),
(968,278,l),
(1162,480,o),
(1299,867,o),
(1338,1089,cs),
(1395,1409,o),
(1372,1709,o),
(1004,1709,cs),
(598,1709,o),
(424,1154,o),
(379,909,cs)
);
},
{
closed = 1;
nodes = (
(406,1159,o),
(585,1728,o),
(1004,1728,cs),
(1389,1728,o),
(1413,1409,o),
(1355,1085,cs),
(1315,857,o),
(1170,450,o),
(965,250,c),
(903,339,ls),
(876,377,o),
(833,393,o),
(797,363,cs),
(769,340,o),
(772,314,o),
(802,271,cs),
(868,175,l),
(820,146,o),
(769,130,o),
(716,130,cs),
(330,130,o),
(302,579,o),
(362,913,cs)
);
}
);
vertWidth = 0;
width = 1516;
},
{
.lastUpdate = 718090893.086;
layerId = "140DECC1-64C4-40C0-9C07-503DBC3F4160";
shapes = (
{
closed = 1;
nodes = (
(883,-18,o),
(944,-9,o),
(1001,8,c),
(1110,-152,ls),
(1166,-237,o),
(1266,-265,o),
(1338,-217,cs),
(1412,-171,o),
(1428,-78,o),
(1377,-2,cs),
(1263,167,l),
(1464,356,o),
(1616,682,o),
(1691,1104,cs),
(1773,1582,o),
(1616,1876,o),
(1126,1876,cs),
(649,1876,o),
(352,1560,o),
(241,944,cs),
(138,353,o),
(360,-18,o),
(822,-18,cs)
);
},
{
closed = 1;
nodes = (
(383,19,o),
(178,364,o),
(278,938,cs),
(386,1541,o),
(668,1839,o),
(1126,1839,cs),
(1591,1839,o),
(1734,1573,o),
(1654,1109,cs),
(1577,677,o),
(1422,353,o),
(1215,173,c),
(1346,-22,ls),
(1388,-84,o),
(1376,-150,o),
(1318,-186,cs),
(1263,-223,o),
(1189,-203,o),
(1141,-131,cs),
(1016,53,l),
(953,30,o),
(889,19,o),
(822,19,cs)
);
},
{
closed = 1;
nodes = (
(491,507,o),
(589,276,o),
(820,276,cs),
(820,276,o),
(820,276,o),
(819,276,c),
(810,289,ls),
(759,363,o),
(772,462,o),
(843,511,cs),
(915,562,o),
(1016,536,o),
(1072,450,cs),
(1094,417,l),
(1218,556,o),
(1314,787,o),
(1367,1092,cs),
(1425,1414,o),
(1402,1582,o),
(1111,1582,cs),
(824,1582,o),
(643,1361,o),
(560,909,cs)
);
},
{
closed = 1;
nodes = (
(609,1379,o),
(805,1619,o),
(1111,1619,cs),
(1436,1619,o),
(1462,1417,o),
(1404,1087,cs),
(1346,751,o),
(1233,497,o),
(1090,359,c),
(1041,430,ls),
(993,501,o),
(920,521,o),
(865,481,cs),
(809,442,o),
(799,370,o),
(840,309,cs),
(887,242,l),
(863,242,o),
(844,239,o),
(820,239,cs),
(563,239,o),
(452,500,o),
(523,915,cs)
);
}
);
vertWidth = 0;
width = 1685;
}
);
metricLeft = Q;
metricRight = Q;
},
{
color = 10;
glyphname = R.ss02;
kernLeft = KO_R.ss04;
kernRight = KO_R.ss04;
lastChange = "2023-10-04 05:41:33 +0000";
layers = (
{
.lastUpdate = 718090892.525;
layerId = m01;
shapes = (
{
closed = 1;
nodes = (
(241,0,o),
(252,52,o),
(259,95,cs),
(400,884,l),
(1054,54,ls),
(1084,15,o),
(1115,0,o),
(1140,0,cs),
(1207,0,o),
(1236,74,o),
(1172,155,cs),
(566,927,l),
(1030,945,o),
(1395,1035,o),
(1440,1380,cs),
(1483,1707,o),
(1113,1857,o),
(491,1857,cs),
(423,1857,o),
(404,1821,o),
(396,1774,cs),
(101,104,ls),
(92,52,o),
(115,0,o),
(172,0,cs)
);
},
{
closed = 1;
nodes = (
(128,19,o),
(112,56,o),
(119,100,cs),
(414,1770,ls),
(422,1814,o),
(435,1839,o),
(491,1839,cs),
(1106,1839,o),
(1462,1695,o),
(1422,1384,cs),
(1378,1047,o),
(1021,963,o),
(556,945,cs),
(533,944,o),
(531,939,o),
(544,922,cs),
(1158,143,ls),
(1214,73,o),
(1193,19,o),
(1140,19,cs),
(1120,19,o),
(1095,31,o),
(1067,66,cs),
(409,898,ls),
(389,922,o),
(387,920,o),
(382,894,cs),
(241,99,ls),
(234,56,o),
(227,19,o),
(172,19,cs)
);
},
{
closed = 1;
nodes = (
(882,1079,o),
(1248,1141,o),
(1282,1398,cs),
(1306,1582,o),
(1061,1702,o),
(545,1710,c),
(433,1073,l)
);
},
{
closed = 1;
nodes = (
(529,1729,l),
(1063,1723,o),
(1326,1596,o),
(1300,1395,cs),
(1264,1119,o),
(872,1059,o),
(411,1055,c)
);
}
);
vertWidth = 0;
width = 1313;
},
{
.lastUpdate = 718090893.088;
layerId = "140DECC1-64C4-40C0-9C07-503DBC3F4160";
shapes = (
{
closed = 1;
nodes = (
(338,-18,o),
(420,53,o),
(437,149,cs),
(541,746,l),
(1073,53,ls),
(1123,-13,o),
(1195,-18,o),
(1233,-18,cs),
(1339,-18,o),
(1437,111,o),
(1317,267,cs),
(874,845,l),
(1247,891,o),
(1546,1022,o),
(1607,1363,cs),
(1673,1735,o),
(1265,1876,o),
(564,1876,cs),
(468,1876,o),
(405,1834,o),
(389,1744,cs),
(111,156,ls),
(95,65,o),
(134,-18,o),
(240,-18,cs)
);
},
{
closed = 1;
nodes = (
(160,19,o),
(134,72,o),
(148,151,cs),
(426,1736,ls),
(439,1810,o),
(481,1839,o),
(564,1839,cs),
(1257,1839,o),
(1630,1709,o),
(1570,1370,cs),
(1511,1040,o),
(1222,921,o),
(845,880,cs),
(807,875,o),
(803,870,o),
(832,833,cs),
(1289,243,ls),
(1391,112,o),
(1316,19,o),
(1233,19,cs),
(1199,19,o),
(1141,24,o),
(1101,77,cs),
(561,776,ls),
(523,825,o),
(520,821,o),
(511,771,cs),
(401,154,ls),
(388,74,o),
(322,19,o),
(240,19,cs)
);
},
{
closed = 1;
nodes = (
(985,1136,o),
(1263,1203,o),
(1292,1375,cs),
(1314,1508,o),
(1181,1582,o),
(691,1582,c),
(610,1122,l)
);
},
{
closed = 1;
nodes = (
(659,1619,l),
(1189,1622,o),
(1358,1535,o),
(1329,1370,cs),
(1293,1163,o),
(967,1093,o),
(565,1083,c)
);
}
);
vertWidth = 0;
width = 1464;
}
);
metricLeft = R;
metricRight = R;
},
{
color = 10;
glyphname = S.ss02;
kernLeft = KO_S.ss04;
kernRight = KO_S.ss04;
lastChange = "2023-10-04 05:41:33 +0000";
layers = (
{
.lastUpdate = 718090892.527;
layerId = m01;
shapes = (
{
closed = 1;
nodes = (
(903,0,o),
(1141,216,o),
(1141,564,cs),
(1141,746,o),
(1007,916,o),
(806,1058,cs),
(596,1203,o),
(472,1289,o),
(472,1415,cs),
(472,1597,o),
(644,1710,o),
(927,1710,cs),
(1117,1710,o),
(1159,1659,o),
(1175,1557,cs),
(1180,1511,o),
(1246,1502,o),
(1281,1511,cs),
(1332,1524,o),
(1331,1572,o),
(1327,1601,cs),
(1292,1788,o),
(1173,1857,o),
(930,1857,cs),
(550,1857,o),
(315,1684,o),
(315,1408,cs),
(315,1205,o),
(481,1095,o),
(681,950,cs),
(904,791,o),
(980,678,o),
(980,545,cs),
(980,299,o),
(807,150,o),
(522,150,cs),
(360,150,o),
(282,201,o),
(259,302,cs),
(249,345,o),
(205,363,o),
(167,352,cs),
(118,338,o),
(103,288,o),
(108,258,cs),
(137,89,o),
(294,0,o),
(522,0,cs)
);
},
{
closed = 1;
nodes = (
(300,19,o),
(154,101,o),
(126,261,cs),
(122,285,o),
(133,323,o),
(172,334,cs),
(202,343,o),
(233,331,o),
(241,298,cs),
(266,189,o),
(353,131,o),
(522,131,cs),
(815,131,o),
(998,290,o),
(998,545,cs),
(998,684,o),
(918,804,o),
(691,965,cs),
(491,1110,o),
(333,1215,o),
(333,1408,cs),
(333,1674,o),
(558,1839,o),
(930,1839,cs),
(1167,1839,o),
(1276,1775,o),
(1309,1598,cs),
(1314,1571,o),
(1314,1538,o),
(1277,1528,cs),
(1246,1522,o),
(1197,1527,o),
(1193,1559,cs),
(1176,1667,o),
(1128,1729,o),
(927,1729,cs),
(638,1729,o),
(453,1610,o),
(453,1415,cs),
(453,1279,o),
(586,1188,o),
(795,1043,cs),
(994,903,o),
(1123,740,o),
(1123,564,cs),
(1123,225,o),
(895,19,o),
(522,19,cs)
);
}
);
vertWidth = 0;
width = 1286;
},
{
.lastUpdate = 718090893.089;
layerId = "140DECC1-64C4-40C0-9C07-503DBC3F4160";
shapes = (
{
closed = 1;
nodes = (
(956,-18,o),
(1264,249,o),
(1264,606,cs),
(1264,776,o),
(1199,904,o),
(900,1115,cs),
(755,1219,o),
(581,1315,o),
(581,1393,cs),
(581,1519,o),
(704,1582,o),
(971,1582,cs),
(1092,1582,o),
(1144,1556,o),
(1154,1500,cs),
(1172,1400,o),
(1274,1378,o),
(1342,1397,c),
(1423,1424,o),
(1452,1494,o),
(1439,1570,cs),
(1400,1790,o),
(1251,1876,o),
(1015,1876,cs),
(524,1876,o),
(267,1714,o),
(267,1393,cs),
(267,1109,o),
(537,990,o),
(688,881,cs),
(899,726,o),
(956,675,o),
(956,575,cs),
(956,405,o),
(806,276,o),
(598,276,cs),
(458,276,o),
(376,312,o),
(366,357,cs),
(347,455,o),
(249,472,o),
(183,459,cs),
(96,441,o),
(64,365,o),
(80,288,cs),
(113,98,o),
(295,-18,o),
(550,-18,cs)
);
},
{
closed = 1;
nodes = (
(308,19,o),
(146,122,o),
(117,295,c),
(103,359,o),
(125,409,o),
(191,422,cs),
(247,434,o),
(315,422,o),
(329,350,cs),
(344,283,o),
(448,239,o),
(598,239,cs),
(821,239,o),
(993,386,o),
(993,575,cs),
(993,693,o),
(923,755,o),
(710,910,cs),
(555,1022,o),
(304,1133,o),
(304,1393,cs),
(304,1691,o),
(537,1839,o),
(1015,1839,cs),
(1239,1839,o),
(1366,1764,o),
(1402,1562,cs),
(1413,1501,o),
(1393,1453,o),
(1331,1432,c),
(1274,1417,o),
(1203,1433,o),
(1191,1508,cs),
(1177,1584,o),
(1103,1619,o),
(971,1619,cs),
(692,1619,o),
(544,1544,o),
(544,1393,cs),
(544,1291,o),
(734,1188,o),
(878,1085,cs),
(1168,881,o),
(1227,765,o),
(1227,606,cs),
(1227,268,o),
(941,19,o),
(550,19,cs)
);
}
);
vertWidth = 0;
width = 1363;
}
);
metricLeft = S;
metricRight = S;
},
{
color = 10;
glyphname = T.ss02;
kernLeft = KO_T.ss04;
kernRight = KO_T.ss04;
lastChange = "2023-10-04 05:41:33 +0000";
layers = (
{
.lastUpdate = 718090892.528;
layerId = m01;
shapes = (
{
closed = 1;
nodes = (
(636,0,o),
(647,50,o),
(652,80,cs),
(937,1710,l),
(1405,1710,ls),
(1466,1710,o),
(1485,1746,o),
(1485,1784,cs),
(1485,1820,o),
(1467,1857,o),
(1405,1857,cs),
(310,1857,ls),
(245,1857,o),
(227,1820,o),
(227,1784,cs),
(227,1746,o),
(246,1710,o),
(310,1710,cs),
(775,1710,l),
(494,87,l),
(483,39,o),
(509,0,o),
(567,0,cs)
);
},
{
closed = 1;
nodes = (
(520,19,o),
(503,44,o),
(512,83,c),
(797,1729,l),
(310,1729,ls),
(257,1729,o),
(245,1753,o),
(245,1784,cs),
(245,1815,o),
(258,1839,o),
(310,1839,cs),
(1405,1839,ls),
(1454,1839,o),
(1467,1815,o),
(1467,1784,cs),
(1467,1753,o),
(1455,1729,o),
(1405,1729,cs),
(921,1729,l),
(634,82,ls),
(630,54,o),
(622,19,o),
(567,19,cs)
);
}
);
vertWidth = 0;
width = 1149;
},
{
.lastUpdate = 718090893.091;
layerId = "140DECC1-64C4-40C0-9C07-503DBC3F4160";
shapes = (
{
closed = 1;
nodes = (
(709,-21,o),
(763,41,o),
(777,107,c),
(1036,1591,l),
(1415,1591,ls),
(1518,1591,o),
(1576,1658,o),
(1576,1734,cs),
(1576,1819,o),
(1512,1885,o),
(1415,1885,cs),
(381,1885,ls),
(284,1885,o),
(220,1819,o),
(220,1734,cs),
(220,1658,o),
(278,1591,o),
(381,1591,cs),
(709,1591,l),
(454,143,ls),
(438,52,o),
(504,-21,o),
(605,-21,cs)
);
},
{
closed = 1;
nodes = (
(524,16,o),
(477,66,o),
(491,136,cs),
(754,1628,l),
(381,1628,ls),
(298,1628,o),
(257,1674,o),
(257,1734,cs),
(257,1802,o),
(302,1848,o),
(381,1848,cs),
(1415,1848,ls),
(1495,1848,o),
(1539,1802,o),
(1539,1734,cs),
(1539,1674,o),
(1499,1628,o),
(1415,1628,cs),
(1005,1628,l),
(740,115,ls),
(729,59,o),
(690,16,o),
(605,16,cs)
);
}
);
vertWidth = 0;
width = 1223;
}
);
metricLeft = T;
metricRight = T;
},
{
color = 10;
glyphname = U.ss02;
kernLeft = KO_U;
kernRight = KO_U.ss04;
lastChange = "2023-10-04 05:41:33 +0000";
layers = (
{
.lastUpdate = 718090344.101;
layerId = m01;
shapes = (
{
closed = 1;
nodes = (
(641,-13,o),
(982,356,o),
(1178,819,c),
(1051,86,ls),
(1039,27,o),
(1079,-4,o),
(1124,-4,cs),
(1160,-4,o),
(1201,21,o),
(1209,68,cs),
(1509,1771,ls),
(1519,1819,o),
(1495,1856,o),
(1433,1856,cs),
(1375,1856,o),
(1353,1819,o),
(1345,1782,c),
(1290,1468,l),
(1053,700,o),
(664,136,o),
(397,136,cs),
(274,136,o),
(301,336,o),
(334,517,cs),
(561,1767,ls),
(570,1812,o),
(541,1853,o),
(492,1856,cs),
(441,1856,o),
(407,1813,o),
(400,1765,cs),
(176,526,ls),
(106,152,o),
(199,-13,o),
(373,-13,cs)
);
},
{
closed = 1;
nodes = (
(211,6,o),
(126,157,o),
(194,523,cs),
(417,1762,ls),
(425,1805,o),
(451,1838,o),
(491,1838,cs),
(530,1835,o),
(549,1807,o),
(543,1770,cs),
(316,520,ls),
(283,338,o),
(252,118,o),
(397,118,cs),
(676,118,o),
(1069,693,o),
(1308,1464,c),
(1363,1779,ls),
(1370,1811,o),
(1386,1838,o),
(1433,1838,cs),
(1483,1838,o),
(1499,1814,o),
(1491,1774,cs),
(1190,72,ls),
(1184,33,o),
(1153,15,o),
(1124,15,cs),
(1086,15,o),
(1059,36,o),
(1068,82,cs),
(1201,843,ls),
(1212,907,o),
(1205,925,o),
(1170,846,cs),
(946,344,o),
(624,6,o),
(373,6,cs)
);
}
);
vertWidth = 0;
width = 1456;
},
{
.lastUpdate = 718090893.093;
layerId = "140DECC1-64C4-40C0-9C07-503DBC3F4160";
shapes = (
{
closed = 1;
nodes = (
(688,-31,o),
(924,135,o),
(1116,425,c),
(1066,142,ls),
(1047,35,o),
(1128,-18,o),
(1217,-18,cs),
(1288,-18,o),
(1373,19,o),
(1387,103,cs),
(1671,1718,ls),
(1687,1808,o),
(1625,1876,o),
(1518,1876,cs),
(1428,1876,o),
(1362,1827,o),
(1348,1752,cs),
(1312,1556,l),
(1094,751,o),
(795,264,o),
(536,264,cs),
(467,264,o),
(474,357,o),
(504,525,cs),
(716,1712,ls),
(733,1807,o),
(662,1876,o),
(568,1876,cs),
(465,1879,o),
(403,1792,o),
(393,1736,cs),
(181,561,ls),
(108,154,o),
(236,-31,o),
(457,-31,cs)
);
},
{
closed = 1;
nodes = (
(258,6,o),
(149,167,o),
(218,554,cs),
(430,1729,ls),
(438,1775,o),
(486,1842,o),
(568,1839,cs),
(645,1839,o),
(692,1791,o),
(679,1720,cs),
(467,533,ls),
(436,359,o),
(426,227,o),
(536,227,cs),
(819,227,o),
(1128,734,o),
(1349,1548,c),
(1385,1746,ls),
(1395,1804,o),
(1442,1839,o),
(1518,1839,cs),
(1606,1839,o),
(1647,1795,o),
(1634,1723,cs),
(1350,108,ls),
(1339,46,o),
(1278,19,o),
(1217,19,cs),
(1143,19,o),
(1089,55,o),
(1103,137,cs),
(1168,509,ls),
(1180,575,o),
(1167,581,o),
(1128,514,cs),
(936,187,o),
(693,6,o),
(457,6,cs)
);
}
);
vertWidth = 0;
width = 1620;
}
);
metricLeft = U;
metricRight = U;
},
{
color = 10;
glyphname = V.ss02;
kernLeft = KO_V;
kernRight = KO_V.ss04;
lastChange = "2023-10-04 05:41:32 +0000";
layers = (
{
.lastUpdate = 718090892.53;
layerId = m01;
shapes = (
{
closed = 1;
nodes = (
(466,0,o),
(480,37,o),
(499,77,cs),
(1328,1754,ls),
(1361,1819,o),
(1321,1857,o),
(1273,1857,cs),
(1214,1857,o),
(1189,1833,o),
(1165,1783,cs),
(457,321,l),
(388,1782,ls),
(387,1812,o),
(372,1857,o),
(301,1857,cs),
(244,1857,o),
(225,1820,o),
(227,1773,cs),
(320,87,ls),
(322,49,o),
(350,0,o),
(405,0,cs)
);
},
{
closed = 1;
nodes = (
(362,19,o),
(340,56,o),
(338,89,cs),
(246,1774,ls),
(244,1815,o),
(256,1839,o),
(301,1839,cs),
(359,1839,o),
(370,1808,o),
(371,1781,cs),
(440,290,ls),
(442,253,o),
(444,253,o),
(462,289,cs),
(1181,1775,ls),
(1203,1821,o),
(1221,1839,o),
(1273,1839,cs),
(1312,1839,o),
(1337,1813,o),
(1312,1761,cs),
(483,85,ls),
(462,44,o),
(454,19,o),
(405,19,cs)
);
}
);
vertWidth = 0;
width = 1029;
},
{
.lastUpdate = 718090344.102;
layerId = "140DECC1-64C4-40C0-9C07-503DBC3F4160";
shapes = (
{
closed = 1;
nodes = (
(564,-23,o),
(609,31,o),
(636,88,cs),
(1423,1681,ls),
(1480,1793,o),
(1405,1876,o),
(1301,1876,cs),
(1211,1876,o),
(1152,1838,o),
(1120,1773,cs),
(586,670,l),
(535,1745,ls),
(532,1820,o),
(470,1876,o),
(369,1876,cs),
(278,1876,o),
(216,1823,o),
(221,1727,cs),
(312,124,ls),
(315,45,o),
(381,-23,o),
(473,-23,cs)
);
},
{
closed = 1;
nodes = (
(399,14,o),
(352,63,o),
(349,126,cs),
(258,1729,ls),
(253,1804,o),
(294,1839,o),
(369,1839,cs),
(453,1839,o),
(495,1801,o),
(498,1744,cs),
(551,623,ls),
(556,536,o),
(565,542,o),
(604,623,cs),
(1153,1758,ls),
(1178,1811,o),
(1224,1839,o),
(1301,1839,cs),
(1384,1839,o),
(1435,1785,o),
(1389,1697,cs),
(603,105,ls),
(577,52,o),
(545,14,o),
(473,14,cs)
);
}
);
vertWidth = 0;
width = 1223;
}
);
metricLeft = V;
metricRight = V;
},
{
color = 10;
glyphname = W.ss02;
kernLeft = KO_W;
kernRight = KO_W.ss04;
lastChange = "2023-10-04 05:41:33 +0000";
layers = (
{
.lastUpdate = 718090344.103;
layerId = m01;
shapes = (
{
closed = 1;
nodes = (
(455,0,o),
(480,49,o),
(495,80,cs),
(1208,1551,l),
(1283,64,ls),
(1286,20,o),
(1312,0,o),
(1366,0,cs),
(1406,0,o),
(1434,28,o),
(1458,77,cs),
(2285,1754,ls),
(2316,1819,o),
(2276,1857,o),
(2219,1857,cs),
(2175,1857,o),
(2143,1832,o),
(2120,1783,cs),
(1418,333,l),
(1344,1782,ls),
(1342,1812,o),
(1323,1857,o),
(1249,1857,cs),
(1199,1857,o),
(1165,1806,o),
(1155,1785,cs),
(451,325,l),
(380,1782,ls),
(378,1812,o),
(364,1857,o),
(292,1857,cs),
(235,1857,o),
(216,1820,o),
(218,1773,cs),
(311,87,ls),
(314,38,o),
(346,0,o),
(401,0,cs)
);
},
{
closed = 1;
nodes = (
(356,19,o),
(332,46,o),
(329,89,cs),
(237,1774,ls),
(234,1815,o),
(247,1839,o),
(292,1839,cs),
(350,1839,o),
(361,1808,o),
(362,1781,cs),
(435,294,ls),
(437,262,o),
(442,264,o),
(458,297,cs),
(1172,1777,ls),
(1181,1796,o),
(1209,1839,o),
(1249,1839,cs),
(1309,1839,o),
(1324,1807,o),
(1326,1781,cs),
(1400,314,ls),
(1402,273,o),
(1410,275,o),
(1428,313,cs),
(2136,1775,ls),
(2159,1819,o),
(2182,1839,o),
(2219,1839,cs),
(2267,1839,o),
(2294,1813,o),
(2268,1761,cs),
(1441,84,ls),
(1419,40,o),
(1399,19,o),
(1366,19,cs),
(1319,19,o),
(1303,31,o),
(1301,65,cs),
(1224,1578,ls),
(1222,1617,o),
(1217,1613,o),
(1200,1577,cs),
(478,87,ls),
(465,56,o),
(444,19,o),
(401,19,cs)
);
}
);
vertWidth = 0;
width = 1985;
},
{
.lastUpdate = 718090893.094;
layerId = "140DECC1-64C4-40C0-9C07-503DBC3F4160";
shapes = (
{
closed = 1;
nodes = (
(540,-18,o),
(598,21,o),
(632,88,cs),
(1181,1195,l),
(1255,127,ls),
(1262,37,o),
(1326,-18,o),
(1413,-18,cs),
(1484,-18,o),
(1546,22,o),
(1580,93,cs),
(2359,1681,ls),
(2414,1794,o),
(2329,1876,o),
(2232,1876,cs),
(2133,1876,o),
(2078,1822,o),
(2052,1767,cs),
(1527,679,l),
(1451,1745,ls),
(1446,1825,o),
(1389,1876,o),
(1279,1876,cs),
(1173,1876,o),
(1142,1813,o),
(1125,1777,cs),
(581,665,l),
(535,1745,ls),
(532,1819,o),
(474,1876,o),
(372,1876,cs),
(281,1876,o),
(216,1823,o),
(221,1727,cs),
(305,124,ls),
(310,37,o),
(377,-18,o),
(478,-18,cs)
);
},
{
closed = 1;
nodes = (
(393,19,o),
(346,57,o),
(342,126,cs),
(258,1729,ls),
(254,1804,o),
(297,1839,o),
(372,1839,cs),
(456,1839,o),
(495,1801,o),
(498,1744,cs),
(546,607,ls),
(549,532,o),
(557,535,o),
(592,606,cs),
(1158,1760,ls),
(1176,1796,o),
(1196,1839,o),
(1279,1839,cs),
(1373,1839,o),
(1410,1806,o),
(1414,1744,cs),
(1494,619,ls),
(1499,550,o),
(1504,549,o),
(1538,619,cs),
(2085,1750,ls),
(2108,1798,o),
(2150,1839,o),
(2232,1839,cs),
(2309,1839,o),
(2368,1783,o),
(2325,1697,cs),
(1547,109,ls),
(1517,50,o),
(1471,19,o),
(1413,19,cs),
(1341,19,o),
(1297,57,o),
(1292,129,cs),
(1215,1243,ls),
(1211,1314,o),
(1200,1315,o),
(1165,1244,cs),
(598,105,ls),
(571,49,o),
(527,19,o),
(478,19,cs)
);
}
);
vertWidth = 0;
width = 2157;
}
);
metricLeft = W;
metricRight = W;
},
{
color = 10;
glyphname = X.ss02;
kernLeft = KO_X.ss04;
kernRight = KO_X.ss04;
lastChange = "2023-10-04 05:41:32 +0000";
layers = (
{
.lastUpdate = 718090892.531;
layerId = m01;
shapes = (
{
closed = 1;
nodes = (
(-14,-10,o),
(46,-12,o),
(80,35,cs),
(609,763,l),
(872,61,ls),
(894,1,o),
(957,-10,o),
(997,10,cs),
(1029,27,o),
(1042,65,o),
(1025,112,cs),
(721,918,l),
(1310,1726,ls),
(1343,1772,o),
(1336,1819,o),
(1308,1841,cs),
(1276,1868,o),
(1215,1866,o),
(1180,1818,cs),
(655,1096,l),
(389,1799,ls),
(368,1856,o),
(316,1869,o),
(277,1854,cs),
(237,1839,o),
(222,1798,o),
(243,1741,cs),
(543,942,l),
(-55,122,ls),
(-83,83,o),
(-76,41,o),
(-49,19,cs)
);
},
{
closed = 1;
nodes = (
(-58,50,o),
(-63,80,o),
(-41,111,cs),
(563,939,l),
(260,1747,ls),
(241,1796,o),
(252,1826,o),
(283,1837,cs),
(314,1850,o),
(353,1841,o),
(372,1793,cs),
(641,1080,ls),
(648,1061,o),
(651,1061,o),
(667,1082,cs),
(1195,1807,ls),
(1224,1846,o),
(1271,1848,o),
(1296,1826,cs),
(1317,1810,o),
(1324,1776,o),
(1295,1737,cs),
(701,920,l),
(1008,105,ls),
(1023,66,o),
(1014,40,o),
(989,27,cs),
(955,9,o),
(908,19,o),
(890,68,cs),
(622,781,ls),
(615,798,o),
(612,798,o),
(600,782,cs),
(66,46,ls),
(37,7,o),
(-8,9,o),
(-37,33,cs)
);
}
);
vertWidth = 0;
width = 1112;
},
{
.lastUpdate = 718090344.105;
layerId = "140DECC1-64C4-40C0-9C07-503DBC3F4160";
shapes = (
{
closed = 1;
nodes = (
(45,-29,o),
(171,-45,o),
(228,34,cs),
(635,604,l),
(834,73,ls),
(870,-22,o),
(993,-37,o),
(1065,0,cs),
(1132,35,o),
(1166,101,o),
(1134,179,cs),
(857,912,l),
(1379,1642,ls),
(1436,1718,o),
(1421,1789,o),
(1362,1840,cs),
(1304,1893,o),
(1189,1894,o),
(1130,1816,cs),
(728,1256,l),
(527,1787,ls),
(492,1879,o),
(388,1892,o),
(315,1868,cs),
(232,1838,o),
(200,1767,o),
(238,1668,cs),
(507,949,l),
(-27,208,ls),
(-75,142,o),
(-76,75,o),
(-17,22,cs)
);
},
{
closed = 1;
nodes = (
(-37,90,o),
(-37,131,o),
(3,186,cs),
(548,944,l),
(273,1681,ls),
(241,1763,o),
(262,1809,o),
(328,1832,cs),
(389,1854,o),
(466,1844,o),
(492,1774,cs),
(702,1217,ls),
(715,1182,o),
(720,1183,o),
(745,1217,cs),
(1160,1794,ls),
(1205,1856,o),
(1291,1854,o),
(1338,1812,cs),
(1386,1770,o),
(1395,1725,o),
(1350,1664,cs),
(816,918,l),
(1099,167,ls),
(1123,104,o),
(1103,62,o),
(1048,33,cs),
(988,3,o),
(896,14,o),
(870,86,cs),
(661,642,ls),
(648,678,o),
(644,678,o),
(619,643,cs),
(199,56,ls),
(155,-5,o),
(58,8,o),
(7,50,cs)
);
}
);
vertWidth = 0;
width = 1215;
}
);
metricLeft = X;
metricRight = X;
},
{
color = 10;
glyphname = Y.ss02;
kernLeft = KO_Y.ss04;
kernRight = KO_Y.ss04;
lastChange = "2023-10-04 05:41:33 +0000";
layers = (
{
.lastUpdate = 718090892.533;
layerId = m01;
shapes = (
{
closed = 1;
nodes = (
(554,0,o),
(566,49,o),
(572,79,cs),
(719,918,l),
(1313,1726,ls),
(1328,1748,o),
(1338,1770,o),
(1338,1789,cs),
(1338,1826,o),
(1297,1857,o),
(1263,1857,cs),
(1232,1857,o),
(1205,1849,o),
(1182,1818,cs),
(659,1096,l),
(390,1795,ls),
(376,1831,o),
(348,1857,o),
(301,1857,cs),
(263,1857,o),
(227,1826,o),
(227,1792,cs),
(227,1772,o),
(230,1764,o),
(240,1741,cs),
(555,923,l),
(408,87,ls),
(400,39,o),
(425,0,o),
(481,0,cs)
);
},
{
closed = 1;
nodes = (
(437,19,o),
(419,44,o),
(426,84,cs),
(574,925,l),
(256,1747,ls),
(247,1771,o),
(245,1776,o),
(245,1792,cs),
(245,1816,o),
(270,1839,o),
(301,1839,cs),
(340,1839,o),
(361,1819,o),
(373,1788,cs),
(647,1075,ls),
(653,1061,o),
(656,1061,o),
(666,1075,cs),
(1197,1807,ls),
(1216,1833,o),
(1236,1839,o),
(1263,1839,cs),
(1290,1839,o),
(1320,1815,o),
(1320,1789,cs),
(1320,1774,o),
(1313,1758,o),
(1298,1737,cs),
(701,925,l),
(554,82,ls),
(549,54,o),
(539,19,o),
(481,19,cs)
);
}
);
vertWidth = 0;
width = 1029;
},
{
.lastUpdate = 718090893.096;
layerId = "140DECC1-64C4-40C0-9C07-503DBC3F4160";
shapes = (
{
closed = 1;
nodes = (
(661,-23,o),
(708,46,o),
(719,112,cs),
(855,894,l),
(1411,1632,ls),
(1436,1665,o),
(1448,1699,o),
(1448,1737,cs),
(1448,1825,o),
(1347,1876,o),
(1289,1876,cs),
(1239,1876,o),
(1189,1850,o),
(1157,1807,cs),
(737,1229,l),
(530,1776,ls),
(504,1844,o),
(462,1876,o),
(392,1876,cs),
(300,1876,o),
(222,1824,o),
(222,1752,cs),
(222,1720,o),
(228,1700,o),
(240,1668,cs),
(529,919,l),
(395,142,ls),
(379,52,o),
(449,-23,o),
(551,-23,cs)
);
},
{
closed = 1;
nodes = (
(468,14,o),
(420,66,o),
(432,137,cs),
(568,923,l),
(275,1681,ls),
(263,1711,o),
(259,1725,o),
(259,1752,cs),
(259,1802,o),
(314,1839,o),
(392,1839,cs),
(445,1839,o),
(474,1819,o),
(496,1761,cs),
(713,1186,ls),
(725,1154,o),
(729,1154,o),
(751,1186,cs),
(1187,1787,ls),
(1212,1821,o),
(1248,1839,o),
(1289,1839,cs),
(1336,1839,o),
(1411,1801,o),
(1411,1737,cs),
(1411,1708,o),
(1402,1683,o),
(1381,1654,cs),
(820,909,l),
(682,119,ls),
(672,63,o),
(639,14,o),
(551,14,cs)
);
}
);
vertWidth = 0;
width = 1131;
}
);
metricLeft = Y;
metricRight = Y;
},
{
color = 10;
glyphname = Z.ss02;
kernLeft = KO_Z.ss04;
kernRight = KO_Z.ss04;
lastChange = "2023-10-04 05:41:32 +0000";
layers = (
{
.lastUpdate = 718090892.533;
layerId = m01;
shapes = (
{
closed = 1;
nodes = (
(954,0,ls),
(1018,0,o),
(1037,42,o),
(1037,80,cs),
(1037,117,o),
(1018,150,o),
(954,150,cs),
(154,150,l),
(1288,1724,ls),
(1302,1745,o),
(1314,1772,o),
(1314,1792,cs),
(1314,1834,o),
(1288,1857,o),
(1232,1857,cs),
(313,1857,ls),
(250,1857,o),
(230,1816,o),
(230,1780,cs),
(230,1740,o),
(250,1710,o),
(313,1710,cs),
(1091,1710,l),
(-52,125,ls),
(-67,104,o),
(-69,84,o),
(-69,68,cs),
(-69,35,o),
(-43,0,o),
(14,0,cs)
);
},
{
closed = 1;
nodes = (
(-34,19,o),
(-52,43,o),
(-52,68,cs),
(-52,82,o),
(-49,96,o),
(-37,114,cs),
(1113,1709,ls),
(1126,1727,o),
(1125,1729,o),
(1101,1729,cs),
(313,1729,ls),
(261,1729,o),
(249,1746,o),
(249,1780,cs),
(249,1810,o),
(262,1839,o),
(313,1839,cs),
(1232,1839,ls),
(1279,1839,o),
(1296,1825,o),
(1296,1792,cs),
(1296,1776,o),
(1288,1755,o),
(1273,1734,cs),
(134,154,ls),
(119,133,o),
(120,131,o),
(148,131,cs),
(954,131,ls),
(1006,131,o),
(1019,111,o),
(1019,80,cs),
(1019,47,o),
(1005,19,o),
(954,19,cs),
(14,19,ls)
);
}
);
vertWidth = 0;
width = 1116;
},
{
.lastUpdate = 718090344.107;
layerId = "140DECC1-64C4-40C0-9C07-503DBC3F4160";
shapes = (
{
closed = 1;
nodes = (
(1005,-18,ls),
(1107,-18,o),
(1166,46,o),
(1166,123,cs),
(1166,207,o),
(1100,276,o),
(1005,276,cs),
(398,276,l),
(1384,1628,ls),
(1413,1668,o),
(1424,1703,o),
(1424,1735,cs),
(1424,1816,o),
(1354,1876,o),
(1252,1876,cs),
(383,1876,ls),
(286,1876,o),
(222,1810,o),
(222,1725,cs),
(222,1648,o),
(280,1582,o),
(383,1582,cs),
(967,1582,l),
(-36,211,ls),
(-55,185,o),
(-64,154,o),
(-64,125,cs),
(-64,66,o),
(-23,-18,o),
(118,-18,cs)
);
},
{
closed = 1;
nodes = (
(2,19,o),
(-27,77,o),
(-27,125,cs),
(-27,149,o),
(-21,169,o),
(-6,189,cs),
(1013,1584,ls),
(1037,1616,o),
(1035,1619,o),
(992,1619,cs),
(383,1619,ls),
(300,1619,o),
(259,1665,o),
(259,1725,cs),
(259,1793,o),
(303,1839,o),
(383,1839,cs),
(1252,1839,ls),
(1338,1839,o),
(1387,1796,o),
(1387,1735,cs),
(1387,1709,o),
(1378,1684,o),
(1354,1650,cs),
(354,278,ls),
(327,241,o),
(328,239,o),
(377,239,cs),
(1005,239,ls),
(1082,239,o),
(1129,190,o),
(1129,123,cs),
(1129,63,o),
(1089,19,o),
(1005,19,cs),
(118,19,ls)
);
}
);
vertWidth = 0;
width = 1235;
}
);
metricLeft = Z;
metricRight = Z;
},
{
color = 7;
glyphname = A.ss04;
kernLeft = KO_M;
kernRight = KO_A.ss04;
lastChange = "2023-10-04 05:41:33 +0000";
layers = (
{
.lastUpdate = 718090892.534;
layerId = m01;
shapes = (
{
closed = 1;
nodes = (
(86,0,o),
(102,23,o),
(129,77,cs),
(565,932,l),
(935,932,l),
(1003,78,ls),
(1005,48,o),
(1017,0,o),
(1085,0,cs),
(1142,0,o),
(1162,36,o),
(1158,84,cs),
(1014,1797,ls),
(1011,1830,o),
(988,1857,o),
(935,1857,cs),
(865,1857,o),
(861,1820,o),
(842,1783,cs),
(-32,105,ls),
(-67,40,o),
(-23,0,o),
(26,0,cs)
);
},
{
closed = 1;
nodes = (
(-14,19,o),
(-44,45,o),
(-17,96,cs),
(858,1775,ls),
(880,1816,o),
(881,1839,o),
(935,1839,cs),
(978,1839,o),
(993,1820,o),
(995,1795,cs),
(1140,82,ls),
(1144,42,o),
(1130,19,o),
(1085,19,cs),
(1031,19,o),
(1023,51,o),
(1021,79,cs),
(952,951,l),
(554,951,l),
(113,85,ls),
(86,33,o),
(76,19,o),
(26,19,cs)
);
},
{
closed = 1;
nodes = (
(923,1072,l),
(886,1562,l),
(637,1072,l)
);
},
{
closed = 1;
nodes = (
(877,1585,ls),
(894,1619,o),
(899,1619,o),
(902,1580,cs),
(943,1055,l),
(607,1055,l)
);
},
{
closed = 1;
nodes = (
(954,1733,o),
(972,1752,o),
(972,1775,cs),
(972,1798,o),
(954,1817,o),
(930,1817,cs),
(907,1817,o),
(889,1798,o),
(889,1775,cs),
(889,1752,o),
(907,1733,o),
(930,1733,cs)
);
}
);
vertWidth = 0;
width = 1268;
},
{
.lastUpdate = 718090893.098;
layerId = "140DECC1-64C4-40C0-9C07-503DBC3F4160";
shapes = (
{
closed = 1;
nodes = (
(187,-18,o),
(238,7,o),
(277,85,cs),
(610,743,l),
(964,742,l),
(1016,115,ls),
(1022,34,o),
(1075,-18,o),
(1174,-18,cs),
(1263,-18,o),
(1330,32,o),
(1322,134,cs),
(1185,1724,ls),
(1177,1824,o),
(1103,1876,o),
(1005,1876,cs),
(904,1876,o),
(839,1828,o),
(808,1770,cs),
(-19,179,ls),
(-80,65,o),
(3,-18,o),
(104,-18,cs)
);
},
{
closed = 1;
nodes = (
(24,19,o),
(-33,72,o),
(14,163,cs),
(842,1753,ls),
(868,1803,o),
(918,1839,o),
(1005,1839,cs),
(1089,1839,o),
(1141,1802,o),
(1148,1721,cs),
(1285,130,ls),
(1291,52,o),
(1247,19,o),
(1174,19,cs),
(1092,19,o),
(1058,54,o),
(1053,117,cs),
(997,779,l),
(587,780,l),
(243,102,ls),
(210,36,o),
(176,19,o),
(104,19,cs)
);
},
{
closed = 1;
nodes = (
(940,1038,l),
(914,1342,l),
(759,1038,l)
);
},
{
closed = 1;
nodes = (
(898,1392,ls),
(930,1453,o),
(940,1458,o),
(945,1396,cs),
(979,1001,l),
(699,1001,l)
);
},
{
closed = 1;
nodes = (
(1024,1683,o),
(1049,1708,o),
(1049,1738,cs),
(1049,1769,o),
(1024,1794,o),
(993,1794,cs),
(963,1794,o),
(938,1769,o),
(938,1738,cs),
(938,1708,o),
(963,1683,o),
(993,1683,cs)
);
}
);
vertWidth = 0;
width = 1420;
}
);
metricLeft = A;
metricRight = A;
},
{
color = 7;
glyphname = B.ss04;
kernLeft = KO_B;
kernRight = KO_B.ss04;
lastChange = "2023-10-04 05:41:33 +0000";
layers = (
{
.lastUpdate = 718090892.535;
layerId = m01;
shapes = (
{
closed = 1;
nodes = (
(967,0,o),
(1198,154,o),
(1247,471,cs),
(1287,728,o),
(1160,903,o),
(891,996,c),
(1241,1053,o),
(1329,1183,o),
(1351,1359,cs),
(1395,1701,o),
(1100,1857,o),
(488,1857,cs),
(437,1857,o),
(407,1835,o),
(396,1774,cs),
(100,99,ls),
(92,51,o),
(116,0,o),
(161,0,cs)
);
},
{
closed = 1;
nodes = (
(129,19,o),
(110,56,o),
(117,95,cs),
(413,1770,ls),
(423,1824,o),
(444,1839,o),
(488,1839,cs),
(1093,1839,o),
(1374,1690,o),
(1333,1362,cs),
(1310,1175,o),
(1217,1051,o),
(805,1003,c),
(1123,919,o),
(1270,742,o),
(1229,473,cs),
(1183,167,o),
(959,19,o),
(161,19,cs)
);
},
{
closed = 1;
nodes = (
(765,154,o),
(1052,228,o),
(1089,489,cs),
(1124,736,o),
(927,924,o),
(410,944,c),
(270,150,l)
);
},
{
closed = 1;
nodes = (
(394,962,l),
(932,945,o),
(1144,746,o),
(1107,487,cs),
(1067,208,o),
(759,133,o),
(248,131,c)
);
},
{
closed = 1;
nodes = (
(1080,1081,o),
(1171,1190,o),
(1190,1365,cs),
(1217,1610,o),
(972,1704,o),
(544,1710,c),
(432,1073,l)
);
},
{
closed = 1;
nodes = (
(529,1729,l),
(970,1725,o),
(1240,1627,o),
(1209,1363,cs),
(1188,1178,o),
(1089,1061,o),
(411,1055,c)
);
},
{
closed = 1;
nodes = (
(505,1733,o),
(524,1752,o),
(524,1775,cs),
(524,1798,o),
(505,1817,o),
(482,1817,cs),
(459,1817,o),
(440,1798,o),
(440,1775,cs),
(440,1752,o),
(459,1733,o),
(482,1733,cs)
);
}
);
vertWidth = 0;
width = 1364;
},
{
.lastUpdate = 718090893.1;
layerId = "140DECC1-64C4-40C0-9C07-503DBC3F4160";
shapes = (
{
closed = 1;
nodes = (
(1091,-18,o),
(1394,57,o),
(1451,469,cs),
(1487,725,o),
(1380,882,o),
(1183,983,c),
(1439,1060,o),
(1568,1195,o),
(1586,1346,cs),
(1631,1717,o),
(1288,1876,o),
(547,1876,cs),
(476,1876,o),
(409,1852,o),
(389,1743,cs),
(109,154,ls),
(92,56,o),
(163,-18,o),
(248,-18,cs)
);
},
{
closed = 1;
nodes = (
(182,19,o),
(132,70,o),
(146,149,cs),
(426,1737,ls),
(441,1822,o),
(486,1839,o),
(547,1839,cs),
(1277,1839,o),
(1589,1695,o),
(1549,1351,cs),
(1530,1189,o),
(1386,1061,o),
(1069,993,c),
(1319,900,o),
(1453,746,o),
(1414,475,cs),
(1360,90,o),
(1083,19,o),
(248,19,cs)
);
},
{
closed = 1;
nodes = (
(948,290,o),
(1104,345,o),
(1130,524,cs),
(1162,737,o),
(1023,831,o),
(561,848,c),
(461,277,l)
);
},
{
closed = 1;
nodes = (
(531,887,l),
(1033,871,o),
(1202,763,o),
(1167,519,cs),
(1138,311,o),
(947,249,o),
(416,238,c)
);
},
{
closed = 1;
nodes = (
(1229,1141,o),
(1254,1274,o),
(1263,1365,cs),
(1273,1485,o),
(1184,1562,o),
(690,1578,c),
(609,1122,l)
);
},
{
closed = 1;
nodes = (
(659,1616,l),
(1197,1603,o),
(1313,1507,o),
(1300,1362,cs),
(1290,1263,o),
(1263,1099,o),
(565,1083,c)
);
},
{
closed = 1;
nodes = (
(561,1683,o),
(586,1708,o),
(586,1738,cs),
(586,1769,o),
(561,1794,o),
(531,1794,cs),
(500,1794,o),
(475,1769,o),
(475,1738,cs),
(475,1708,o),
(500,1683,o),
(531,1683,cs)
);
}
);
vertWidth = 0;
width = 1558;
}
);
metricLeft = B;
metricRight = B;
},
{
color = 7;
glyphname = C.ss04;
kernLeft = KO_C;
kernRight = KO_C.ss04;
lastChange = "2023-10-04 05:41:33 +0000";
layers = (
{
.lastUpdate = 718090344.11;
layerId = m01;
shapes = (
{
closed = 1;
nodes = (
(936,0,o),
(1129,129,o),
(1292,308,cs),
(1363,387,o),
(1371,425,o),
(1368,447,cs),
(1361,485,o),
(1332,505,o),
(1292,505,cs),
(1240,505,o),
(1223,453,o),
(1167,404,cs),
(1013,257,o),
(875,150,o),
(692,150,cs),
(494,150,o),
(290,398,o),
(370,868,cs),
(427,1193,o),
(561,1710,o),
(1049,1710,cs),
(1178,1710,o),
(1313,1652,o),
(1438,1521,cs),
(1481,1478,o),
(1525,1490,o),
(1551,1518,cs),
(1578,1548,o),
(1572,1592,o),
(1540,1625,cs),
(1407,1766,o),
(1230,1857,o),
(1052,1857,cs),
(444,1857,o),
(283,1277,o),
(211,873,cs),
(110,310,o),
(413,0,o),
(690,0,cs)
);
},
{
closed = 1;
nodes = (
(422,19,o),
(130,317,o),
(229,870,cs),
(301,1272,o),
(458,1839,o),
(1052,1839,cs),
(1226,1839,o),
(1391,1758,o),
(1529,1612,cs),
(1553,1589,o),
(1559,1551,o),
(1537,1530,cs),
(1518,1507,o),
(1486,1499,o),
(1451,1533,cs),
(1324,1668,o),
(1182,1729,o),
(1049,1729,cs),
(547,1729,o),
(409,1197,o),
(352,870,cs),
(270,390,o),
(484,131,o),
(692,131,cs),
(882,131,o),
(1025,243,o),
(1179,391,cs),
(1240,443,o),
(1252,487,o),
(1292,487,cs),
(1326,487,o),
(1344,473,o),
(1350,444,cs),
(1352,426,o),
(1346,395,o),
(1278,320,cs),
(1117,142,o),
(930,19,o),
(690,19,cs)
);
},
{
closed = 1;
nodes = (
(1517,1526,o),
(1536,1545,o),
(1536,1568,cs),
(1536,1591,o),
(1517,1610,o),
(1494,1610,cs),
(1471,1610,o),
(1452,1591,o),
(1452,1568,cs),
(1452,1545,o),
(1471,1526,o),
(1494,1526,cs)
);
}
);
vertWidth = 0;
width = 1379;
},
{
.lastUpdate = 718090893.102;
layerId = "140DECC1-64C4-40C0-9C07-503DBC3F4160";
shapes = (
{
closed = 1;
nodes = (
(1031,-18,o),
(1281,95,o),
(1451,280,cs),
(1524,360,o),
(1554,402,o),
(1554,462,cs),
(1554,524,o),
(1506,579,o),
(1420,579,cs),
(1371,579,o),
(1308,561,o),
(1236,481,cs),
(1120,352,o),
(957,276,o),
(797,276,cs),
(598,276,o),
(494,519,o),
(553,866,cs),
(635,1346,o),
(834,1582,o),
(1158,1582,cs),
(1285,1582,o),
(1370,1554,o),
(1459,1473,cs),
(1533,1407,o),
(1631,1375,o),
(1703,1448,cs),
(1778,1523,o),
(1735,1619,o),
(1659,1688,cs),
(1503,1829,o),
(1342,1876,o),
(1161,1876,cs),
(660,1876,o),
(348,1536,o),
(230,874,cs),
(142,364,o),
(382,-18,o),
(795,-18,cs)
);
},
{
closed = 1;
nodes = (
(405,19,o),
(181,375,o),
(267,869,cs),
(382,1517,o),
(678,1839,o),
(1161,1839,cs),
(1336,1839,o),
(1486,1795,o),
(1635,1660,cs),
(1703,1598,o),
(1733,1530,o),
(1677,1474,cs),
(1622,1419,o),
(1549,1441,o),
(1483,1500,cs),
(1389,1587,o),
(1291,1619,o),
(1158,1619,cs),
(815,1619,o),
(600,1364,o),
(516,871,cs),
(455,511,o),
(571,239,o),
(797,239,cs),
(967,239,o),
(1142,321,o),
(1264,457,cs),
(1327,527,o),
(1377,542,o),
(1420,542,cs),
(1487,542,o),
(1517,508,o),
(1517,462,cs),
(1517,414,o),
(1495,383,o),
(1424,306,cs),
(1260,127,o),
(1022,19,o),
(795,19,cs)
);
},
{
closed = 1;
nodes = (
(1635,1491,o),
(1660,1516,o),
(1660,1547,cs),
(1660,1577,o),
(1635,1602,o),
(1605,1602,cs),
(1574,1602,o),
(1549,1577,o),
(1549,1547,cs),
(1549,1516,o),
(1574,1491,o),
(1605,1491,cs)
);
}
);
vertWidth = 0;
width = 1545;
}
);
metricLeft = C;
},
{
color = 7;
glyphname = D.ss04;
kernLeft = KO_R;
kernRight = KO_D.ss04;
lastChange = "2023-10-04 05:41:33 +0000";
layers = (
{
.lastUpdate = 718090892.536;
layerId = m01;
shapes = (
{
closed = 1;
nodes = (
(356,0,ls),
(903,0,o),
(1364,349,o),
(1449,982,cs),
(1523,1551,o),
(1117,1857,o),
(591,1857,cs),
(488,1857,ls),
(423,1857,o),
(404,1821,o),
(396,1774,cs),
(98,87,ls),
(90,38,o),
(114,0,o),
(171,0,cs)
);
},
{
closed = 1;
nodes = (
(125,19,o),
(108,43,o),
(116,83,cs),
(414,1770,ls),
(422,1814,o),
(435,1839,o),
(488,1839,cs),
(591,1839,ls),
(1110,1839,o),
(1503,1542,o),
(1430,985,cs),
(1347,360,o),
(895,19,o),
(356,19,cs),
(171,19,ls)
);
},
{
closed = 1;
nodes = (
(356,150,ls),
(810,150,o),
(1221,436,o),
(1289,1004,cs),
(1341,1453,o),
(1031,1710,o),
(601,1710,cs),
(545,1710,l),
(269,150,l)
);
},
{
closed = 1;
nodes = (
(529,1729,l),
(601,1729,ls),
(1039,1729,o),
(1361,1462,o),
(1308,1002,cs),
(1238,425,o),
(817,131,o),
(356,131,cs),
(248,131,l)
);
},
{
closed = 1;
nodes = (
(505,1733,o),
(524,1752,o),
(524,1775,cs),
(524,1798,o),
(505,1817,o),
(482,1817,cs),
(459,1817,o),
(440,1798,o),
(440,1775,cs),
(440,1752,o),
(459,1733,o),
(482,1733,cs)
);
}
);
vertWidth = 0;
width = 1448;
},
{
.lastUpdate = 718090893.103;
layerId = "140DECC1-64C4-40C0-9C07-503DBC3F4160";
shapes = (
{
closed = 1;
nodes = (
(477,-18,ls),
(1062,-18,o),
(1553,417,o),
(1632,1001,cs),
(1706,1543,o),
(1347,1876,o),
(698,1876,cs),
(555,1876,ls),
(457,1876,o),
(405,1831,o),
(389,1744,cs),
(107,143,ls),
(92,55,o),
(156,-18,o),
(256,-18,cs)
);
},
{
closed = 1;
nodes = (
(176,19,o),
(132,68,o),
(144,136,cs),
(426,1736,ls),
(439,1809,o),
(474,1839,o),
(555,1839,cs),
(698,1839,ls),
(1329,1839,o),
(1666,1525,o),
(1595,1006,cs),
(1518,438,o),
(1045,19,o),
(477,19,cs),
(256,19,ls)
);
},
{
closed = 1;
nodes = (
(477,274,ls),
(906,274,o),
(1263,585,o),
(1318,1004,cs),
(1365,1365,o),
(1139,1584,o),
(713,1584,cs),
(691,1584,l),
(461,274,l)
);
},
{
closed = 1;
nodes = (
(659,1621,l),
(713,1621,ls),
(1156,1621,o),
(1405,1381,o),
(1355,998,cs),
(1299,564,o),
(922,237,o),
(477,237,cs),
(416,237,l)
);
},
{
closed = 1;
nodes = (
(561,1683,o),
(586,1708,o),
(586,1738,cs),
(586,1769,o),
(561,1794,o),
(531,1794,cs),
(500,1794,o),
(475,1769,o),
(475,1738,cs),
(475,1708,o),
(500,1683,o),
(531,1683,cs)
);
}
);
vertWidth = 0;
width = 1656;
}
);
metricLeft = D;
metricRight = D;
},
{
color = 7;
glyphname = E.ss04;
kernLeft = KO_H;
kernRight = KO_E.ss04;
lastChange = "2023-10-04 05:41:33 +0000";
layers = (
{
.lastUpdate = 718090892.537;
layerId = m01;
shapes = (
{
closed = 1;
nodes = (
(1122,0,ls),
(1186,0,o),
(1205,47,o),
(1205,83,cs),
(1205,120,o),
(1185,150,o),
(1122,150,cs),
(269,150,l),
(407,930,l),
(1151,930,ls),
(1215,930,o),
(1234,967,o),
(1233,997,cs),
(1232,1036,o),
(1215,1073,o),
(1150,1073,cs),
(432,1073,l),
(545,1710,l),
(1399,1710,ls),
(1462,1710,o),
(1481,1740,o),
(1481,1780,cs),
(1481,1816,o),
(1462,1857,o),
(1399,1857,cs),
(491,1857,ls),
(423,1857,o),
(404,1820,o),
(396,1774,cs),
(98,87,ls),
(90,38,o),
(114,0,o),
(171,0,cs)
);
},
{
closed = 1;
nodes = (
(125,19,o),
(108,43,o),
(116,83,cs),
(414,1770,ls),
(422,1814,o),
(435,1839,o),
(491,1839,cs),
(1399,1839,ls),
(1449,1839,o),
(1463,1810,o),
(1463,1780,cs),
(1463,1746,o),
(1451,1729,o),
(1399,1729,cs),
(529,1729,l),
(410,1055,l),
(1150,1055,ls),
(1203,1055,o),
(1214,1030,o),
(1215,997,cs),
(1215,972,o),
(1203,948,o),
(1151,948,cs),
(391,948,l),
(248,131,l),
(1122,131,ls),
(1175,131,o),
(1188,114,o),
(1188,83,cs),
(1188,52,o),
(1173,19,o),
(1122,19,cs),
(171,19,ls)
);
},
{
closed = 1;
nodes = (
(505,1733,o),
(524,1752,o),
(524,1775,cs),
(524,1798,o),
(505,1817,o),
(482,1817,cs),
(459,1817,o),
(440,1798,o),
(440,1775,cs),
(440,1752,o),
(459,1733,o),
(482,1733,cs)
);
}
);
vertWidth = 0;
width = 1335;
},
{
.lastUpdate = 718090893.106;
layerId = "140DECC1-64C4-40C0-9C07-503DBC3F4160";
shapes = (
{
closed = 1;
nodes = (
(1226,-18,ls),
(1319,-18,o),
(1386,34,o),
(1386,120,cs),
(1386,196,o),
(1334,274,o),
(1230,274,cs),
(461,274,l),
(560,842,l),
(1285,842,ls),
(1385,842,o),
(1457,905,o),
(1457,983,cs),
(1457,1068,o),
(1392,1122,o),
(1299,1122,cs),
(610,1122,l),
(691,1584,l),
(1507,1584,ls),
(1603,1584,o),
(1672,1647,o),
(1672,1733,cs),
(1672,1815,o),
(1611,1876,o),
(1514,1876,cs),
(561,1876,ls),
(465,1876,o),
(407,1839,o),
(391,1750,cs),
(107,144,ls),
(92,56,o),
(135,-18,o),
(232,-18,cs)
);
},
{
closed = 1;
nodes = (
(159,19,o),
(131,67,o),
(144,139,cs),
(428,1743,ls),
(441,1815,o),
(478,1839,o),
(561,1839,cs),
(1514,1839,ls),
(1594,1839,o),
(1635,1797,o),
(1635,1733,cs),
(1635,1666,o),
(1586,1621,o),
(1507,1621,cs),
(659,1621,l),
(565,1085,l),
(1299,1085,ls),
(1376,1085,o),
(1420,1049,o),
(1420,983,cs),
(1420,924,o),
(1368,879,o),
(1285,879,cs),
(528,879,l),
(416,237,l),
(1230,237,ls),
(1312,237,o),
(1349,182,o),
(1349,120,cs),
(1349,55,o),
(1303,19,o),
(1226,19,cs),
(232,19,ls)
);
},
{
closed = 1;
nodes = (
(561,1683,o),
(586,1708,o),
(586,1738,cs),
(586,1769,o),
(561,1794,o),
(531,1794,cs),
(500,1794,o),
(475,1769,o),
(475,1738,cs),
(475,1708,o),
(500,1683,o),
(531,1683,cs)
);
}
);
vertWidth = 0;
width = 1466;
}
);
metricLeft = E;
metricRight = E;
},
{
color = 7;
glyphname = F.ss04;
kernLeft = KO_E;
kernRight = KO_F.ss04;
lastChange = "2023-10-04 05:41:33 +0000";
layers = (
{
.lastUpdate = 718090344.114;
layerId = m01;
shapes = (
{
closed = 1;
nodes = (
(241,0,o),
(251,50,o),
(256,80,cs),
(407,930,l),
(1119,930,ls),
(1184,930,o),
(1203,967,o),
(1203,997,cs),
(1203,1036,o),
(1184,1073,o),
(1119,1073,cs),
(433,1073,l),
(545,1710,l),
(1370,1710,ls),
(1433,1710,o),
(1453,1740,o),
(1453,1780,cs),
(1453,1816,o),
(1434,1857,o),
(1370,1857,cs),
(491,1857,ls),
(423,1857,o),
(404,1820,o),
(396,1774,cs),
(98,87,ls),
(90,38,o),
(115,0,o),
(172,0,cs)
);
},
{
closed = 1;
nodes = (
(126,19,o),
(109,44,o),
(116,83,cs),
(414,1770,ls),
(422,1814,o),
(435,1839,o),
(491,1839,cs),
(1370,1839,ls),
(1422,1839,o),
(1435,1810,o),
(1435,1780,cs),
(1435,1746,o),
(1423,1729,o),
(1370,1729,cs),
(529,1729,l),
(411,1055,l),
(1119,1055,ls),
(1172,1055,o),
(1185,1030,o),
(1185,997,cs),
(1185,972,o),
(1172,948,o),
(1119,948,cs),
(391,948,l),
(239,82,ls),
(234,55,o),
(226,19,o),
(172,19,cs)
);
},
{
closed = 1;
nodes = (
(505,1733,o),
(524,1752,o),
(524,1775,cs),
(524,1798,o),
(505,1817,o),
(482,1817,cs),
(459,1817,o),
(440,1798,o),
(440,1775,cs),
(440,1752,o),
(459,1733,o),
(482,1733,cs)
);
}
);
vertWidth = 0;
width = 1183;
},
{
.lastUpdate = 718090893.108;
layerId = "140DECC1-64C4-40C0-9C07-503DBC3F4160";
shapes = (
{
closed = 1;
nodes = (
(352,-18,o),
(422,49,o),
(438,144,cs),
(560,842,l),
(1272,842,ls),
(1374,842,o),
(1429,907,o),
(1429,985,cs),
(1429,1067,o),
(1370,1122,o),
(1274,1122,cs),
(610,1122,l),
(691,1584,l),
(1474,1584,ls),
(1580,1584,o),
(1642,1658,o),
(1642,1728,cs),
(1642,1817,o),
(1581,1876,o),
(1484,1876,cs),
(556,1876,ls),
(458,1876,o),
(406,1836,o),
(390,1747,cs),
(110,157,ls),
(95,73,o),
(125,-18,o),
(253,-18,cs)
);
},
{
closed = 1;
nodes = (
(153,19,o),
(134,79,o),
(147,150,cs),
(427,1742,ls),
(440,1814,o),
(473,1839,o),
(556,1839,cs),
(1484,1839,ls),
(1563,1839,o),
(1605,1799,o),
(1605,1728,cs),
(1605,1673,o),
(1560,1621,o),
(1474,1621,cs),
(659,1621,l),
(565,1085,l),
(1274,1085,ls),
(1353,1085,o),
(1392,1049,o),
(1392,985,cs),
(1392,922,o),
(1354,879,o),
(1272,879,cs),
(529,879,l),
(401,150,ls),
(388,69,o),
(336,19,o),
(253,19,cs)
);
},
{
closed = 1;
nodes = (
(561,1683,o),
(586,1708,o),
(586,1738,cs),
(586,1769,o),
(561,1794,o),
(531,1794,cs),
(500,1794,o),
(475,1769,o),
(475,1738,cs),
(475,1708,o),
(500,1683,o),
(531,1683,cs)
);
}
);
vertWidth = 0;
width = 1372;
}
);
metricLeft = F;
metricRight = F;
},
{
color = 7;
glyphname = G.ss04;
kernLeft = KO_G;
kernRight = KO_G.ss04;
lastChange = "2023-10-04 05:41:33 +0000";
layers = (
{
.lastUpdate = 718090344.115;
layerId = m01;
shapes = (
{
closed = 1;
nodes = (
(840,-18,o),
(996,88,o),
(1178,336,c),
(1138,87,ls),
(1132,51,o),
(1141,4,o),
(1203,0,cs),
(1277,-3,o),
(1293,52,o),
(1299,84,cs),
(1409,724,ls),
(1418,777,o),
(1403,811,o),
(1345,811,cs),
(1282,811,o),
(1251,767,o),
(1219,692,cs),
(1070,351,o),
(874,131,o),
(675,131,cs),
(427,131,o),
(300,450,o),
(370,868,cs),
(467,1429,o),
(695,1729,o),
(1049,1729,cs),
(1178,1729,o),
(1303,1673,o),
(1431,1541,cs),
(1471,1500,o),
(1515,1511,o),
(1542,1539,cs),
(1570,1568,o),
(1563,1618,o),
(1535,1647,cs),
(1395,1794,o),
(1230,1876,o),
(1052,1876,cs),
(611,1876,o),
(329,1524,o),
(211,873,cs),
(125,374,o),
(320,-18,o),
(672,-18,cs)
);
},
{
closed = 1;
nodes = (
(333,0,o),
(144,378,o),
(229,870,cs),
(346,1515,o),
(620,1857,o),
(1052,1857,cs),
(1226,1857,o),
(1384,1779,o),
(1522,1634,cs),
(1546,1610,o),
(1548,1573,o),
(1528,1551,cs),
(1508,1529,o),
(1476,1521,o),
(1444,1553,cs),
(1314,1689,o),
(1182,1747,o),
(1049,1747,cs),
(685,1747,o),
(450,1438,o),
(352,870,cs),
(280,447,o),
(413,113,o),
(675,113,cs),
(882,113,o),
(1086,339,o),
(1236,685,cs),
(1267,758,o),
(1292,793,o),
(1345,793,cs),
(1391,793,o),
(1399,773,o),
(1391,728,cs),
(1281,87,ls),
(1276,56,o),
(1264,16,o),
(1204,19,cs),
(1157,21,o),
(1152,52,o),
(1156,83,cs),
(1201,360,ls),
(1207,402,o),
(1201,400,o),
(1175,363,cs),
(991,105,o),
(838,0,o),
(672,0,cs)
);
},
{
closed = 1;
nodes = (
(1508,1549,o),
(1526,1568,o),
(1526,1591,cs),
(1526,1614,o),
(1508,1633,o),
(1485,1633,cs),
(1462,1633,o),
(1443,1614,o),
(1443,1591,cs),
(1443,1568,o),
(1462,1549,o),
(1485,1549,cs)
);
}
);
vertWidth = 0;
width = 1543;
},
{
.lastUpdate = 718090893.111;
layerId = "140DECC1-64C4-40C0-9C07-503DBC3F4160";
shapes = (
{
closed = 1;
nodes = (
(920,-18,o),
(1054,67,o),
(1175,217,c),
(1164,161,ls),
(1144,60,o),
(1216,-1,o),
(1325,-1,cs),
(1436,-1,o),
(1467,60,o),
(1480,135,cs),
(1590,760,ls),
(1608,860,o),
(1551,926,o),
(1451,926,cs),
(1391,926,o),
(1323,911,o),
(1246,770,cs),
(1102,518,o),
(922,276,o),
(737,276,cs),
(581,276,o),
(489,493,o),
(553,866,cs),
(635,1346,o),
(834,1582,o),
(1158,1582,cs),
(1285,1582,o),
(1370,1554,o),
(1459,1473,cs),
(1533,1407,o),
(1631,1375,o),
(1703,1448,cs),
(1778,1523,o),
(1735,1619,o),
(1659,1688,cs),
(1503,1829,o),
(1342,1876,o),
(1161,1876,cs),
(660,1876,o),
(348,1536,o),
(230,874,cs),
(134,325,o),
(353,-18,o),
(735,-18,cs)
);
},
{
closed = 1;
nodes = (
(375,19,o),
(174,336,o),
(267,869,cs),
(382,1517,o),
(678,1839,o),
(1161,1839,cs),
(1336,1839,o),
(1486,1795,o),
(1635,1660,cs),
(1703,1598,o),
(1733,1530,o),
(1677,1474,cs),
(1622,1419,o),
(1549,1441,o),
(1483,1500,cs),
(1389,1587,o),
(1291,1619,o),
(1158,1619,cs),
(815,1619,o),
(600,1364,o),
(516,871,cs),
(450,484,o),
(554,239,o),
(737,239,cs),
(942,239,o),
(1132,497,o),
(1278,751,cs),
(1346,877,o),
(1396,889,o),
(1451,889,cs),
(1532,889,o),
(1567,846,o),
(1553,766,cs),
(1443,141,ls),
(1432,75,o),
(1412,36,o),
(1325,36,cs),
(1232,36,o),
(1187,76,o),
(1201,154,cs),
(1223,275,ls),
(1233,328,o),
(1215,333,o),
(1180,286,cs),
(1055,112,o),
(925,19,o),
(735,19,cs)
);
},
{
closed = 1;
nodes = (
(1635,1491,o),
(1660,1516,o),
(1660,1547,cs),
(1660,1577,o),
(1635,1602,o),
(1605,1602,cs),
(1574,1602,o),
(1549,1577,o),
(1549,1547,cs),
(1549,1516,o),
(1574,1491,o),
(1605,1491,cs)
);
}
);
vertWidth = 0;
width = 1724;
}
);
metricLeft = G;
metricRight = G;
},
{
color = 7;
glyphname = H.ss04;
kernLeft = KO_E;
kernRight = KO_H.ss04;
lastChange = "2023-10-04 05:41:33 +0000";
layers = (
{
.lastUpdate = 718090344.117;
layerId = m01;
shapes = (
{
closed = 1;
nodes = (
(241,0,o),
(252,50,o),
(257,80,cs),
(407,930,l),
(1197,930,l),
(1051,87,ls),
(1044,51,o),
(1052,0,o),
(1124,0,cs),
(1186,0,o),
(1204,42,o),
(1209,70,cs),
(1508,1766,ls),
(1517,1819,o),
(1496,1857,o),
(1435,1857,cs),
(1376,1857,o),
(1350,1820,o),
(1344,1788,cs),
(1221,1073,l),
(432,1073,l),
(553,1758,ls),
(563,1816,o),
(545,1857,o),
(490,1857,cs),
(430,1857,o),
(404,1821,o),
(396,1774,cs),
(98,87,ls),
(90,38,o),
(115,0,o),
(171,0,cs)
);
},
{
closed = 1;
nodes = (
(125,19,o),
(108,43,o),
(116,83,cs),
(413,1770,ls),
(421,1813,o),
(440,1839,o),
(490,1839,cs),
(533,1839,o),
(544,1811,o),
(535,1761,cs),
(410,1055,l),
(1237,1055,l),
(1363,1784,ls),
(1367,1812,o),
(1388,1839,o),
(1435,1839,cs),
(1484,1839,o),
(1499,1814,o),
(1490,1769,cs),
(1191,73,ls),
(1187,48,o),
(1174,19,o),
(1124,19,cs),
(1068,19,o),
(1064,52,o),
(1069,83,cs),
(1218,948,l),
(391,948,l),
(239,82,ls),
(234,55,o),
(227,19,o),
(171,19,cs)
);
},
{
closed = 1;
nodes = (
(499,1733,o),
(517,1752,o),
(517,1775,cs),
(517,1798,o),
(499,1817,o),
(475,1817,cs),
(452,1817,o),
(434,1798,o),
(434,1775,cs),
(434,1752,o),
(452,1733,o),
(475,1733,cs)
);
}
);
vertWidth = 0;
width = 1456;
},
{
.lastUpdate = 718090893.113;
layerId = "140DECC1-64C4-40C0-9C07-503DBC3F4160";
shapes = (
{
closed = 1;
nodes = (
(371,-18,o),
(423,48,o),
(431,113,c),
(548,787,l),
(1178,787,l),
(1066,142,ls),
(1049,49,o),
(1109,-18,o),
(1214,-18,cs),
(1304,-18,o),
(1373,36,o),
(1387,102,c),
(1666,1709,ls),
(1684,1814,o),
(1616,1876,o),
(1517,1876,cs),
(1427,1876,o),
(1359,1827,o),
(1347,1755,cs),
(1229,1082,l),
(599,1082,l),
(708,1703,ls),
(727,1816,o),
(666,1876,o),
(573,1876,cs),
(490,1876,o),
(406,1836,o),
(389,1744,cs),
(108,143,ls),
(92,52,o),
(160,-18,o),
(261,-18,cs)
);
},
{
closed = 1;
nodes = (
(178,19,o),
(132,67,o),
(145,136,cs),
(426,1736,ls),
(439,1808,o),
(501,1839,o),
(573,1839,cs),
(648,1839,o),
(687,1800,o),
(671,1708,cs),
(555,1045,l),
(1261,1045,l),
(1384,1749,ls),
(1392,1804,o),
(1441,1839,o),
(1517,1839,cs),
(1598,1839,o),
(1644,1798,o),
(1629,1717,cs),
(1350,109,ls),
(1339,58,o),
(1289,19,o),
(1214,19,cs),
(1128,19,o),
(1089,63,o),
(1103,137,cs),
(1223,824,l),
(517,824,l),
(394,118,l),
(388,65,o),
(351,19,o),
(261,19,cs)
);
},
{
closed = 1;
nodes = (
(581,1683,o),
(606,1708,o),
(606,1738,cs),
(606,1769,o),
(581,1794,o),
(550,1794,cs),
(520,1794,o),
(495,1769,o),
(495,1738,cs),
(495,1708,o),
(520,1683,o),
(550,1683,cs)
);
}
);
vertWidth = 0;
width = 1620;
}
);
metricLeft = H;
metricRight = H;
},
{
color = 7;
glyphname = I.ss04;
kernLeft = KO_I.ss04;
kernRight = KO_I.ss04;
lastChange = "2023-10-04 05:41:33 +0000";
layers = (
{
.lastUpdate = 718090892.54;
layerId = m01;
shapes = (
{
closed = 1;
nodes = (
(433,0,ls),
(498,0,o),
(516,37,o),
(516,73,cs),
(516,113,o),
(498,150,o),
(433,150,cs),
(395,150,l),
(670,1710,l),
(729,1710,ls),
(790,1710,o),
(809,1750,o),
(809,1786,cs),
(809,1823,o),
(790,1857,o),
(729,1857,cs),
(476,1857,ls),
(412,1857,o),
(394,1823,o),
(394,1786,cs),
(394,1750,o),
(412,1710,o),
(476,1710,cs),
(504,1710,l),
(232,150,l),
(169,150,ls),
(108,150,o),
(89,112,o),
(89,73,cs),
(89,37,o),
(108,0,o),
(169,0,cs)
);
},
{
closed = 1;
nodes = (
(120,19,o),
(107,43,o),
(107,73,cs),
(107,106,o),
(120,131,o),
(169,131,cs),
(248,131,l),
(526,1729,l),
(476,1729,ls),
(425,1729,o),
(412,1755,o),
(412,1786,cs),
(412,1818,o),
(425,1839,o),
(476,1839,cs),
(729,1839,ls),
(779,1839,o),
(791,1818,o),
(791,1786,cs),
(791,1755,o),
(778,1729,o),
(729,1729,cs),
(654,1729,l),
(374,131,l),
(433,131,ls),
(486,131,o),
(498,106,o),
(498,73,cs),
(498,43,o),
(486,19,o),
(433,19,cs),
(169,19,ls)
);
},
{
closed = 1;
nodes = (
(611,1685,o),
(630,1704,o),
(630,1727,cs),
(630,1750,o),
(611,1769,o),
(588,1769,cs),
(565,1769,o),
(547,1750,o),
(547,1727,cs),
(547,1704,o),
(565,1685,o),
(588,1685,cs)
);
}
);
vertWidth = 0;
width = 756;
},
{
.lastUpdate = 718090893.114;
layerId = "140DECC1-64C4-40C0-9C07-503DBC3F4160";
shapes = (
{
closed = 1;
nodes = (
(611,-18,ls),
(721,-18,o),
(757,50,o),
(767,122,cs),
(780,202,o),
(737,276,o),
(652,276,cs),
(565,276,l),
(792,1582,l),
(898,1582,ls),
(1001,1582,o),
(1048,1659,o),
(1061,1732,cs),
(1071,1814,o),
(1015,1876,o),
(939,1876,cs),
(428,1876,ls),
(331,1876,o),
(284,1814,o),
(271,1737,cs),
(257,1660,o),
(310,1582,o),
(390,1582,cs),
(464,1582,l),
(239,276,l),
(144,276,ls),
(42,276,o),
(-7,204,o),
(-20,128,cs),
(-34,50,o),
(19,-18,o),
(104,-18,cs)
);
},
{
closed = 1;
nodes = (
(41,19,o),
(5,62,o),
(17,122,cs),
(28,188,o),
(63,239,o),
(144,239,cs),
(270,239,l),
(509,1619,l),
(390,1619,ls),
(333,1619,o),
(297,1671,o),
(308,1732,cs),
(319,1797,o),
(351,1839,o),
(428,1839,cs),
(939,1839,ls),
(995,1839,o),
(1032,1798,o),
(1024,1737,cs),
(1013,1673,o),
(979,1619,o),
(898,1619,cs),
(760,1619,l),
(521,239,l),
(652,239,ls),
(714,239,o),
(741,191,o),
(730,128,cs),
(721,63,o),
(696,19,o),
(611,19,cs),
(104,19,ls)
);
},
{
closed = 1;
nodes = (
(658,1564,o),
(683,1589,o),
(683,1620,cs),
(683,1650,o),
(658,1675,o),
(627,1675,cs),
(597,1675,o),
(572,1650,o),
(572,1620,cs),
(572,1589,o),
(597,1564,o),
(627,1564,cs)
);
}
);
vertWidth = 0;
width = 797;
}
);
metricLeft = I;
metricRight = I;
},
{
color = 7;
glyphname = J.ss04;
kernLeft = KO_J.ss04;
kernRight = KO_J.ss04;
lastChange = "2023-10-04 05:32:24 +0000";
layers = (
{
.lastUpdate = 718090344.119;
layerId = m01;
shapes = (
{
closed = 1;
nodes = (
(1,0,o),
(256,12,o),
(312,19,cs),
(701,77,o),
(778,426,o),
(853,846,cs),
(1006,1710,l),
(1368,1710,ls),
(1432,1710,o),
(1450,1746,o),
(1450,1784,cs),
(1450,1820,o),
(1432,1857,o),
(1368,1857,cs),
(508,1857,ls),
(444,1857,o),
(425,1820,o),
(425,1784,cs),
(425,1746,o),
(444,1710,o),
(508,1710,cs),
(845,1710,l),
(695,863,ls),
(637,542,o),
(590,216,o),
(321,170,cs),
(244,156,o),
(-18,150,o),
(-85,150,cs),
(-125,150,o),
(-166,122,o),
(-166,78,cs),
(-166,31,o),
(-125,0,o),
(-85,0,cs)
);
},
{
closed = 1;
nodes = (
(-117,19,o),
(-147,41,o),
(-147,78,cs),
(-147,112,o),
(-118,131,o),
(-85,131,cs),
(-18,131,o),
(246,139,o),
(324,153,cs),
(606,201,o),
(655,538,o),
(712,860,cs),
(867,1729,l),
(508,1729,ls),
(456,1729,o),
(443,1753,o),
(443,1784,cs),
(443,1815,o),
(456,1839,o),
(508,1839,cs),
(1368,1839,ls),
(1419,1839,o),
(1432,1815,o),
(1432,1784,cs),
(1432,1753,o),
(1420,1729,o),
(1368,1729,cs),
(992,1729,l),
(834,850,ls),
(759,430,o),
(685,93,o),
(309,38,cs),
(254,31,o),
(1,19,o),
(-85,19,cs)
);
},
{
closed = 1;
nodes = (
(951,1685,o),
(969,1704,o),
(969,1727,cs),
(969,1750,o),
(951,1769,o),
(928,1769,cs),
(905,1769,o),
(886,1750,o),
(886,1727,cs),
(886,1704,o),
(905,1685,o),
(928,1685,cs)
);
}
);
vertWidth = 0;
width = 1062;
},
{
.lastUpdate = 718090344.12;
layerId = "140DECC1-64C4-40C0-9C07-503DBC3F4160";
shapes = (
{
closed = 1;
nodes = (
(179,-18,o),
(428,-14,o),
(480,-6,cs),
(1015,58,o),
(1014,450,o),
(1082,836,cs),
(1215,1582,l),
(1490,1582,ls),
(1593,1582,o),
(1650,1648,o),
(1650,1733,cs),
(1650,1823,o),
(1585,1876,o),
(1492,1876,cs),
(670,1876,ls),
(572,1876,o),
(507,1820,o),
(507,1733,cs),
(507,1643,o),
(571,1582,o),
(665,1582,cs),
(886,1582,l),
(761,879,ls),
(708,576,o),
(685,317,o),
(469,290,cs),
(401,281,o),
(154,276,o),
(94,276,cs),
(16,276,o),
(-64,213,o),
(-64,128,cs),
(-64,39,o),
(17,-18,o),
(94,-18,cs)
);
},
{
closed = 1;
nodes = (
(31,19,o),
(-27,60,o),
(-27,128,cs),
(-27,192,o),
(31,239,o),
(94,239,cs),
(154,239,o),
(404,244,o),
(475,253,cs),
(719,284,o),
(745,571,o),
(798,873,cs),
(931,1619,l),
(665,1619,ls),
(588,1619,o),
(544,1661,o),
(544,1733,cs),
(544,1801,o),
(587,1839,o),
(670,1839,cs),
(1492,1839,ls),
(1570,1839,o),
(1613,1804,o),
(1613,1733,cs),
(1613,1664,o),
(1573,1619,o),
(1490,1619,cs),
(1183,1619,l),
(1045,844,ls),
(976,452,o),
(979,92,o),
(475,31,cs),
(425,23,o),
(179,19,o),
(94,19,cs)
);
},
{
closed = 1;
nodes = (
(1084,1564,o),
(1109,1589,o),
(1109,1620,cs),
(1109,1650,o),
(1084,1675,o),
(1054,1675,cs),
(1023,1675,o),
(998,1650,o),
(998,1620,cs),
(998,1589,o),
(1023,1564,o),
(1054,1564,cs)
);
}
);
vertWidth = 0;
width = 1436;
}
);
metricLeft = J;
metricRight = J;
},
{
color = 7;
glyphname = K.ss04;
kernLeft = KO_K.ss04;
kernRight = KO_K.ss04;
lastChange = "2023-10-04 05:41:33 +0000";
layers = (
{
.lastUpdate = 718090892.541;
layerId = m01;
shapes = (
{
closed = 1;
nodes = (
(1169,0,o),
(1210,32,o),
(1210,73,cs),
(1210,98,o),
(1199,118,o),
(1175,151,cs),
(538,994,l),
(1454,1708,ls),
(1489,1735,o),
(1510,1756,o),
(1510,1796,cs),
(1510,1823,o),
(1487,1857,o),
(1447,1857,cs),
(1420,1857,o),
(1388,1847,o),
(1352,1819,cs),
(439,1102,l),
(557,1758,ls),
(567,1814,o),
(553,1857,o),
(490,1857,cs),
(428,1857,o),
(407,1821,o),
(399,1773,cs),
(101,102,ls),
(93,54,o),
(117,0,o),
(174,0,cs),
(241,0,o),
(255,57,o),
(262,96,cs),
(406,914,l),
(1041,59,ls),
(1063,30,o),
(1089,0,o),
(1131,0,cs)
);
},
{
closed = 1;
nodes = (
(1097,19,o),
(1077,42,o),
(1055,69,cs),
(414,933,ls),
(398,956,o),
(395,956,o),
(391,932,cs),
(243,99,ls),
(237,61,o),
(227,19,o),
(174,19,cs),
(130,19,o),
(111,58,o),
(118,98,cs),
(416,1770,ls),
(424,1814,o),
(439,1839,o),
(490,1839,cs),
(538,1839,o),
(548,1812,o),
(538,1761,cs),
(419,1090,ls),
(414,1064,o),
(418,1062,o),
(444,1082,cs),
(1363,1806,ls),
(1397,1832,o),
(1424,1839,o),
(1445,1839,cs),
(1476,1839,o),
(1491,1817,o),
(1491,1796,cs),
(1491,1764,o),
(1477,1748,o),
(1443,1721,cs),
(512,998,l),
(1160,140,ls),
(1183,109,o),
(1191,93,o),
(1191,73,cs),
(1191,43,o),
(1162,19,o),
(1131,19,cs)
);
},
{
closed = 1;
nodes = (
(502,1733,o),
(521,1752,o),
(521,1775,cs),
(521,1798,o),
(502,1817,o),
(479,1817,cs),
(456,1817,o),
(438,1798,o),
(438,1775,cs),
(438,1752,o),
(456,1733,o),
(479,1733,cs)
);
}
);
vertWidth = 0;
width = 1331;
},
{
.lastUpdate = 718090893.117;
layerId = "140DECC1-64C4-40C0-9C07-503DBC3F4160";
shapes = (
{
closed = 1;
nodes = (
(1305,-18,o),
(1371,54,o),
(1371,135,cs),
(1371,177,o),
(1356,223,o),
(1335,253,cs),
(826,977,l),
(1591,1603,ls),
(1635,1639,o),
(1670,1686,o),
(1670,1746,cs),
(1670,1814,o),
(1619,1876,o),
(1523,1876,cs),
(1473,1876,o),
(1412,1859,o),
(1364,1819,cs),
(623,1215,l),
(711,1703,ls),
(734,1831,o),
(642,1876,o),
(566,1876,cs),
(486,1876,o),
(407,1835,o),
(390,1744,cs),
(109,156,ls),
(92,61,o),
(163,-18,o),
(264,-18,cs),
(362,-18,o),
(416,44,o),
(430,124,cs),
(550,800,l),
(1063,62,ls),
(1098,12,o),
(1159,-18,o),
(1217,-18,cs)
);
},
{
closed = 1;
nodes = (
(1169,19,o),
(1122,42,o),
(1094,82,cs),
(570,837,ls),
(537,883,o),
(527,881,o),
(518,828,cs),
(393,131,ls),
(381,64,o),
(343,19,o),
(264,19,cs),
(182,19,o),
(132,75,o),
(146,151,cs),
(427,1736,ls),
(440,1809,o),
(498,1839,o),
(566,1839,cs),
(631,1839,o),
(692,1808,o),
(674,1708,cs),
(582,1190,ls),
(572,1135,o),
(577,1128,o),
(635,1176,cs),
(1388,1790,ls),
(1430,1824,o),
(1480,1839,o),
(1523,1839,cs),
(1599,1839,o),
(1633,1798,o),
(1633,1746,cs),
(1633,1700,o),
(1608,1664,o),
(1567,1631,cs),
(776,984,l),
(1303,233,ls),
(1322,206,o),
(1334,169,o),
(1334,135,cs),
(1334,70,o),
(1287,19,o),
(1217,19,cs)
);
},
{
closed = 1;
nodes = (
(580,1683,o),
(605,1708,o),
(605,1738,cs),
(605,1769,o),
(580,1794,o),
(549,1794,cs),
(519,1794,o),
(494,1769,o),
(494,1738,cs),
(494,1708,o),
(519,1683,o),
(549,1683,cs)
);
}
);
vertWidth = 0;
width = 1462;
}
);
metricLeft = K;
metricRight = K;
},
{
color = 7;
glyphname = L.ss04;
kernLeft = KO_N.ss04;
kernRight = KO_L.ss04;
lastChange = "2023-10-04 05:41:33 +0000";
layers = (
{
.lastUpdate = 718090344.122;
layerId = m01;
shapes = (
{
closed = 1;
nodes = (
(1128,0,ls),
(1186,0,o),
(1210,46,o),
(1210,83,cs),
(1210,122,o),
(1184,150,o),
(1128,150,cs),
(273,150,l),
(558,1758,ls),
(567,1813,o),
(557,1857,o),
(491,1857,cs),
(428,1857,o),
(404,1821,o),
(396,1774,cs),
(101,87,ls),
(93,39,o),
(118,0,o),
(174,0,cs)
);
},
{
closed = 1;
nodes = (
(130,19,o),
(113,44,o),
(119,83,cs),
(413,1770,ls),
(421,1815,o),
(439,1839,o),
(491,1839,cs),
(541,1839,o),
(549,1812,o),
(539,1761,cs),
(251,131,l),
(1128,131,ls),
(1176,131,o),
(1191,113,o),
(1191,83,cs),
(1191,52,o),
(1174,19,o),
(1128,19,cs),
(174,19,ls)
);
},
{
closed = 1;
nodes = (
(504,1733,o),
(523,1752,o),
(523,1775,cs),
(523,1798,o),
(504,1817,o),
(481,1817,cs),
(458,1817,o),
(439,1798,o),
(439,1775,cs),
(439,1752,o),
(458,1733,o),
(481,1733,cs)
);
}
);
vertWidth = 0;
width = 1340;
},
{
.lastUpdate = 718090893.119;
layerId = "140DECC1-64C4-40C0-9C07-503DBC3F4160";
shapes = (
{
closed = 1;
nodes = (
(1238,-18,ls),
(1334,-18,o),
(1400,54,o),
(1400,132,cs),
(1400,210,o),
(1334,276,o),
(1238,276,cs),
(461,276,l),
(715,1703,ls),
(739,1838,o),
(655,1876,o),
(576,1876,cs),
(485,1876,o),
(408,1835,o),
(391,1744,cs),
(107,142,ls),
(92,52,o),
(153,-18,o),
(249,-18,cs)
);
},
{
closed = 1;
nodes = (
(173,19,o),
(131,66,o),
(144,137,cs),
(428,1736,ls),
(441,1809,o),
(496,1839,o),
(576,1839,cs),
(645,1839,o),
(696,1815,o),
(678,1708,cs),
(416,239,l),
(1238,239,ls),
(1316,239,o),
(1363,192,o),
(1363,132,cs),
(1363,70,o),
(1315,19,o),
(1238,19,cs),
(249,19,ls)
);
},
{
closed = 1;
nodes = (
(585,1683,o),
(610,1708,o),
(610,1738,cs),
(610,1769,o),
(585,1794,o),
(555,1794,cs),
(524,1794,o),
(499,1769,o),
(499,1738,cs),
(499,1708,o),
(524,1683,o),
(555,1683,cs)
);
}
);
vertWidth = 0;
width = 1476;
}
);
metricLeft = L;
metricRight = L;
},
{
color = 7;
glyphname = M.ss04;
kernLeft = KO_M.ss04;
kernRight = KO_M.ss04;
lastChange = "2023-10-04 05:41:32 +0000";
layers = (
{
.lastUpdate = 718090892.543;
layerId = m01;
shapes = (
{
closed = 1;
nodes = (
(61,0,o),
(101,23,o),
(129,77,cs),
(883,1539,l),
(992,77,ls),
(994,47,o),
(1009,0,o),
(1080,0,cs),
(1141,0,o),
(1165,53,o),
(1177,74,cs),
(1936,1544,l),
(2048,78,ls),
(2051,47,o),
(2066,0,o),
(2134,0,cs),
(2185,0,o),
(2211,36,o),
(2207,84,cs),
(2068,1770,ls),
(2065,1818,o),
(2054,1857,o),
(1988,1857,cs),
(1920,1857,o),
(1901,1809,o),
(1884,1778,cs),
(1127,304,l),
(1014,1797,ls),
(1012,1820,o),
(992,1857,o),
(933,1857,cs),
(880,1857,o),
(858,1821,o),
(839,1783,cs),
(-29,120,ls),
(-67,47,o),
(-23,0,o),
(29,0,cs)
);
},
{
closed = 1;
nodes = (
(-14,19,o),
(-44,52,o),
(-12,112,cs),
(855,1775,ls),
(874,1812,o),
(891,1839,o),
(933,1839,cs),
(980,1839,o),
(993,1814,o),
(995,1795,cs),
(1109,287,ls),
(1112,248,o),
(1118,249,o),
(1137,285,cs),
(1901,1770,ls),
(1917,1801,o),
(1932,1839,o),
(1988,1839,cs),
(2040,1839,o),
(2046,1814,o),
(2050,1769,cs),
(2188,82,ls),
(2191,43,o),
(2174,19,o),
(2134,19,cs),
(2080,19,o),
(2068,52,o),
(2066,79,cs),
(1954,1562,ls),
(1951,1599,o),
(1946,1602,o),
(1926,1563,cs),
(1160,82,ls),
(1149,61,o),
(1129,19,o),
(1080,19,cs),
(1023,19,o),
(1013,51,o),
(1011,79,cs),
(900,1557,ls),
(897,1590,o),
(889,1592,o),
(869,1552,cs),
(113,85,ls),
(88,36,o),
(56,19,o),
(29,19,cs)
);
},
{
closed = 1;
nodes = (
(58,35,o),
(77,54,o),
(77,77,cs),
(77,100,o),
(58,118,o),
(35,118,cs),
(12,118,o),
(-7,100,o),
(-7,77,cs),
(-7,54,o),
(12,35,o),
(35,35,cs)
);
}
);
vertWidth = 0;
width = 2316;
},
{
.lastUpdate = 718090344.124;
layerId = "140DECC1-64C4-40C0-9C07-503DBC3F4160";
shapes = (
{
closed = 1;
nodes = (
(167,-18,o),
(253,10,o),
(291,85,cs),
(861,1203,l),
(944,114,ls),
(950,41,o),
(1008,-18,o),
(1104,-18,cs),
(1229,-18,o),
(1263,46,o),
(1280,80,cs),
(1859,1205,l),
(1938,115,ls),
(1943,44,o),
(2012,-18,o),
(2110,-18,cs),
(2202,-18,o),
(2266,48,o),
(2259,134,cs),
(2128,1734,ls),
(2121,1820,o),
(2100,1876,o),
(1985,1876,cs),
(1893,1876,o),
(1838,1838,o),
(1803,1770,cs),
(1214,630,l),
(1133,1733,ls),
(1127,1823,o),
(1087,1876,o),
(958,1876,cs),
(870,1876,o),
(840,1835,o),
(807,1772,cs),
(-18,191,ls),
(-76,81,o),
(11,-18,o),
(108,-18,cs)
);
},
{
closed = 1;
nodes = (
(32,19,o),
(-31,88,o),
(15,175,cs),
(840,1756,ls),
(870,1814,o),
(890,1839,o),
(958,1839,cs),
(1067,1839,o),
(1091,1807,o),
(1096,1732,cs),
(1179,586,ls),
(1185,511,o),
(1192,511,o),
(1232,586,cs),
(1836,1753,ls),
(1866,1810,o),
(1906,1839,o),
(1985,1839,cs),
(2074,1839,o),
(2085,1809,o),
(2091,1731,cs),
(2222,130,ls),
(2227,64,o),
(2185,19,o),
(2110,19,cs),
(2029,19,o),
(1979,64,o),
(1975,117,cs),
(1893,1261,ls),
(1888,1329,o),
(1882,1329,o),
(1844,1256,cs),
(1247,97,ls),
(1230,64,o),
(1206,19,o),
(1104,19,cs),
(1027,19,o),
(986,59,o),
(981,117,cs),
(895,1252,ls),
(890,1326,o),
(883,1325,o),
(846,1252,cs),
(258,102,ls),
(228,42,o),
(159,19,o),
(108,19,cs)
);
},
{
closed = 1;
nodes = (
(144,65,o),
(169,90,o),
(169,120,cs),
(169,151,o),
(144,176,o),
(114,176,cs),
(83,176,o),
(58,151,o),
(58,120,cs),
(58,90,o),
(83,65,o),
(114,65,cs)
);
}
);
vertWidth = 0;
width = 2356;
}
);
metricLeft = M;
metricRight = M;
},
{
color = 7;
glyphname = N.ss04;
kernLeft = KO_N.ss04;
kernRight = KO_N.ss04;
lastChange = "2023-10-04 05:41:33 +0000";
layers = (
{
.lastUpdate = 718090344.125;
layerId = m01;
shapes = (
{
closed = 1;
nodes = (
(243,0,o),
(255,52,o),
(262,87,cs),
(513,1523,l),
(1049,56,ls),
(1060,27,o),
(1089,0,o),
(1133,0,cs),
(1201,0,o),
(1207,51,o),
(1212,80,cs),
(1507,1758,ls),
(1516,1813,o),
(1506,1857,o),
(1443,1857,cs),
(1383,1857,o),
(1359,1821,o),
(1351,1773,cs),
(1100,359,l),
(586,1795,ls),
(575,1822,o),
(543,1857,o),
(487,1857,cs),
(422,1857,o),
(404,1820,o),
(396,1774,cs),
(101,87,ls),
(93,39,o),
(118,0,o),
(174,0,cs)
);
},
{
closed = 1;
nodes = (
(129,19,o),
(112,44,o),
(118,83,cs),
(413,1770,ls),
(421,1815,o),
(435,1839,o),
(487,1839,cs),
(535,1839,o),
(560,1812,o),
(568,1788,cs),
(1091,329,ls),
(1102,298,o),
(1107,298,o),
(1113,329,cs),
(1369,1770,ls),
(1376,1813,o),
(1394,1839,o),
(1443,1839,cs),
(1490,1839,o),
(1499,1812,o),
(1489,1761,cs),
(1194,82,ls),
(1190,54,o),
(1185,19,o),
(1133,19,cs),
(1097,19,o),
(1076,38,o),
(1067,63,cs),
(523,1550,ls),
(511,1584,o),
(505,1584,o),
(500,1550,cs),
(243,90,ls),
(238,56,o),
(229,19,o),
(174,19,cs)
);
},
{
closed = 1;
nodes = (
(201,35,o),
(219,54,o),
(219,77,cs),
(219,100,o),
(201,118,o),
(178,118,cs),
(154,118,o),
(136,100,o),
(136,77,cs),
(136,54,o),
(154,35,o),
(178,35,cs)
);
}
);
vertWidth = 0;
width = 1457;
},
{
.lastUpdate = 718090893.122;
layerId = "140DECC1-64C4-40C0-9C07-503DBC3F4160";
shapes = (
{
closed = 1;
nodes = (
(353,-18,o),
(418,44,o),
(430,117,cs),
(608,1193,l),
(1078,72,ls),
(1103,14,o),
(1152,-18,o),
(1232,-18,cs),
(1341,-18,o),
(1374,48,o),
(1386,112,cs),
(1665,1702,ls),
(1683,1804,o),
(1630,1885,o),
(1523,1885,cs),
(1436,1885,o),
(1361,1834,o),
(1346,1743,cs),
(1167,657,l),
(696,1781,ls),
(667,1850,o),
(609,1876,o),
(544,1876,cs),
(463,1876,o),
(407,1831,o),
(391,1743,cs),
(107,143,ls),
(91,52,o),
(155,-18,o),
(248,-18,cs)
);
},
{
closed = 1;
nodes = (
(175,19,o),
(132,66,o),
(144,136,cs),
(428,1737,ls),
(441,1808,o),
(478,1839,o),
(544,1839,cs),
(597,1839,o),
(639,1820,o),
(662,1766,cs),
(1149,603,ls),
(1178,533,o),
(1184,533,o),
(1196,608,cs),
(1383,1737,ls),
(1395,1810,o),
(1449,1848,o),
(1523,1848,cs),
(1607,1848,o),
(1643,1794,o),
(1628,1709,cs),
(1349,119,ls),
(1338,61,o),
(1316,19,o),
(1232,19,cs),
(1165,19,o),
(1131,40,o),
(1112,87,cs),
(626,1247,ls),
(597,1315,o),
(591,1314,o),
(579,1243,cs),
(393,123,ls),
(384,65,o),
(337,19,o),
(248,19,cs)
);
},
{
closed = 1;
nodes = (
(291,65,o),
(316,90,o),
(316,120,cs),
(316,151,o),
(291,176,o),
(261,176,cs),
(230,176,o),
(205,151,o),
(205,120,cs),
(205,90,o),
(230,65,o),
(261,65,cs)
);
}
);
vertWidth = 0;
width = 1618;
}
);
metricLeft = N;
metricRight = N;
},
{
color = 7;
glyphname = O.ss04;
kernLeft = KO_O;
kernRight = KO_O.ss04;
lastChange = "2023-10-04 05:41:33 +0000";
layers = (
{
.lastUpdate = 718090892.544;
layerId = m01;
shapes = (
{
closed = 1;
nodes = (
(1211,0,o),
(1431,731,o),
(1497,1103,cs),
(1581,1573,o),
(1427,1857,o),
(1018,1857,cs),
(509,1857,o),
(290,1335,o),
(223,943,cs),
(144,480,o),
(221,0,o),
(719,0,cs)
);
},
{
closed = 1;
nodes = (
(237,19,o),
(163,481,o),
(241,939,cs),
(308,1329,o),
(521,1839,o),
(1018,1839,cs),
(1415,1839,o),
(1561,1568,o),
(1478,1106,cs),
(1413,735,o),
(1197,19,o),
(719,19,cs)
);
},
{
closed = 1;
nodes = (
(320,580,o),
(348,150,o),
(716,150,cs),
(1038,150,o),
(1283,779,o),
(1338,1090,cs),
(1395,1410,o),
(1372,1710,o),
(1004,1710,cs),
(598,1710,o),
(424,1155,o),
(379,910,cs)
);
},
{
closed = 1;
nodes = (
(406,1160,o),
(585,1729,o),
(1004,1729,cs),
(1389,1729,o),
(1413,1410,o),
(1355,1087,cs),
(1301,773,o),
(1052,131,o),
(716,131,cs),
(330,131,o),
(302,581,o),
(362,914,cs)
);
},
{
closed = 1;
nodes = (
(1337,1646,o),
(1355,1664,o),
(1355,1687,cs),
(1355,1710,o),
(1337,1729,o),
(1314,1729,cs),
(1290,1729,o),
(1272,1710,o),
(1272,1687,cs),
(1272,1664,o),
(1290,1646,o),
(1314,1646,cs)
);
}
);
vertWidth = 0;
width = 1516;
},
{
.lastUpdate = 718090893.124;
layerId = "140DECC1-64C4-40C0-9C07-503DBC3F4160";
shapes = (
{
closed = 1;
nodes = (
(1241,-18,o),
(1569,413,o),
(1692,1104,cs),
(1774,1582,o),
(1617,1876,o),
(1127,1876,cs),
(650,1876,o),
(353,1560,o),
(242,944,cs),
(139,353,o),
(361,-18,o),
(823,-18,cs)
);
},
{
closed = 1;
nodes = (
(384,19,o),
(179,364,o),
(279,938,cs),
(387,1541,o),
(669,1839,o),
(1127,1839,cs),
(1592,1839,o),
(1735,1573,o),
(1655,1109,cs),
(1535,431,o),
(1221,19,o),
(823,19,cs)
);
},
{
closed = 1;
nodes = (
(492,507,o),
(590,276,o),
(821,276,cs),
(1071,276,o),
(1280,583,o),
(1368,1092,cs),
(1426,1414,o),
(1403,1582,o),
(1112,1582,cs),
(825,1582,o),
(644,1361,o),
(561,909,cs)
);
},
{
closed = 1;
nodes = (
(610,1379,o),
(806,1619,o),
(1112,1619,cs),
(1437,1619,o),
(1463,1417,o),
(1405,1087,cs),
(1315,566,o),
(1093,239,o),
(821,239,cs),
(564,239,o),
(453,500,o),
(524,915,cs)
);
},
{
closed = 1;
nodes = (
(1440,1605,o),
(1465,1630,o),
(1465,1660,cs),
(1465,1691,o),
(1440,1716,o),
(1410,1716,cs),
(1379,1716,o),
(1354,1691,o),
(1354,1660,cs),
(1354,1630,o),
(1379,1605,o),
(1410,1605,cs)
);
}
);
vertWidth = 0;
width = 1686;
}
);
metricLeft = O;
metricRight = O;
},
{
color = 7;
glyphname = P.ss04;
kernLeft = KO_P;
kernRight = KO_P.ss04;
lastChange = "2023-10-04 05:41:32 +0000";
layers = (
{
.lastUpdate = 718090892.545;
layerId = m01;
shapes = (
{
closed = 1;
nodes = (
(241,0,o),
(251,51,o),
(256,80,cs),
(406,924,l),
(963,929,o),
(1388,991,o),
(1440,1381,cs),
(1484,1708,o),
(1102,1857,o),
(491,1857,cs),
(423,1857,o),
(404,1821,o),
(396,1774,cs),
(98,87,ls),
(90,39,o),
(116,0,o),
(172,0,cs)
);
},
{
closed = 1;
nodes = (
(127,19,o),
(110,44,o),
(116,83,cs),
(414,1770,ls),
(422,1814,o),
(435,1839,o),
(491,1839,cs),
(1097,1839,o),
(1462,1695,o),
(1422,1384,cs),
(1372,1004,o),
(953,946,o),
(391,942,c),
(239,82,ls),
(234,54,o),
(227,19,o),
(172,19,cs)
);
},
{
closed = 1;
nodes = (
(885,1079,o),
(1250,1138,o),
(1282,1399,cs),
(1304,1578,o),
(1096,1702,o),
(545,1710,c),
(433,1073,l)
);
},
{
closed = 1;
nodes = (
(529,1729,l),
(1099,1723,o),
(1323,1591,o),
(1299,1396,cs),
(1265,1116,o),
(875,1059,o),
(411,1055,c)
);
},
{
closed = 1;
nodes = (
(505,1733,o),
(523,1752,o),
(523,1775,cs),
(523,1798,o),
(505,1817,o),
(482,1817,cs),
(459,1817,o),
(440,1798,o),
(440,1775,cs),
(440,1752,o),
(459,1733,o),
(482,1733,cs)
);
}
);
vertWidth = 0;
width = 1290;
},
{
.lastUpdate = 718090344.128;
layerId = "140DECC1-64C4-40C0-9C07-503DBC3F4160";
shapes = (
{
closed = 1;
nodes = (
(367,-18,o),
(421,38,o),
(433,107,cs),
(559,826,l),
(1063,839,o),
(1534,851,o),
(1602,1333,cs),
(1659,1734,o),
(1266,1876,o),
(561,1876,cs),
(466,1876,o),
(406,1834,o),
(390,1744,cs),
(107,141,ls),
(92,52,o),
(155,-18,o),
(260,-18,cs)
);
},
{
closed = 1;
nodes = (
(175,19,o),
(132,66,o),
(144,133,cs),
(427,1736,ls),
(440,1810,o),
(480,1839,o),
(561,1839,cs),
(1257,1839,o),
(1619,1708,o),
(1565,1338,cs),
(1500,875,o),
(1040,873,o),
(527,863,c),
(396,115,ls),
(386,56,o),
(347,19,o),
(260,19,cs)
);
},
{
closed = 1;
nodes = (
(979,1137,o),
(1263,1139,o),
(1289,1351,cs),
(1309,1515,o),
(1246,1587,o),
(693,1588,c),
(611,1122,l)
);
},
{
closed = 1;
nodes = (
(661,1625,l),
(1265,1627,o),
(1349,1534,o),
(1326,1348,cs),
(1295,1097,o),
(959,1094,o),
(566,1083,c)
);
},
{
closed = 1;
nodes = (
(562,1683,o),
(587,1708,o),
(587,1738,cs),
(587,1769,o),
(562,1794,o),
(532,1794,cs),
(501,1794,o),
(476,1769,o),
(476,1738,cs),
(476,1708,o),
(501,1683,o),
(532,1683,cs)
);
}
);
vertWidth = 0;
width = 1502;
}
);
metricLeft = P;
metricRight = P;
},
{
color = 7;
glyphname = Q.ss04;
kernLeft = KO_O;
kernRight = KO_Q.ss04;
lastChange = "2023-10-04 05:41:33 +0000";
layers = (
{
.lastUpdate = 718090892.546;
layerId = m01;
shapes = (
{
closed = 1;
nodes = (
(796,-1,o),
(868,18,o),
(931,49,c),
(1081,-168,ls),
(1113,-214,o),
(1163,-241,o),
(1203,-216,cs),
(1250,-191,o),
(1250,-130,o),
(1223,-93,cs),
(1063,140,l),
(1319,370,o),
(1449,831,o),
(1497,1102,cs),
(1581,1572,o),
(1427,1856,o),
(1018,1856,cs),
(509,1856,o),
(290,1334,o),
(223,941,cs),
(144,479,o),
(221,-1,o),
(719,-1,cs)
);
},
{
closed = 1;
nodes = (
(237,18,o),
(163,480,o),
(241,938,cs),
(308,1328,o),
(521,1838,o),
(1018,1838,cs),
(1415,1838,o),
(1561,1567,o),
(1478,1105,cs),
(1431,831,o),
(1299,365,o),
(1039,142,c),
(1208,-105,ls),
(1230,-135,o),
(1230,-181,o),
(1194,-201,cs),
(1163,-219,o),
(1125,-199,o),
(1097,-158,cs),
(937,73,l),
(871,37,o),
(798,18,o),
(719,18,cs)
);
},
{
closed = 1;
nodes = (
(320,579,o),
(348,148,o),
(716,148,cs),
(759,148,o),
(801,160,o),
(842,180,c),
(787,260,ls),
(754,308,o),
(748,348,o),
(785,377,cs),
(831,414,o),
(887,394,o),
(919,350,cs),
(968,278,l),
(1162,480,o),
(1299,867,o),
(1338,1089,cs),
(1395,1409,o),
(1372,1709,o),
(1004,1709,cs),
(598,1709,o),
(424,1154,o),
(379,909,cs)
);
},
{
closed = 1;
nodes = (
(406,1159,o),
(585,1728,o),
(1004,1728,cs),
(1389,1728,o),
(1413,1409,o),
(1355,1085,cs),
(1315,857,o),
(1170,450,o),
(965,250,c),
(903,339,ls),
(876,377,o),
(833,393,o),
(797,363,cs),
(769,340,o),
(772,314,o),
(802,271,cs),
(868,175,l),
(820,146,o),
(769,130,o),
(716,130,cs),
(330,130,o),
(302,579,o),
(362,913,cs)
);
},
{
closed = 1;
nodes = (
(1337,1646,o),
(1355,1664,o),
(1355,1687,cs),
(1355,1710,o),
(1337,1729,o),
(1314,1729,cs),
(1290,1729,o),
(1272,1710,o),
(1272,1687,cs),
(1272,1664,o),
(1290,1646,o),
(1314,1646,cs)
);
}
);
vertWidth = 0;
width = 1516;
},
{
.lastUpdate = 718090893.126;
layerId = "140DECC1-64C4-40C0-9C07-503DBC3F4160";
shapes = (
{
closed = 1;
nodes = (
(883,-18,o),
(944,-9,o),
(1001,8,c),
(1110,-152,ls),
(1166,-237,o),
(1266,-265,o),
(1338,-217,cs),
(1412,-171,o),
(1428,-78,o),
(1377,-2,cs),
(1263,167,l),
(1464,356,o),
(1616,682,o),
(1691,1104,cs),
(1773,1582,o),
(1616,1876,o),
(1126,1876,cs),
(649,1876,o),
(352,1560,o),
(241,944,cs),
(138,353,o),
(360,-18,o),
(822,-18,cs)
);
},
{
closed = 1;
nodes = (
(383,19,o),
(178,364,o),
(278,938,cs),
(386,1541,o),
(668,1839,o),
(1126,1839,cs),
(1591,1839,o),
(1734,1573,o),
(1654,1109,cs),
(1577,677,o),
(1422,353,o),
(1215,173,c),
(1346,-22,ls),
(1388,-84,o),
(1376,-150,o),
(1318,-186,cs),
(1263,-223,o),
(1189,-203,o),
(1141,-131,cs),
(1016,53,l),
(953,30,o),
(889,19,o),
(822,19,cs)
);
},
{
closed = 1;
nodes = (
(491,507,o),
(589,276,o),
(820,276,cs),
(820,276,o),
(820,276,o),
(819,276,c),
(810,289,ls),
(759,363,o),
(772,462,o),
(843,511,cs),
(915,562,o),
(1016,536,o),
(1072,450,cs),
(1094,417,l),
(1218,556,o),
(1314,787,o),
(1367,1092,cs),
(1425,1414,o),
(1402,1582,o),
(1111,1582,cs),
(824,1582,o),
(643,1361,o),
(560,909,cs)
);
},
{
closed = 1;
nodes = (
(609,1379,o),
(805,1619,o),
(1111,1619,cs),
(1436,1619,o),
(1462,1417,o),
(1404,1087,cs),
(1346,751,o),
(1233,497,o),
(1090,359,c),
(1041,430,ls),
(993,501,o),
(920,521,o),
(865,481,cs),
(809,442,o),
(799,370,o),
(840,309,cs),
(887,242,l),
(863,242,o),
(844,239,o),
(820,239,cs),
(563,239,o),
(452,500,o),
(523,915,cs)
);
},
{
closed = 1;
nodes = (
(1439,1605,o),
(1464,1630,o),
(1464,1660,cs),
(1464,1691,o),
(1439,1716,o),
(1409,1716,cs),
(1378,1716,o),
(1353,1691,o),
(1353,1660,cs),
(1353,1630,o),
(1378,1605,o),
(1409,1605,cs)
);
}
);
vertWidth = 0;
width = 1685;
}
);
metricLeft = Q;
metricRight = Q;
},
{
color = 7;
glyphname = R.ss04;
kernLeft = KO_R.ss04;
kernRight = KO_R.ss04;
lastChange = "2023-10-04 05:41:33 +0000";
layers = (
{
.lastUpdate = 718090892.547;
layerId = m01;
shapes = (
{
closed = 1;
nodes = (
(241,0,o),
(252,52,o),
(259,95,cs),
(400,884,l),
(1054,54,ls),
(1084,15,o),
(1115,0,o),
(1140,0,cs),
(1207,0,o),
(1236,74,o),
(1172,155,cs),
(566,927,l),
(1030,945,o),
(1395,1035,o),
(1440,1380,cs),
(1483,1707,o),
(1113,1857,o),
(491,1857,cs),
(423,1857,o),
(404,1821,o),
(396,1774,cs),
(101,104,ls),
(92,52,o),
(115,0,o),
(172,0,cs)
);
},
{
closed = 1;
nodes = (
(128,19,o),
(112,56,o),
(119,100,cs),
(414,1770,ls),
(422,1814,o),
(435,1839,o),
(491,1839,cs),
(1106,1839,o),
(1462,1695,o),
(1422,1384,cs),
(1378,1047,o),
(1021,963,o),
(556,945,cs),
(533,944,o),
(531,939,o),
(544,922,cs),
(1158,143,ls),
(1214,73,o),
(1193,19,o),
(1140,19,cs),
(1120,19,o),
(1095,31,o),
(1067,66,cs),
(409,898,ls),
(389,922,o),
(387,920,o),
(382,894,cs),
(241,99,ls),
(234,56,o),
(227,19,o),
(172,19,cs)
);
},
{
closed = 1;
nodes = (
(882,1079,o),
(1248,1141,o),
(1282,1398,cs),
(1306,1582,o),
(1061,1702,o),
(545,1710,c),
(433,1073,l)
);
},
{
closed = 1;
nodes = (
(529,1729,l),
(1063,1723,o),
(1326,1596,o),
(1300,1395,cs),
(1264,1119,o),
(872,1059,o),
(411,1055,c)
);
},
{
closed = 1;
nodes = (
(505,1733,o),
(524,1752,o),
(524,1775,cs),
(524,1798,o),
(505,1817,o),
(482,1817,cs),
(459,1817,o),
(440,1798,o),
(440,1775,cs),
(440,1752,o),
(459,1733,o),
(482,1733,cs)
);
}
);
vertWidth = 0;
width = 1313;
},
{
.lastUpdate = 718090893.128;
layerId = "140DECC1-64C4-40C0-9C07-503DBC3F4160";
shapes = (
{
closed = 1;
nodes = (
(338,-18,o),
(420,53,o),
(437,149,cs),
(541,746,l),
(1073,53,ls),
(1123,-13,o),
(1195,-18,o),
(1233,-18,cs),
(1339,-18,o),
(1437,111,o),
(1317,267,cs),
(874,845,l),
(1247,891,o),
(1546,1022,o),
(1607,1363,cs),
(1673,1735,o),
(1265,1876,o),
(564,1876,cs),
(468,1876,o),
(405,1834,o),
(389,1744,cs),
(111,156,ls),
(95,65,o),
(134,-18,o),
(240,-18,cs)
);
},
{
closed = 1;
nodes = (
(160,19,o),
(134,72,o),
(148,151,cs),
(426,1736,ls),
(439,1810,o),
(481,1839,o),
(564,1839,cs),
(1257,1839,o),
(1630,1709,o),
(1570,1370,cs),
(1511,1040,o),
(1222,921,o),
(845,880,cs),
(807,875,o),
(803,870,o),
(832,833,cs),
(1289,243,ls),
(1391,112,o),
(1316,19,o),
(1233,19,cs),
(1199,19,o),
(1141,24,o),
(1101,77,cs),
(561,776,ls),
(523,825,o),
(520,821,o),
(511,771,cs),
(401,154,ls),
(388,74,o),
(322,19,o),
(240,19,cs)
);
},
{
closed = 1;
nodes = (
(985,1136,o),
(1263,1203,o),
(1292,1375,cs),
(1314,1508,o),
(1181,1582,o),
(691,1582,c),
(610,1122,l)
);
},
{
closed = 1;
nodes = (
(659,1619,l),
(1189,1622,o),
(1358,1535,o),
(1329,1370,cs),
(1293,1163,o),
(967,1093,o),
(565,1083,c)
);
},
{
closed = 1;
nodes = (
(561,1683,o),
(586,1708,o),
(586,1738,cs),
(586,1769,o),
(561,1794,o),
(531,1794,cs),
(500,1794,o),
(475,1769,o),
(475,1738,cs),
(475,1708,o),
(500,1683,o),
(531,1683,cs)
);
}
);
vertWidth = 0;
width = 1464;
}
);
metricLeft = R;
metricRight = R;
},
{
color = 7;
glyphname = S.ss04;
kernLeft = KO_S.ss04;
kernRight = KO_S.ss04;
lastChange = "2023-10-04 05:41:33 +0000";
layers = (
{
.lastUpdate = 718090892.549;
layerId = m01;
shapes = (
{
closed = 1;
nodes = (
(903,0,o),
(1141,216,o),
(1141,564,cs),
(1141,746,o),
(1007,916,o),
(806,1058,cs),
(596,1203,o),
(472,1289,o),
(472,1415,cs),
(472,1597,o),
(644,1710,o),
(927,1710,cs),
(1117,1710,o),
(1159,1659,o),
(1175,1557,cs),
(1180,1511,o),
(1246,1502,o),
(1281,1511,cs),
(1332,1524,o),
(1331,1572,o),
(1327,1601,cs),
(1292,1788,o),
(1173,1857,o),
(930,1857,cs),
(550,1857,o),
(315,1684,o),
(315,1408,cs),
(315,1205,o),
(481,1095,o),
(681,950,cs),
(904,791,o),
(980,678,o),
(980,545,cs),
(980,299,o),
(807,150,o),
(522,150,cs),
(360,150,o),
(282,201,o),
(259,302,cs),
(249,345,o),
(205,363,o),
(167,352,cs),
(118,338,o),
(103,288,o),
(108,258,cs),
(137,89,o),
(294,0,o),
(522,0,cs)
);
},
{
closed = 1;
nodes = (
(300,19,o),
(154,101,o),
(126,261,cs),
(122,285,o),
(133,323,o),
(172,334,cs),
(202,343,o),
(233,331,o),
(241,298,cs),
(266,189,o),
(353,131,o),
(522,131,cs),
(815,131,o),
(998,290,o),
(998,545,cs),
(998,684,o),
(918,804,o),
(691,965,cs),
(491,1110,o),
(333,1215,o),
(333,1408,cs),
(333,1674,o),
(558,1839,o),
(930,1839,cs),
(1167,1839,o),
(1276,1775,o),
(1309,1598,cs),
(1314,1571,o),
(1314,1538,o),
(1277,1528,cs),
(1246,1522,o),
(1197,1527,o),
(1193,1559,cs),
(1176,1667,o),
(1128,1729,o),
(927,1729,cs),
(638,1729,o),
(453,1610,o),
(453,1415,cs),
(453,1279,o),
(586,1188,o),
(795,1043,cs),
(994,903,o),
(1123,740,o),
(1123,564,cs),
(1123,225,o),
(895,19,o),
(522,19,cs)
);
},
{
closed = 1;
nodes = (
(1273,1547,o),
(1291,1565,o),
(1291,1588,cs),
(1291,1611,o),
(1273,1630,o),
(1250,1630,cs),
(1227,1630,o),
(1208,1611,o),
(1208,1588,cs),
(1208,1565,o),
(1227,1547,o),
(1250,1547,cs)
);
}
);
vertWidth = 0;
width = 1286;
},
{
.lastUpdate = 718090893.13;
layerId = "140DECC1-64C4-40C0-9C07-503DBC3F4160";
shapes = (
{
closed = 1;
nodes = (
(956,-18,o),
(1264,249,o),
(1264,606,cs),
(1264,776,o),
(1199,904,o),
(900,1115,cs),
(755,1219,o),
(581,1315,o),
(581,1393,cs),
(581,1519,o),
(704,1582,o),
(971,1582,cs),
(1092,1582,o),
(1144,1556,o),
(1154,1500,cs),
(1172,1400,o),
(1275,1376,o),
(1342,1397,cs),
(1424,1422,o),
(1452,1494,o),
(1439,1570,cs),
(1400,1790,o),
(1251,1876,o),
(1015,1876,cs),
(524,1876,o),
(267,1714,o),
(267,1393,cs),
(267,1109,o),
(537,990,o),
(688,881,cs),
(899,726,o),
(956,675,o),
(956,575,cs),
(956,405,o),
(806,276,o),
(598,276,cs),
(458,276,o),
(376,312,o),
(366,357,cs),
(347,455,o),
(249,472,o),
(183,459,cs),
(96,441,o),
(64,365,o),
(80,288,cs),
(113,98,o),
(295,-18,o),
(550,-18,cs)
);
},
{
closed = 1;
nodes = (
(308,19,o),
(146,122,o),
(117,295,c),
(103,359,o),
(125,409,o),
(191,422,cs),
(247,434,o),
(315,422,o),
(329,350,cs),
(344,283,o),
(448,239,o),
(598,239,cs),
(821,239,o),
(993,386,o),
(993,575,cs),
(993,693,o),
(923,755,o),
(710,910,cs),
(555,1022,o),
(304,1133,o),
(304,1393,cs),
(304,1691,o),
(537,1839,o),
(1015,1839,cs),
(1239,1839,o),
(1366,1764,o),
(1402,1562,cs),
(1413,1501,o),
(1394,1450,o),
(1331,1432,cs),
(1275,1414,o),
(1203,1433,o),
(1191,1508,cs),
(1177,1584,o),
(1103,1619,o),
(971,1619,cs),
(692,1619,o),
(544,1544,o),
(544,1393,cs),
(544,1291,o),
(734,1188,o),
(878,1085,cs),
(1168,881,o),
(1227,765,o),
(1227,606,cs),
(1227,268,o),
(941,19,o),
(550,19,cs)
);
},
{
closed = 1;
nodes = (
(1330,1474,o),
(1355,1499,o),
(1355,1529,cs),
(1355,1560,o),
(1330,1585,o),
(1300,1585,cs),
(1269,1585,o),
(1244,1560,o),
(1244,1529,cs),
(1244,1499,o),
(1269,1474,o),
(1300,1474,cs)
);
}
);
vertWidth = 0;
width = 1363;
}
);
metricLeft = S;
metricRight = S;
},
{
color = 7;
glyphname = T.ss04;
kernLeft = KO_T.ss04;
kernRight = KO_T.ss04;
lastChange = "2023-10-04 05:41:33 +0000";
layers = (
{
.lastUpdate = 718090892.55;
layerId = m01;
shapes = (
{
closed = 1;
nodes = (
(636,0,o),
(647,50,o),
(652,80,cs),
(937,1710,l),
(1405,1710,ls),
(1466,1710,o),
(1485,1746,o),
(1485,1784,cs),
(1485,1820,o),
(1467,1857,o),
(1405,1857,cs),
(310,1857,ls),
(245,1857,o),
(227,1820,o),
(227,1784,cs),
(227,1746,o),
(246,1710,o),
(310,1710,cs),
(775,1710,l),
(494,87,l),
(483,39,o),
(509,0,o),
(567,0,cs)
);
},
{
closed = 1;
nodes = (
(520,19,o),
(503,44,o),
(512,83,c),
(797,1729,l),
(310,1729,ls),
(257,1729,o),
(245,1753,o),
(245,1784,cs),
(245,1815,o),
(258,1839,o),
(310,1839,cs),
(1405,1839,ls),
(1454,1839,o),
(1467,1815,o),
(1467,1784,cs),
(1467,1753,o),
(1455,1729,o),
(1405,1729,cs),
(921,1729,l),
(634,82,ls),
(630,54,o),
(622,19,o),
(567,19,cs)
);
},
{
closed = 1;
nodes = (
(881,1687,o),
(899,1706,o),
(899,1729,cs),
(899,1752,o),
(881,1770,o),
(857,1770,cs),
(834,1770,o),
(816,1752,o),
(816,1729,cs),
(816,1706,o),
(834,1687,o),
(857,1687,cs)
);
}
);
vertWidth = 0;
width = 1149;
},
{
.lastUpdate = 718090893.131;
layerId = "140DECC1-64C4-40C0-9C07-503DBC3F4160";
shapes = (
{
closed = 1;
nodes = (
(709,-21,o),
(763,41,o),
(777,107,c),
(1036,1591,l),
(1415,1591,ls),
(1518,1591,o),
(1576,1658,o),
(1576,1734,cs),
(1576,1819,o),
(1512,1885,o),
(1415,1885,cs),
(381,1885,ls),
(284,1885,o),
(220,1819,o),
(220,1734,cs),
(220,1658,o),
(278,1591,o),
(381,1591,cs),
(709,1591,l),
(454,143,ls),
(438,52,o),
(504,-21,o),
(605,-21,cs)
);
},
{
closed = 1;
nodes = (
(524,16,o),
(479,66,o),
(491,136,cs),
(754,1628,l),
(381,1628,ls),
(298,1628,o),
(257,1674,o),
(257,1734,cs),
(257,1802,o),
(302,1848,o),
(381,1848,cs),
(1415,1848,ls),
(1495,1848,o),
(1539,1802,o),
(1539,1734,cs),
(1539,1674,o),
(1499,1628,o),
(1415,1628,cs),
(1005,1628,l),
(740,115,ls),
(730,59,o),
(690,16,o),
(605,16,cs)
);
},
{
closed = 1;
nodes = (
(907,1564,o),
(931,1589,o),
(931,1620,cs),
(931,1650,o),
(907,1675,o),
(876,1675,cs),
(845,1675,o),
(820,1650,o),
(820,1620,cs),
(820,1589,o),
(845,1564,o),
(876,1564,cs)
);
}
);
vertWidth = 0;
width = 1223;
}
);
metricLeft = T;
metricRight = T;
},
{
color = 7;
glyphname = U.ss04;
kernLeft = KO_U;
kernRight = KO_U.ss04;
lastChange = "2023-10-04 05:41:33 +0000";
layers = (
{
.lastUpdate = 718090344.134;
layerId = m01;
shapes = (
{
closed = 1;
nodes = (
(641,-13,o),
(982,356,o),
(1178,819,c),
(1051,86,ls),
(1041,27,o),
(1079,-4,o),
(1124,-4,cs),
(1160,-4,o),
(1201,21,o),
(1209,68,cs),
(1509,1771,ls),
(1517,1819,o),
(1495,1856,o),
(1433,1856,cs),
(1375,1856,o),
(1353,1819,o),
(1345,1782,c),
(1290,1468,l),
(1053,700,o),
(664,136,o),
(397,136,cs),
(274,136,o),
(301,336,o),
(334,517,cs),
(561,1767,ls),
(570,1812,o),
(541,1853,o),
(492,1856,cs),
(441,1856,o),
(408,1813,o),
(400,1765,cs),
(176,526,ls),
(108,152,o),
(199,-13,o),
(373,-13,cs)
);
},
{
closed = 1;
nodes = (
(211,6,o),
(129,156,o),
(194,523,cs),
(417,1762,ls),
(425,1805,o),
(451,1838,o),
(491,1838,cs),
(530,1835,o),
(549,1807,o),
(543,1770,cs),
(316,520,ls),
(283,338,o),
(252,118,o),
(397,118,cs),
(676,118,o),
(1069,693,o),
(1308,1464,c),
(1363,1779,ls),
(1369,1811,o),
(1386,1838,o),
(1433,1838,cs),
(1483,1838,o),
(1499,1814,o),
(1491,1774,cs),
(1190,72,ls),
(1184,33,o),
(1153,15,o),
(1124,15,cs),
(1086,15,o),
(1060,36,o),
(1068,82,cs),
(1201,843,ls),
(1212,907,o),
(1205,925,o),
(1170,846,cs),
(946,344,o),
(624,6,o),
(373,6,cs)
);
},
{
closed = 1;
nodes = (
(505,1733,o),
(524,1752,o),
(524,1775,cs),
(524,1798,o),
(505,1817,o),
(482,1817,cs),
(459,1817,o),
(440,1798,o),
(440,1775,cs),
(440,1752,o),
(459,1733,o),
(482,1733,cs)
);
}
);
vertWidth = 0;
width = 1456;
},
{
.lastUpdate = 718090893.133;
layerId = "140DECC1-64C4-40C0-9C07-503DBC3F4160";
shapes = (
{
closed = 1;
nodes = (
(688,-31,o),
(924,135,o),
(1116,425,c),
(1066,142,ls),
(1047,35,o),
(1128,-18,o),
(1217,-18,cs),
(1288,-18,o),
(1373,19,o),
(1387,103,cs),
(1671,1718,ls),
(1687,1808,o),
(1625,1876,o),
(1518,1876,cs),
(1428,1876,o),
(1362,1827,o),
(1348,1752,cs),
(1312,1556,l),
(1094,751,o),
(795,264,o),
(536,264,cs),
(467,264,o),
(474,357,o),
(504,525,cs),
(716,1712,ls),
(733,1807,o),
(662,1876,o),
(568,1876,cs),
(465,1879,o),
(403,1792,o),
(393,1736,cs),
(181,561,ls),
(108,154,o),
(236,-31,o),
(457,-31,cs)
);
},
{
closed = 1;
nodes = (
(258,6,o),
(149,167,o),
(218,554,cs),
(430,1729,ls),
(438,1775,o),
(486,1842,o),
(568,1839,cs),
(645,1839,o),
(692,1791,o),
(679,1720,cs),
(467,533,ls),
(436,359,o),
(426,227,o),
(536,227,cs),
(819,227,o),
(1128,734,o),
(1349,1548,c),
(1385,1746,ls),
(1395,1804,o),
(1442,1839,o),
(1518,1839,cs),
(1606,1839,o),
(1647,1795,o),
(1634,1723,cs),
(1350,108,ls),
(1339,46,o),
(1278,19,o),
(1217,19,cs),
(1143,19,o),
(1089,55,o),
(1103,137,cs),
(1168,509,ls),
(1180,575,o),
(1167,581,o),
(1128,514,cs),
(936,187,o),
(693,6,o),
(457,6,cs)
);
},
{
closed = 1;
nodes = (
(585,1683,o),
(610,1708,o),
(610,1738,cs),
(610,1769,o),
(585,1794,o),
(555,1794,cs),
(524,1794,o),
(499,1769,o),
(499,1738,cs),
(499,1708,o),
(524,1683,o),
(555,1683,cs)
);
}
);
vertWidth = 0;
width = 1620;
}
);
metricLeft = U;
metricRight = U;
},
{
color = 7;
glyphname = V.ss04;
kernLeft = KO_V;
kernRight = KO_V.ss04;
lastChange = "2023-10-04 05:41:32 +0000";
layers = (
{
.lastUpdate = 718090892.552;
layerId = m01;
shapes = (
{
closed = 1;
nodes = (
(466,0,o),
(480,37,o),
(499,77,cs),
(1328,1754,ls),
(1361,1819,o),
(1321,1857,o),
(1273,1857,cs),
(1214,1857,o),
(1189,1833,o),
(1165,1783,cs),
(457,321,l),
(388,1782,ls),
(387,1812,o),
(372,1857,o),
(301,1857,cs),
(244,1857,o),
(225,1820,o),
(227,1773,cs),
(320,87,ls),
(322,49,o),
(350,0,o),
(405,0,cs)
);
},
{
closed = 1;
nodes = (
(362,19,o),
(340,56,o),
(338,89,cs),
(246,1774,ls),
(244,1815,o),
(256,1839,o),
(301,1839,cs),
(359,1839,o),
(370,1808,o),
(371,1781,cs),
(440,290,ls),
(442,253,o),
(444,253,o),
(462,289,cs),
(1181,1775,ls),
(1203,1821,o),
(1221,1839,o),
(1273,1839,cs),
(1312,1839,o),
(1337,1813,o),
(1312,1761,cs),
(483,85,ls),
(462,44,o),
(454,19,o),
(405,19,cs)
);
},
{
closed = 1;
nodes = (
(329,1733,o),
(348,1752,o),
(348,1775,cs),
(348,1798,o),
(329,1817,o),
(306,1817,cs),
(283,1817,o),
(264,1798,o),
(264,1775,cs),
(264,1752,o),
(283,1733,o),
(306,1733,cs)
);
}
);
vertWidth = 0;
width = 1029;
},
{
.lastUpdate = 718090344.136;
layerId = "140DECC1-64C4-40C0-9C07-503DBC3F4160";
shapes = (
{
closed = 1;
nodes = (
(564,-23,o),
(609,31,o),
(636,88,cs),
(1423,1681,ls),
(1478,1794,o),
(1405,1876,o),
(1301,1876,cs),
(1211,1876,o),
(1152,1838,o),
(1120,1773,cs),
(586,670,l),
(535,1745,ls),
(531,1820,o),
(470,1876,o),
(369,1876,cs),
(278,1876,o),
(216,1823,o),
(221,1727,cs),
(312,124,ls),
(316,45,o),
(381,-23,o),
(473,-23,cs)
);
},
{
closed = 1;
nodes = (
(399,14,o),
(352,63,o),
(349,126,cs),
(258,1729,ls),
(253,1804,o),
(294,1839,o),
(369,1839,cs),
(453,1839,o),
(495,1801,o),
(498,1744,cs),
(551,623,ls),
(555,536,o),
(565,542,o),
(604,623,cs),
(1153,1758,ls),
(1178,1810,o),
(1224,1839,o),
(1301,1839,cs),
(1384,1839,o),
(1433,1786,o),
(1389,1697,cs),
(603,105,ls),
(577,52,o),
(545,14,o),
(473,14,cs)
);
},
{
closed = 1;
nodes = (
(409,1683,o),
(434,1708,o),
(434,1738,cs),
(434,1769,o),
(409,1794,o),
(378,1794,cs),
(348,1794,o),
(323,1769,o),
(323,1738,cs),
(323,1708,o),
(348,1683,o),
(378,1683,cs)
);
}
);
vertWidth = 0;
width = 1223;
}
);
metricLeft = V;
metricRight = V;
},
{
color = 7;
glyphname = W.ss04;
kernLeft = KO_W;
kernRight = KO_W.ss04;
lastChange = "2023-10-04 05:41:33 +0000";
layers = (
{
.lastUpdate = 718090344.136;
layerId = m01;
shapes = (
{
closed = 1;
nodes = (
(455,0,o),
(480,49,o),
(495,80,cs),
(1208,1551,l),
(1283,64,ls),
(1285,20,o),
(1312,0,o),
(1366,0,cs),
(1406,0,o),
(1434,28,o),
(1458,77,cs),
(2285,1754,ls),
(2316,1819,o),
(2276,1857,o),
(2219,1857,cs),
(2175,1857,o),
(2143,1832,o),
(2120,1783,cs),
(1418,333,l),
(1344,1782,ls),
(1342,1812,o),
(1323,1857,o),
(1249,1857,cs),
(1199,1857,o),
(1165,1806,o),
(1155,1785,cs),
(451,325,l),
(380,1782,ls),
(378,1812,o),
(364,1857,o),
(292,1857,cs),
(235,1857,o),
(216,1820,o),
(218,1773,cs),
(311,87,ls),
(314,38,o),
(346,0,o),
(401,0,cs)
);
},
{
closed = 1;
nodes = (
(356,19,o),
(332,46,o),
(329,89,cs),
(237,1774,ls),
(235,1815,o),
(247,1839,o),
(292,1839,cs),
(350,1839,o),
(361,1808,o),
(362,1781,cs),
(435,294,ls),
(437,262,o),
(442,264,o),
(458,297,cs),
(1172,1777,ls),
(1181,1796,o),
(1209,1839,o),
(1249,1839,cs),
(1309,1839,o),
(1325,1807,o),
(1326,1781,cs),
(1400,314,ls),
(1402,273,o),
(1410,275,o),
(1428,313,cs),
(2136,1775,ls),
(2157,1819,o),
(2182,1839,o),
(2219,1839,cs),
(2267,1839,o),
(2294,1813,o),
(2268,1761,cs),
(1441,84,ls),
(1419,40,o),
(1399,19,o),
(1366,19,cs),
(1319,19,o),
(1303,31,o),
(1301,65,cs),
(1224,1578,ls),
(1222,1617,o),
(1217,1613,o),
(1200,1577,cs),
(478,87,ls),
(463,57,o),
(444,19,o),
(401,19,cs)
);
},
{
closed = 1;
nodes = (
(318,1733,o),
(337,1752,o),
(337,1775,cs),
(337,1798,o),
(318,1817,o),
(295,1817,cs),
(272,1817,o),
(253,1798,o),
(253,1775,cs),
(253,1752,o),
(272,1733,o),
(295,1733,cs)
);
}
);
vertWidth = 0;
width = 1985;
},
{
.lastUpdate = 718090893.135;
layerId = "140DECC1-64C4-40C0-9C07-503DBC3F4160";
shapes = (
{
closed = 1;
nodes = (
(540,-18,o),
(598,21,o),
(632,88,cs),
(1181,1195,l),
(1255,127,ls),
(1262,37,o),
(1326,-18,o),
(1413,-18,cs),
(1484,-18,o),
(1546,22,o),
(1580,93,cs),
(2359,1681,ls),
(2414,1794,o),
(2329,1876,o),
(2232,1876,cs),
(2133,1876,o),
(2078,1822,o),
(2052,1767,cs),
(1527,679,l),
(1451,1745,ls),
(1446,1825,o),
(1389,1876,o),
(1279,1876,cs),
(1173,1876,o),
(1142,1813,o),
(1125,1777,cs),
(581,665,l),
(535,1745,ls),
(532,1819,o),
(474,1876,o),
(372,1876,cs),
(281,1876,o),
(216,1823,o),
(221,1727,cs),
(305,124,ls),
(310,37,o),
(377,-18,o),
(478,-18,cs)
);
},
{
closed = 1;
nodes = (
(393,19,o),
(346,57,o),
(342,126,cs),
(258,1729,ls),
(254,1804,o),
(297,1839,o),
(372,1839,cs),
(456,1839,o),
(495,1801,o),
(498,1744,cs),
(546,607,ls),
(549,532,o),
(557,535,o),
(592,606,cs),
(1158,1760,ls),
(1176,1796,o),
(1196,1839,o),
(1279,1839,cs),
(1373,1839,o),
(1410,1806,o),
(1414,1744,cs),
(1494,619,ls),
(1499,550,o),
(1504,549,o),
(1538,619,cs),
(2085,1750,ls),
(2108,1798,o),
(2150,1839,o),
(2232,1839,cs),
(2309,1839,o),
(2368,1783,o),
(2325,1697,cs),
(1547,109,ls),
(1517,50,o),
(1471,19,o),
(1413,19,cs),
(1341,19,o),
(1297,57,o),
(1292,129,cs),
(1215,1243,ls),
(1211,1314,o),
(1200,1315,o),
(1165,1244,cs),
(598,105,ls),
(571,49,o),
(527,19,o),
(478,19,cs)
);
},
{
closed = 1;
nodes = (
(409,1683,o),
(434,1708,o),
(434,1738,cs),
(434,1769,o),
(409,1794,o),
(378,1794,cs),
(348,1794,o),
(323,1769,o),
(323,1738,cs),
(323,1708,o),
(348,1683,o),
(378,1683,cs)
);
}
);
vertWidth = 0;
width = 2157;
}
);
metricLeft = W;
metricRight = W;
},
{
color = 7;
glyphname = X.ss04;
kernLeft = KO_X.ss04;
kernRight = KO_X.ss04;
lastChange = "2023-10-04 05:41:32 +0000";
layers = (
{
.lastUpdate = 718090892.554;
layerId = m01;
shapes = (
{
closed = 1;
nodes = (
(-14,-10,o),
(46,-12,o),
(80,35,cs),
(609,763,l),
(872,61,ls),
(894,1,o),
(957,-10,o),
(997,10,cs),
(1029,27,o),
(1042,65,o),
(1025,112,cs),
(721,918,l),
(1310,1726,ls),
(1343,1772,o),
(1336,1819,o),
(1308,1841,cs),
(1276,1868,o),
(1215,1866,o),
(1180,1818,cs),
(655,1096,l),
(389,1799,ls),
(368,1856,o),
(316,1869,o),
(277,1854,cs),
(237,1839,o),
(222,1798,o),
(243,1741,cs),
(543,942,l),
(-55,122,ls),
(-83,83,o),
(-76,41,o),
(-49,19,cs)
);
},
{
closed = 1;
nodes = (
(-58,50,o),
(-63,80,o),
(-41,111,cs),
(563,939,l),
(260,1747,ls),
(241,1796,o),
(252,1826,o),
(283,1837,cs),
(314,1850,o),
(353,1841,o),
(372,1793,cs),
(641,1080,ls),
(648,1061,o),
(651,1061,o),
(667,1082,cs),
(1195,1807,ls),
(1224,1846,o),
(1271,1848,o),
(1296,1826,cs),
(1317,1810,o),
(1324,1776,o),
(1295,1737,cs),
(701,920,l),
(1008,105,ls),
(1023,66,o),
(1014,40,o),
(989,27,cs),
(955,9,o),
(908,19,o),
(890,68,cs),
(622,781,ls),
(615,798,o),
(612,798,o),
(600,782,cs),
(66,46,ls),
(37,7,o),
(-8,9,o),
(-37,33,cs)
);
},
{
closed = 1;
nodes = (
(336,1733,o),
(354,1752,o),
(354,1775,cs),
(354,1798,o),
(336,1817,o),
(313,1817,cs),
(289,1817,o),
(271,1798,o),
(271,1775,cs),
(271,1752,o),
(289,1733,o),
(313,1733,cs)
);
}
);
vertWidth = 0;
width = 1112;
},
{
.lastUpdate = 718090344.139;
layerId = "140DECC1-64C4-40C0-9C07-503DBC3F4160";
shapes = (
{
closed = 1;
nodes = (
(45,-29,o),
(171,-45,o),
(228,34,cs),
(635,604,l),
(834,73,ls),
(870,-22,o),
(993,-37,o),
(1065,0,cs),
(1132,35,o),
(1166,101,o),
(1134,179,cs),
(857,912,l),
(1379,1642,ls),
(1436,1718,o),
(1421,1789,o),
(1362,1840,cs),
(1304,1893,o),
(1189,1894,o),
(1130,1816,cs),
(728,1256,l),
(527,1787,ls),
(492,1879,o),
(388,1892,o),
(315,1868,cs),
(232,1838,o),
(200,1767,o),
(238,1668,cs),
(507,949,l),
(-27,208,ls),
(-75,142,o),
(-76,75,o),
(-17,22,cs)
);
},
{
closed = 1;
nodes = (
(-37,90,o),
(-37,131,o),
(3,186,cs),
(548,944,l),
(273,1681,ls),
(241,1763,o),
(262,1809,o),
(328,1832,cs),
(389,1854,o),
(466,1844,o),
(492,1774,cs),
(702,1217,ls),
(715,1182,o),
(720,1183,o),
(745,1217,cs),
(1160,1794,ls),
(1205,1856,o),
(1291,1854,o),
(1338,1812,cs),
(1386,1770,o),
(1395,1725,o),
(1350,1664,cs),
(816,918,l),
(1099,167,ls),
(1123,104,o),
(1103,62,o),
(1048,33,cs),
(988,3,o),
(896,14,o),
(870,86,cs),
(661,642,ls),
(648,678,o),
(644,678,o),
(619,643,cs),
(199,56,ls),
(155,-5,o),
(58,8,o),
(7,50,cs)
);
},
{
closed = 1;
nodes = (
(415,1683,o),
(440,1708,o),
(440,1738,cs),
(440,1769,o),
(415,1794,o),
(385,1794,cs),
(354,1794,o),
(329,1769,o),
(329,1738,cs),
(329,1708,o),
(354,1683,o),
(385,1683,cs)
);
}
);
vertWidth = 0;
width = 1215;
}
);
metricLeft = X;
metricRight = X;
},
{
color = 7;
glyphname = Y.ss04;
kernLeft = KO_Y.ss04;
kernRight = KO_Y.ss04;
lastChange = "2023-10-04 05:41:33 +0000";
layers = (
{
.lastUpdate = 718090892.555;
layerId = m01;
shapes = (
{
closed = 1;
nodes = (
(554,0,o),
(566,49,o),
(572,79,cs),
(719,918,l),
(1313,1726,ls),
(1328,1748,o),
(1338,1770,o),
(1338,1789,cs),
(1338,1826,o),
(1297,1857,o),
(1263,1857,cs),
(1232,1857,o),
(1205,1849,o),
(1182,1818,cs),
(659,1096,l),
(390,1795,ls),
(376,1831,o),
(348,1857,o),
(301,1857,cs),
(263,1857,o),
(227,1826,o),
(227,1792,cs),
(227,1772,o),
(230,1764,o),
(240,1741,cs),
(555,923,l),
(408,87,ls),
(400,39,o),
(425,0,o),
(481,0,cs)
);
},
{
closed = 1;
nodes = (
(437,19,o),
(419,44,o),
(426,84,cs),
(574,925,l),
(256,1747,ls),
(247,1771,o),
(245,1776,o),
(245,1792,cs),
(245,1816,o),
(270,1839,o),
(301,1839,cs),
(340,1839,o),
(361,1819,o),
(373,1788,cs),
(647,1075,ls),
(653,1061,o),
(656,1061,o),
(666,1075,cs),
(1197,1807,ls),
(1216,1833,o),
(1236,1839,o),
(1263,1839,cs),
(1290,1839,o),
(1320,1815,o),
(1320,1789,cs),
(1320,1774,o),
(1313,1758,o),
(1298,1737,cs),
(701,925,l),
(554,82,ls),
(549,54,o),
(539,19,o),
(481,19,cs)
);
},
{
closed = 1;
nodes = (
(332,1733,o),
(351,1752,o),
(351,1775,cs),
(351,1798,o),
(332,1817,o),
(309,1817,cs),
(286,1817,o),
(267,1798,o),
(267,1775,cs),
(267,1752,o),
(286,1733,o),
(309,1733,cs)
);
}
);
vertWidth = 0;
width = 1029;
},
{
.lastUpdate = 718090893.136;
layerId = "140DECC1-64C4-40C0-9C07-503DBC3F4160";
shapes = (
{
closed = 1;
nodes = (
(661,-23,o),
(708,46,o),
(719,112,cs),
(855,894,l),
(1411,1632,ls),
(1436,1665,o),
(1448,1699,o),
(1448,1737,cs),
(1448,1825,o),
(1347,1876,o),
(1289,1876,cs),
(1239,1876,o),
(1189,1850,o),
(1157,1807,cs),
(737,1229,l),
(530,1776,ls),
(504,1844,o),
(462,1876,o),
(392,1876,cs),
(300,1876,o),
(222,1824,o),
(222,1752,cs),
(222,1720,o),
(228,1700,o),
(240,1668,cs),
(529,919,l),
(395,142,ls),
(379,52,o),
(449,-23,o),
(551,-23,cs)
);
},
{
closed = 1;
nodes = (
(468,14,o),
(420,66,o),
(432,137,cs),
(568,923,l),
(275,1681,ls),
(263,1711,o),
(259,1725,o),
(259,1752,cs),
(259,1802,o),
(314,1839,o),
(392,1839,cs),
(445,1839,o),
(474,1819,o),
(496,1761,cs),
(713,1186,ls),
(725,1154,o),
(729,1154,o),
(751,1186,cs),
(1187,1787,ls),
(1212,1821,o),
(1248,1839,o),
(1289,1839,cs),
(1336,1839,o),
(1411,1801,o),
(1411,1737,cs),
(1411,1708,o),
(1402,1683,o),
(1381,1654,cs),
(820,909,l),
(682,119,ls),
(672,63,o),
(639,14,o),
(551,14,cs)
);
},
{
closed = 1;
nodes = (
(414,1683,o),
(439,1708,o),
(439,1738,cs),
(439,1769,o),
(414,1794,o),
(384,1794,cs),
(353,1794,o),
(328,1769,o),
(328,1738,cs),
(328,1708,o),
(353,1683,o),
(384,1683,cs)
);
}
);
vertWidth = 0;
width = 1131;
}
);
metricLeft = Y;
metricRight = Y;
},
{
color = 7;
glyphname = Z.ss04;
kernLeft = KO_Z.ss04;
kernRight = KO_Z.ss04;
lastChange = "2023-10-04 05:41:32 +0000";
layers = (
{
.lastUpdate = 718090892.556;
layerId = m01;
shapes = (
{
closed = 1;
nodes = (
(954,0,ls),
(1018,0,o),
(1037,42,o),
(1037,80,cs),
(1037,117,o),
(1018,150,o),
(954,150,cs),
(154,150,l),
(1288,1724,ls),
(1302,1745,o),
(1314,1772,o),
(1314,1792,cs),
(1314,1834,o),
(1288,1857,o),
(1232,1857,cs),
(313,1857,ls),
(250,1857,o),
(230,1816,o),
(230,1780,cs),
(230,1740,o),
(250,1710,o),
(313,1710,cs),
(1091,1710,l),
(-52,125,ls),
(-67,104,o),
(-69,84,o),
(-69,68,cs),
(-69,35,o),
(-43,0,o),
(14,0,cs)
);
},
{
closed = 1;
nodes = (
(-34,19,o),
(-52,43,o),
(-52,68,cs),
(-52,82,o),
(-49,96,o),
(-37,114,cs),
(1113,1709,ls),
(1126,1727,o),
(1125,1729,o),
(1101,1729,cs),
(313,1729,ls),
(261,1729,o),
(249,1746,o),
(249,1780,cs),
(249,1810,o),
(262,1839,o),
(313,1839,cs),
(1232,1839,ls),
(1279,1839,o),
(1296,1825,o),
(1296,1792,cs),
(1296,1776,o),
(1288,1755,o),
(1273,1734,cs),
(134,154,ls),
(119,133,o),
(120,131,o),
(148,131,cs),
(954,131,ls),
(1006,131,o),
(1019,111,o),
(1019,80,cs),
(1019,47,o),
(1005,19,o),
(954,19,cs),
(14,19,ls)
);
},
{
closed = 1;
nodes = (
(341,1740,o),
(360,1758,o),
(360,1782,cs),
(360,1805,o),
(341,1823,o),
(318,1823,cs),
(295,1823,o),
(277,1805,o),
(277,1782,cs),
(277,1758,o),
(295,1740,o),
(318,1740,cs)
);
}
);
vertWidth = 0;
width = 1116;
},
{
.lastUpdate = 718090344.141;
layerId = "140DECC1-64C4-40C0-9C07-503DBC3F4160";
shapes = (
{
closed = 1;
nodes = (
(1005,-18,ls),
(1107,-18,o),
(1166,46,o),
(1166,123,cs),
(1166,207,o),
(1100,276,o),
(1005,276,cs),
(398,276,l),
(1384,1628,ls),
(1413,1668,o),
(1424,1703,o),
(1424,1735,cs),
(1424,1816,o),
(1354,1876,o),
(1252,1876,cs),
(383,1876,ls),
(286,1876,o),
(222,1810,o),
(222,1725,cs),
(222,1648,o),
(280,1582,o),
(383,1582,cs),
(967,1582,l),
(-36,211,ls),
(-55,185,o),
(-64,154,o),
(-64,125,cs),
(-64,66,o),
(-23,-18,o),
(118,-18,cs)
);
},
{
closed = 1;
nodes = (
(2,19,o),
(-27,77,o),
(-27,125,cs),
(-27,149,o),
(-21,169,o),
(-6,189,cs),
(1013,1584,ls),
(1037,1616,o),
(1035,1619,o),
(992,1619,cs),
(383,1619,ls),
(300,1619,o),
(259,1665,o),
(259,1725,cs),
(259,1793,o),
(303,1839,o),
(383,1839,cs),
(1252,1839,ls),
(1338,1839,o),
(1387,1796,o),
(1387,1735,cs),
(1387,1709,o),
(1378,1684,o),
(1354,1650,cs),
(354,278,ls),
(327,241,o),
(328,239,o),
(377,239,cs),
(1005,239,ls),
(1082,239,o),
(1129,190,o),
(1129,123,cs),
(1129,63,o),
(1089,19,o),
(1005,19,cs),
(118,19,ls)
);
},
{
closed = 1;
nodes = (
(414,1683,o),
(439,1708,o),
(439,1738,cs),
(439,1769,o),
(414,1794,o),
(384,1794,cs),
(353,1794,o),
(328,1769,o),
(328,1738,cs),
(328,1708,o),
(353,1683,o),
(384,1683,cs)
);
}
);
vertWidth = 0;
width = 1235;
}
);
metricLeft = Z;
metricRight = Z;
},
{
color = 6;
glyphname = A.ss05;
kernLeft = KO_M;
kernRight = KO_A.ss04;
lastChange = "2023-10-04 05:41:33 +0000";
layers = (
{
.lastUpdate = 718090892.557;
layerId = m01;
shapes = (
{
closed = 1;
nodes = (
(86,0,o),
(102,23,o),
(129,77,cs),
(565,932,l),
(935,932,l),
(1003,78,ls),
(1005,48,o),
(1017,0,o),
(1085,0,cs),
(1142,0,o),
(1162,36,o),
(1158,84,cs),
(1014,1797,ls),
(1011,1830,o),
(988,1857,o),
(935,1857,cs),
(865,1857,o),
(861,1820,o),
(842,1783,cs),
(-32,105,ls),
(-67,40,o),
(-23,0,o),
(26,0,cs)
);
},
{
closed = 1;
nodes = (
(-14,19,o),
(-44,45,o),
(-17,96,cs),
(858,1775,ls),
(880,1816,o),
(881,1839,o),
(935,1839,cs),
(978,1839,o),
(993,1820,o),
(995,1795,cs),
(1140,82,ls),
(1144,42,o),
(1130,19,o),
(1085,19,cs),
(1031,19,o),
(1023,51,o),
(1021,79,cs),
(952,951,l),
(554,951,l),
(113,85,ls),
(86,33,o),
(76,19,o),
(26,19,cs)
);
},
{
closed = 1;
nodes = (
(923,1072,l),
(886,1562,l),
(637,1072,l)
);
},
{
closed = 1;
nodes = (
(877,1585,ls),
(894,1619,o),
(899,1619,o),
(902,1580,cs),
(943,1055,l),
(607,1055,l)
);
},
{
closed = 1;
nodes = (
(954,1733,o),
(972,1752,o),
(972,1775,cs),
(972,1798,o),
(954,1817,o),
(930,1817,cs),
(907,1817,o),
(889,1798,o),
(889,1775,cs),
(889,1752,o),
(907,1733,o),
(930,1733,cs)
);
},
{
closed = 1;
nodes = (
(773,1541,l),
(763,1476,l),
(809,1523,l),
(798,1528,l),
(888,1705,l),
(874,1712,l),
(784,1536,l)
);
}
);
vertWidth = 0;
width = 1268;
},
{
.lastUpdate = 718090893.138;
layerId = "140DECC1-64C4-40C0-9C07-503DBC3F4160";
shapes = (
{
closed = 1;
nodes = (
(187,-18,o),
(238,7,o),
(277,85,cs),
(610,743,l),
(964,742,l),
(1016,115,ls),
(1022,34,o),
(1075,-18,o),
(1174,-18,cs),
(1263,-18,o),
(1330,32,o),
(1322,134,cs),
(1185,1724,ls),
(1177,1824,o),
(1103,1876,o),
(1005,1876,cs),
(904,1876,o),
(839,1828,o),
(808,1770,cs),
(-19,179,ls),
(-80,65,o),
(3,-18,o),
(104,-18,cs)
);
},
{
closed = 1;
nodes = (
(24,19,o),
(-33,72,o),
(14,163,cs),
(842,1753,ls),
(868,1803,o),
(918,1839,o),
(1005,1839,cs),
(1089,1839,o),
(1141,1802,o),
(1148,1721,cs),
(1285,130,ls),
(1291,52,o),
(1247,19,o),
(1174,19,cs),
(1092,19,o),
(1058,54,o),
(1053,117,cs),
(997,779,l),
(587,780,l),
(243,102,ls),
(210,36,o),
(176,19,o),
(104,19,cs)
);
},
{
closed = 1;
nodes = (
(940,1038,l),
(914,1342,l),
(759,1038,l)
);
},
{
closed = 1;
nodes = (
(898,1392,ls),
(930,1453,o),
(940,1458,o),
(945,1396,cs),
(979,1001,l),
(699,1001,l)
);
},
{
closed = 1;
nodes = (
(1010,1683,o),
(1035,1708,o),
(1035,1738,cs),
(1035,1769,o),
(1010,1794,o),
(980,1794,cs),
(949,1794,o),
(924,1769,o),
(924,1738,cs),
(924,1708,o),
(949,1683,o),
(980,1683,cs)
);
},
{
closed = 1;
nodes = (
(811,1496,l),
(806,1430,l),
(856,1474,l),
(845,1479,l),
(935,1656,l),
(912,1667,l),
(822,1490,l)
);
}
);
vertWidth = 0;
width = 1420;
}
);
metricLeft = A;
metricRight = A;
},
{
color = 6;
glyphname = B.ss05;
kernLeft = KO_B;
kernRight = KO_B.ss04;
lastChange = "2023-10-04 05:41:33 +0000";
layers = (
{
.lastUpdate = 718090892.558;
layerId = m01;
shapes = (
{
closed = 1;
nodes = (
(967,0,o),
(1198,154,o),
(1247,471,cs),
(1287,728,o),
(1160,903,o),
(891,996,c),
(1241,1053,o),
(1329,1183,o),
(1351,1359,cs),
(1395,1701,o),
(1100,1857,o),
(488,1857,cs),
(437,1857,o),
(407,1835,o),
(396,1774,cs),
(100,99,ls),
(92,51,o),
(116,0,o),
(161,0,cs)
);
},
{
closed = 1;
nodes = (
(129,19,o),
(110,56,o),
(117,95,cs),
(413,1770,ls),
(423,1824,o),
(444,1839,o),
(488,1839,cs),
(1093,1839,o),
(1374,1690,o),
(1333,1362,cs),
(1310,1175,o),
(1217,1051,o),
(805,1003,c),
(1123,919,o),
(1270,742,o),
(1229,473,cs),
(1183,167,o),
(959,19,o),
(161,19,cs)
);
},
{
closed = 1;
nodes = (
(765,154,o),
(1052,228,o),
(1089,489,cs),
(1124,736,o),
(927,924,o),
(410,944,c),
(270,150,l)
);
},
{
closed = 1;
nodes = (
(394,962,l),
(932,945,o),
(1144,746,o),
(1107,487,cs),
(1067,208,o),
(759,133,o),
(248,131,c)
);
},
{
closed = 1;
nodes = (
(1080,1081,o),
(1171,1190,o),
(1190,1365,cs),
(1217,1610,o),
(972,1704,o),
(544,1710,c),
(432,1073,l)
);
},
{
closed = 1;
nodes = (
(529,1729,l),
(970,1725,o),
(1240,1627,o),
(1209,1363,cs),
(1188,1178,o),
(1089,1061,o),
(411,1055,c)
);
},
{
closed = 1;
nodes = (
(501,1733,o),
(520,1752,o),
(520,1775,cs),
(520,1798,o),
(501,1817,o),
(478,1817,cs),
(455,1817,o),
(437,1798,o),
(437,1775,cs),
(437,1752,o),
(455,1733,o),
(478,1733,cs)
);
},
{
closed = 1;
nodes = (
(410,1504,l),
(419,1439,l),
(450,1498,l),
(438,1499,l),
(472,1695,l),
(456,1697,l),
(422,1502,l)
);
}
);
vertWidth = 0;
width = 1364;
},
{
.lastUpdate = 718090893.141;
layerId = "140DECC1-64C4-40C0-9C07-503DBC3F4160";
shapes = (
{
closed = 1;
nodes = (
(1091,-18,o),
(1394,57,o),
(1451,469,cs),
(1487,725,o),
(1380,882,o),
(1183,983,c),
(1439,1060,o),
(1568,1195,o),
(1586,1346,cs),
(1631,1717,o),
(1288,1876,o),
(547,1876,cs),
(476,1876,o),
(409,1852,o),
(389,1743,cs),
(109,154,ls),
(92,56,o),
(163,-18,o),
(248,-18,cs)
);
},
{
closed = 1;
nodes = (
(182,19,o),
(132,70,o),
(146,149,cs),
(426,1737,ls),
(441,1822,o),
(486,1839,o),
(547,1839,cs),
(1277,1839,o),
(1589,1695,o),
(1549,1351,cs),
(1530,1189,o),
(1386,1061,o),
(1069,993,c),
(1319,900,o),
(1453,746,o),
(1414,475,cs),
(1360,90,o),
(1083,19,o),
(248,19,cs)
);
},
{
closed = 1;
nodes = (
(948,290,o),
(1104,345,o),
(1130,524,cs),
(1162,737,o),
(1023,831,o),
(561,848,c),
(461,277,l)
);
},
{
closed = 1;
nodes = (
(531,887,l),
(1033,871,o),
(1202,763,o),
(1167,519,cs),
(1138,311,o),
(947,249,o),
(416,238,c)
);
},
{
closed = 1;
nodes = (
(1229,1141,o),
(1254,1274,o),
(1263,1365,cs),
(1273,1485,o),
(1184,1562,o),
(690,1578,c),
(609,1122,l)
);
},
{
closed = 1;
nodes = (
(659,1616,l),
(1197,1603,o),
(1313,1507,o),
(1300,1362,cs),
(1290,1263,o),
(1263,1099,o),
(565,1083,c)
);
},
{
closed = 1;
nodes = (
(579,1680,o),
(604,1705,o),
(604,1735,cs),
(604,1766,o),
(579,1791,o),
(548,1791,cs),
(518,1791,o),
(493,1766,o),
(493,1735,cs),
(493,1705,o),
(518,1680,o),
(548,1680,cs)
);
},
{
closed = 1;
nodes = (
(478,1449,l),
(492,1385,l),
(527,1442,l),
(515,1444,l),
(549,1639,l),
(524,1643,l),
(490,1448,l)
);
}
);
vertWidth = 0;
width = 1558;
}
);
metricLeft = B;
metricRight = B;
},
{
color = 6;
glyphname = C.ss05;
kernLeft = KO_C;
kernRight = KO_C.ss04;
lastChange = "2023-10-04 05:41:33 +0000";
layers = (
{
.lastUpdate = 718090344.145;
layerId = m01;
shapes = (
{
closed = 1;
nodes = (
(936,0,o),
(1129,129,o),
(1292,308,cs),
(1363,387,o),
(1371,425,o),
(1368,447,cs),
(1361,485,o),
(1332,505,o),
(1292,505,cs),
(1240,505,o),
(1223,453,o),
(1167,404,cs),
(1013,257,o),
(875,150,o),
(692,150,cs),
(494,150,o),
(290,398,o),
(370,868,cs),
(427,1193,o),
(561,1710,o),
(1049,1710,cs),
(1178,1710,o),
(1313,1652,o),
(1438,1521,cs),
(1481,1478,o),
(1525,1490,o),
(1551,1518,cs),
(1578,1548,o),
(1572,1592,o),
(1540,1625,cs),
(1407,1766,o),
(1230,1857,o),
(1052,1857,cs),
(444,1857,o),
(283,1277,o),
(211,873,cs),
(110,310,o),
(413,0,o),
(690,0,cs)
);
},
{
closed = 1;
nodes = (
(422,19,o),
(130,317,o),
(229,870,cs),
(301,1272,o),
(458,1839,o),
(1052,1839,cs),
(1226,1839,o),
(1391,1758,o),
(1529,1612,cs),
(1553,1589,o),
(1559,1551,o),
(1537,1530,cs),
(1518,1507,o),
(1486,1499,o),
(1451,1533,cs),
(1324,1668,o),
(1182,1729,o),
(1049,1729,cs),
(547,1729,o),
(409,1197,o),
(352,870,cs),
(270,390,o),
(484,131,o),
(692,131,cs),
(882,131,o),
(1025,243,o),
(1179,391,cs),
(1240,443,o),
(1252,487,o),
(1292,487,cs),
(1326,487,o),
(1344,473,o),
(1350,444,cs),
(1352,426,o),
(1346,395,o),
(1278,320,cs),
(1117,142,o),
(930,19,o),
(690,19,cs)
);
},
{
closed = 1;
nodes = (
(1517,1526,o),
(1536,1545,o),
(1536,1568,cs),
(1536,1591,o),
(1517,1610,o),
(1494,1610,cs),
(1471,1610,o),
(1452,1591,o),
(1452,1568,cs),
(1452,1545,o),
(1471,1526,o),
(1494,1526,cs)
);
},
{
closed = 1;
nodes = (
(1316,1736,l),
(1253,1744,l),
(1299,1701,l),
(1304,1711,l),
(1355,1685,o),
(1387,1660,o),
(1430,1617,c),
(1441,1628,l),
(1398,1672,o),
(1363,1700,o),
(1311,1725,c)
);
}
);
vertWidth = 0;
width = 1379;
},
{
.lastUpdate = 718090893.143;
layerId = "140DECC1-64C4-40C0-9C07-503DBC3F4160";
shapes = (
{
closed = 1;
nodes = (
(1031,-18,o),
(1281,95,o),
(1451,280,cs),
(1524,360,o),
(1554,402,o),
(1554,462,cs),
(1554,524,o),
(1506,579,o),
(1420,579,cs),
(1371,579,o),
(1308,561,o),
(1236,481,cs),
(1120,352,o),
(957,276,o),
(797,276,cs),
(598,276,o),
(494,519,o),
(553,866,cs),
(635,1346,o),
(834,1582,o),
(1158,1582,cs),
(1285,1582,o),
(1370,1554,o),
(1459,1473,cs),
(1533,1407,o),
(1631,1375,o),
(1703,1448,cs),
(1778,1523,o),
(1735,1619,o),
(1659,1688,cs),
(1503,1829,o),
(1342,1876,o),
(1161,1876,cs),
(660,1876,o),
(348,1536,o),
(230,874,cs),
(142,364,o),
(382,-18,o),
(795,-18,cs)
);
},
{
closed = 1;
nodes = (
(405,19,o),
(181,375,o),
(267,869,cs),
(382,1517,o),
(678,1839,o),
(1161,1839,cs),
(1336,1839,o),
(1486,1795,o),
(1635,1660,cs),
(1703,1598,o),
(1733,1530,o),
(1677,1474,cs),
(1622,1419,o),
(1549,1441,o),
(1483,1500,cs),
(1389,1587,o),
(1291,1619,o),
(1158,1619,cs),
(815,1619,o),
(600,1364,o),
(516,871,cs),
(455,511,o),
(571,239,o),
(797,239,cs),
(967,239,o),
(1142,321,o),
(1264,457,cs),
(1327,527,o),
(1377,542,o),
(1420,542,cs),
(1487,542,o),
(1517,508,o),
(1517,462,cs),
(1517,414,o),
(1495,383,o),
(1424,306,cs),
(1260,127,o),
(1022,19,o),
(795,19,cs)
);
},
{
closed = 1;
nodes = (
(1635,1491,o),
(1660,1516,o),
(1660,1547,cs),
(1660,1577,o),
(1635,1602,o),
(1605,1602,cs),
(1574,1602,o),
(1549,1577,o),
(1549,1547,cs),
(1549,1516,o),
(1574,1491,o),
(1605,1491,cs)
);
},
{
closed = 1;
nodes = (
(1361,1728,l),
(1297,1721,l),
(1349,1681,l),
(1352,1693,l),
(1415,1680,o),
(1453,1655,o),
(1524,1597,c),
(1539,1619,l),
(1468,1676,o),
(1422,1704,o),
(1359,1717,c)
);
}
);
vertWidth = 0;
width = 1545;
}
);
metricLeft = C;
},
{
color = 6;
glyphname = D.ss05;
kernLeft = KO_R;
kernRight = KO_D.ss04;
lastChange = "2023-10-04 05:41:33 +0000";
layers = (
{
.lastUpdate = 718090892.559;
layerId = m01;
shapes = (
{
closed = 1;
nodes = (
(356,0,ls),
(903,0,o),
(1364,349,o),
(1449,982,cs),
(1523,1551,o),
(1117,1857,o),
(591,1857,cs),
(488,1857,ls),
(423,1857,o),
(404,1821,o),
(396,1774,cs),
(98,87,ls),
(90,38,o),
(114,0,o),
(171,0,cs)
);
},
{
closed = 1;
nodes = (
(125,19,o),
(108,43,o),
(116,83,cs),
(414,1770,ls),
(422,1814,o),
(435,1839,o),
(488,1839,cs),
(591,1839,ls),
(1110,1839,o),
(1503,1542,o),
(1430,985,cs),
(1347,360,o),
(895,19,o),
(356,19,cs),
(171,19,ls)
);
},
{
closed = 1;
nodes = (
(356,150,ls),
(810,150,o),
(1221,436,o),
(1289,1004,cs),
(1341,1453,o),
(1031,1710,o),
(601,1710,cs),
(545,1710,l),
(269,150,l)
);
},
{
closed = 1;
nodes = (
(529,1729,l),
(601,1729,ls),
(1039,1729,o),
(1361,1462,o),
(1308,1002,cs),
(1238,425,o),
(817,131,o),
(356,131,cs),
(248,131,l)
);
},
{
closed = 1;
nodes = (
(501,1733,o),
(520,1752,o),
(520,1775,cs),
(520,1798,o),
(501,1817,o),
(478,1817,cs),
(455,1817,o),
(437,1798,o),
(437,1775,cs),
(437,1752,o),
(455,1733,o),
(478,1733,cs)
);
},
{
closed = 1;
nodes = (
(410,1504,l),
(419,1439,l),
(450,1498,l),
(438,1499,l),
(472,1695,l),
(456,1697,l),
(422,1502,l)
);
}
);
vertWidth = 0;
width = 1448;
},
{
.lastUpdate = 718090893.144;
layerId = "140DECC1-64C4-40C0-9C07-503DBC3F4160";
shapes = (
{
closed = 1;
nodes = (
(477,-18,ls),
(1062,-18,o),
(1553,417,o),
(1632,1001,cs),
(1706,1543,o),
(1347,1876,o),
(698,1876,cs),
(555,1876,ls),
(457,1876,o),
(405,1831,o),
(389,1744,cs),
(107,143,ls),
(92,55,o),
(156,-18,o),
(256,-18,cs)
);
},
{
closed = 1;
nodes = (
(176,19,o),
(132,68,o),
(144,136,cs),
(426,1736,ls),
(439,1809,o),
(474,1839,o),
(555,1839,cs),
(698,1839,ls),
(1329,1839,o),
(1666,1525,o),
(1595,1006,cs),
(1518,438,o),
(1045,19,o),
(477,19,cs),
(256,19,ls)
);
},
{
closed = 1;
nodes = (
(477,274,ls),
(906,274,o),
(1263,585,o),
(1318,1004,cs),
(1365,1365,o),
(1139,1584,o),
(713,1584,cs),
(691,1584,l),
(461,274,l)
);
},
{
closed = 1;
nodes = (
(659,1621,l),
(713,1621,ls),
(1156,1621,o),
(1405,1381,o),
(1355,998,cs),
(1299,564,o),
(922,237,o),
(477,237,cs),
(416,237,l)
);
},
{
closed = 1;
nodes = (
(579,1680,o),
(604,1705,o),
(604,1735,cs),
(604,1766,o),
(579,1791,o),
(548,1791,cs),
(518,1791,o),
(493,1766,o),
(493,1735,cs),
(493,1705,o),
(518,1680,o),
(548,1680,cs)
);
},
{
closed = 1;
nodes = (
(478,1449,l),
(492,1385,l),
(527,1442,l),
(515,1444,l),
(549,1639,l),
(524,1643,l),
(490,1448,l)
);
}
);
vertWidth = 0;
width = 1656;
}
);
metricLeft = D;
metricRight = D;
},
{
color = 6;
glyphname = E.ss05;
kernLeft = KO_H;
kernRight = KO_E.ss04;
lastChange = "2023-10-04 05:41:33 +0000";
layers = (
{
.lastUpdate = 718090892.56;
layerId = m01;
shapes = (
{
closed = 1;
nodes = (
(1122,0,ls),
(1186,0,o),
(1205,47,o),
(1205,83,cs),
(1205,120,o),
(1185,150,o),
(1122,150,cs),
(269,150,l),
(407,930,l),
(1151,930,ls),
(1215,930,o),
(1234,967,o),
(1233,997,cs),
(1232,1036,o),
(1215,1073,o),
(1150,1073,cs),
(432,1073,l),
(545,1710,l),
(1399,1710,ls),
(1462,1710,o),
(1481,1740,o),
(1481,1780,cs),
(1481,1816,o),
(1462,1857,o),
(1399,1857,cs),
(491,1857,ls),
(423,1857,o),
(404,1820,o),
(396,1774,cs),
(98,87,ls),
(90,38,o),
(114,0,o),
(171,0,cs)
);
},
{
closed = 1;
nodes = (
(125,19,o),
(108,43,o),
(116,83,cs),
(414,1770,ls),
(422,1814,o),
(435,1839,o),
(491,1839,cs),
(1399,1839,ls),
(1449,1839,o),
(1463,1810,o),
(1463,1780,cs),
(1463,1746,o),
(1451,1729,o),
(1399,1729,cs),
(529,1729,l),
(410,1055,l),
(1150,1055,ls),
(1203,1055,o),
(1214,1030,o),
(1215,997,cs),
(1215,972,o),
(1203,948,o),
(1151,948,cs),
(391,948,l),
(248,131,l),
(1122,131,ls),
(1175,131,o),
(1188,114,o),
(1188,83,cs),
(1188,52,o),
(1173,19,o),
(1122,19,cs),
(171,19,ls)
);
},
{
closed = 1;
nodes = (
(501,1733,o),
(520,1752,o),
(520,1775,cs),
(520,1798,o),
(501,1817,o),
(478,1817,cs),
(455,1817,o),
(437,1798,o),
(437,1775,cs),
(437,1752,o),
(455,1733,o),
(478,1733,cs)
);
},
{
closed = 1;
nodes = (
(410,1504,l),
(419,1439,l),
(450,1498,l),
(438,1499,l),
(472,1695,l),
(456,1697,l),
(422,1502,l)
);
}
);
vertWidth = 0;
width = 1335;
},
{
.lastUpdate = 718090893.147;
layerId = "140DECC1-64C4-40C0-9C07-503DBC3F4160";
shapes = (
{
closed = 1;
nodes = (
(1226,-18,ls),
(1319,-18,o),
(1386,34,o),
(1386,120,cs),
(1386,196,o),
(1334,274,o),
(1230,274,cs),
(461,274,l),
(560,842,l),
(1285,842,ls),
(1385,842,o),
(1457,905,o),
(1457,983,cs),
(1457,1068,o),
(1392,1122,o),
(1299,1122,cs),
(610,1122,l),
(691,1584,l),
(1507,1584,ls),
(1603,1584,o),
(1672,1647,o),
(1672,1733,cs),
(1672,1815,o),
(1611,1876,o),
(1514,1876,cs),
(561,1876,ls),
(465,1876,o),
(407,1839,o),
(391,1750,cs),
(107,144,ls),
(92,56,o),
(135,-18,o),
(232,-18,cs)
);
},
{
closed = 1;
nodes = (
(159,19,o),
(131,67,o),
(144,139,cs),
(428,1743,ls),
(441,1815,o),
(478,1839,o),
(561,1839,cs),
(1514,1839,ls),
(1594,1839,o),
(1635,1797,o),
(1635,1733,cs),
(1635,1666,o),
(1586,1621,o),
(1507,1621,cs),
(659,1621,l),
(565,1085,l),
(1299,1085,ls),
(1376,1085,o),
(1420,1049,o),
(1420,983,cs),
(1420,924,o),
(1368,879,o),
(1285,879,cs),
(528,879,l),
(416,237,l),
(1230,237,ls),
(1312,237,o),
(1349,182,o),
(1349,120,cs),
(1349,55,o),
(1303,19,o),
(1226,19,cs),
(232,19,ls)
);
},
{
closed = 1;
nodes = (
(579,1680,o),
(604,1705,o),
(604,1735,cs),
(604,1766,o),
(579,1791,o),
(548,1791,cs),
(518,1791,o),
(493,1766,o),
(493,1735,cs),
(493,1705,o),
(518,1680,o),
(548,1680,cs)
);
},
{
closed = 1;
nodes = (
(478,1449,l),
(492,1385,l),
(527,1442,l),
(515,1444,l),
(549,1639,l),
(524,1643,l),
(490,1448,l)
);
}
);
vertWidth = 0;
width = 1466;
}
);
metricLeft = E;
metricRight = E;
},
{
color = 6;
glyphname = F.ss05;
kernLeft = KO_E;
kernRight = KO_F.ss04;
lastChange = "2023-10-04 05:41:33 +0000";
layers = (
{
.lastUpdate = 718090344.148;
layerId = m01;
shapes = (
{
closed = 1;
nodes = (
(241,0,o),
(251,50,o),
(256,80,cs),
(407,930,l),
(1119,930,ls),
(1184,930,o),
(1203,967,o),
(1203,997,cs),
(1203,1036,o),
(1184,1073,o),
(1119,1073,cs),
(433,1073,l),
(545,1710,l),
(1370,1710,ls),
(1433,1710,o),
(1453,1740,o),
(1453,1780,cs),
(1453,1816,o),
(1434,1857,o),
(1370,1857,cs),
(491,1857,ls),
(423,1857,o),
(404,1820,o),
(396,1774,cs),
(98,87,ls),
(90,38,o),
(115,0,o),
(172,0,cs)
);
},
{
closed = 1;
nodes = (
(126,19,o),
(109,44,o),
(116,83,cs),
(414,1770,ls),
(422,1814,o),
(435,1839,o),
(491,1839,cs),
(1370,1839,ls),
(1422,1839,o),
(1435,1810,o),
(1435,1780,cs),
(1435,1746,o),
(1423,1729,o),
(1370,1729,cs),
(529,1729,l),
(411,1055,l),
(1119,1055,ls),
(1172,1055,o),
(1185,1030,o),
(1185,997,cs),
(1185,972,o),
(1172,948,o),
(1119,948,cs),
(391,948,l),
(239,82,ls),
(234,55,o),
(226,19,o),
(172,19,cs)
);
},
{
closed = 1;
nodes = (
(501,1733,o),
(520,1752,o),
(520,1775,cs),
(520,1798,o),
(501,1817,o),
(478,1817,cs),
(455,1817,o),
(437,1798,o),
(437,1775,cs),
(437,1752,o),
(455,1733,o),
(478,1733,cs)
);
},
{
closed = 1;
nodes = (
(410,1504,l),
(419,1439,l),
(450,1498,l),
(438,1499,l),
(472,1695,l),
(456,1697,l),
(422,1502,l)
);
}
);
vertWidth = 0;
width = 1183;
},
{
.lastUpdate = 718090893.149;
layerId = "140DECC1-64C4-40C0-9C07-503DBC3F4160";
shapes = (
{
closed = 1;
nodes = (
(352,-18,o),
(422,49,o),
(438,144,cs),
(560,842,l),
(1272,842,ls),
(1374,842,o),
(1429,907,o),
(1429,985,cs),
(1429,1067,o),
(1370,1122,o),
(1274,1122,cs),
(610,1122,l),
(691,1584,l),
(1474,1584,ls),
(1580,1584,o),
(1642,1658,o),
(1642,1728,cs),
(1642,1817,o),
(1581,1876,o),
(1484,1876,cs),
(556,1876,ls),
(458,1876,o),
(406,1836,o),
(390,1747,cs),
(110,157,ls),
(95,73,o),
(125,-18,o),
(253,-18,cs)
);
},
{
closed = 1;
nodes = (
(153,19,o),
(134,79,o),
(147,150,cs),
(427,1742,ls),
(440,1814,o),
(473,1839,o),
(556,1839,cs),
(1484,1839,ls),
(1563,1839,o),
(1605,1799,o),
(1605,1728,cs),
(1605,1673,o),
(1560,1621,o),
(1474,1621,cs),
(659,1621,l),
(565,1085,l),
(1274,1085,ls),
(1353,1085,o),
(1392,1049,o),
(1392,985,cs),
(1392,922,o),
(1354,879,o),
(1272,879,cs),
(529,879,l),
(401,150,ls),
(388,69,o),
(336,19,o),
(253,19,cs)
);
},
{
closed = 1;
nodes = (
(579,1680,o),
(604,1705,o),
(604,1735,cs),
(604,1766,o),
(579,1791,o),
(548,1791,cs),
(518,1791,o),
(493,1766,o),
(493,1735,cs),
(493,1705,o),
(518,1680,o),
(548,1680,cs)
);
},
{
closed = 1;
nodes = (
(478,1449,l),
(492,1385,l),
(527,1442,l),
(515,1444,l),
(549,1639,l),
(524,1643,l),
(490,1448,l)
);
}
);
vertWidth = 0;
width = 1372;
}
);
metricLeft = F;
metricRight = F;
},
{
color = 6;
glyphname = G.ss05;
kernLeft = KO_G;
kernRight = KO_G.ss04;
lastChange = "2023-10-04 05:41:33 +0000";
layers = (
{
.lastUpdate = 718090344.15;
layerId = m01;
shapes = (
{
closed = 1;
nodes = (
(840,-18,o),
(996,88,o),
(1178,336,c),
(1138,87,ls),
(1132,51,o),
(1141,4,o),
(1203,0,cs),
(1277,-3,o),
(1293,52,o),
(1299,84,cs),
(1409,724,ls),
(1418,777,o),
(1403,811,o),
(1345,811,cs),
(1282,811,o),
(1251,767,o),
(1219,692,cs),
(1070,351,o),
(874,131,o),
(675,131,cs),
(427,131,o),
(300,450,o),
(370,868,cs),
(467,1429,o),
(695,1729,o),
(1049,1729,cs),
(1178,1729,o),
(1303,1673,o),
(1431,1541,cs),
(1471,1500,o),
(1515,1511,o),
(1542,1539,cs),
(1570,1568,o),
(1563,1618,o),
(1535,1647,cs),
(1395,1794,o),
(1230,1876,o),
(1052,1876,cs),
(611,1876,o),
(329,1524,o),
(211,873,cs),
(125,374,o),
(320,-18,o),
(672,-18,cs)
);
},
{
closed = 1;
nodes = (
(333,0,o),
(144,378,o),
(229,870,cs),
(346,1515,o),
(620,1857,o),
(1052,1857,cs),
(1226,1857,o),
(1384,1779,o),
(1522,1634,cs),
(1546,1610,o),
(1548,1573,o),
(1528,1551,cs),
(1508,1529,o),
(1476,1521,o),
(1444,1553,cs),
(1314,1689,o),
(1182,1747,o),
(1049,1747,cs),
(685,1747,o),
(450,1438,o),
(352,870,cs),
(280,447,o),
(413,113,o),
(675,113,cs),
(882,113,o),
(1086,339,o),
(1236,685,cs),
(1267,758,o),
(1292,793,o),
(1345,793,cs),
(1391,793,o),
(1399,773,o),
(1391,728,cs),
(1281,87,ls),
(1276,56,o),
(1264,16,o),
(1204,19,cs),
(1157,21,o),
(1152,52,o),
(1156,83,cs),
(1201,360,ls),
(1207,402,o),
(1201,400,o),
(1175,363,cs),
(991,105,o),
(838,0,o),
(672,0,cs)
);
},
{
closed = 1;
nodes = (
(1508,1549,o),
(1526,1568,o),
(1526,1591,cs),
(1526,1614,o),
(1508,1633,o),
(1485,1633,cs),
(1462,1633,o),
(1443,1614,o),
(1443,1591,cs),
(1443,1568,o),
(1462,1549,o),
(1485,1549,cs)
);
},
{
closed = 1;
nodes = (
(1316,1751,l),
(1253,1758,l),
(1299,1716,l),
(1304,1726,l),
(1355,1700,o),
(1387,1675,o),
(1430,1632,c),
(1441,1643,l),
(1398,1687,o),
(1363,1715,o),
(1311,1740,c)
);
}
);
vertWidth = 0;
width = 1543;
},
{
.lastUpdate = 718090893.152;
layerId = "140DECC1-64C4-40C0-9C07-503DBC3F4160";
shapes = (
{
closed = 1;
nodes = (
(920,-18,o),
(1054,67,o),
(1175,217,c),
(1164,161,ls),
(1144,60,o),
(1216,-1,o),
(1325,-1,cs),
(1436,-1,o),
(1467,60,o),
(1480,135,cs),
(1590,760,ls),
(1608,860,o),
(1551,926,o),
(1451,926,cs),
(1391,926,o),
(1323,911,o),
(1246,770,cs),
(1102,518,o),
(922,276,o),
(737,276,cs),
(581,276,o),
(489,493,o),
(553,866,cs),
(635,1346,o),
(834,1582,o),
(1158,1582,cs),
(1285,1582,o),
(1370,1554,o),
(1459,1473,cs),
(1533,1407,o),
(1631,1375,o),
(1703,1448,cs),
(1778,1523,o),
(1735,1619,o),
(1659,1688,cs),
(1503,1829,o),
(1342,1876,o),
(1161,1876,cs),
(660,1876,o),
(348,1536,o),
(230,874,cs),
(134,325,o),
(353,-18,o),
(735,-18,cs)
);
},
{
closed = 1;
nodes = (
(375,19,o),
(174,336,o),
(267,869,cs),
(382,1517,o),
(678,1839,o),
(1161,1839,cs),
(1336,1839,o),
(1486,1795,o),
(1635,1660,cs),
(1703,1598,o),
(1733,1530,o),
(1677,1474,cs),
(1622,1419,o),
(1549,1441,o),
(1483,1500,cs),
(1389,1587,o),
(1291,1619,o),
(1158,1619,cs),
(815,1619,o),
(600,1364,o),
(516,871,cs),
(450,484,o),
(554,239,o),
(737,239,cs),
(942,239,o),
(1132,497,o),
(1278,751,cs),
(1346,877,o),
(1396,889,o),
(1451,889,cs),
(1532,889,o),
(1567,846,o),
(1553,766,cs),
(1443,141,ls),
(1432,75,o),
(1412,36,o),
(1325,36,cs),
(1232,36,o),
(1187,76,o),
(1201,154,cs),
(1223,275,ls),
(1233,328,o),
(1215,333,o),
(1180,286,cs),
(1055,112,o),
(925,19,o),
(735,19,cs)
);
},
{
closed = 1;
nodes = (
(1635,1491,o),
(1660,1516,o),
(1660,1547,cs),
(1660,1577,o),
(1635,1602,o),
(1605,1602,cs),
(1574,1602,o),
(1549,1577,o),
(1549,1547,cs),
(1549,1516,o),
(1574,1491,o),
(1605,1491,cs)
);
},
{
closed = 1;
nodes = (
(1361,1728,l),
(1297,1721,l),
(1349,1681,l),
(1352,1693,l),
(1415,1680,o),
(1453,1655,o),
(1524,1597,c),
(1539,1619,l),
(1468,1676,o),
(1422,1704,o),
(1359,1717,c)
);
}
);
vertWidth = 0;
width = 1724;
}
);
metricLeft = G;
metricRight = G;
},
{
color = 6;
glyphname = H.ss05;
kernLeft = KO_E;
kernRight = KO_H.ss04;
lastChange = "2023-10-04 05:41:33 +0000";
layers = (
{
.lastUpdate = 718090344.151;
layerId = m01;
shapes = (
{
closed = 1;
nodes = (
(241,0,o),
(252,50,o),
(257,80,cs),
(407,930,l),
(1197,930,l),
(1051,87,ls),
(1044,51,o),
(1052,0,o),
(1124,0,cs),
(1186,0,o),
(1204,42,o),
(1209,70,cs),
(1508,1766,ls),
(1517,1819,o),
(1496,1857,o),
(1435,1857,cs),
(1376,1857,o),
(1350,1820,o),
(1344,1788,cs),
(1221,1073,l),
(432,1073,l),
(553,1758,ls),
(563,1816,o),
(545,1857,o),
(490,1857,cs),
(430,1857,o),
(404,1821,o),
(396,1774,cs),
(98,87,ls),
(90,38,o),
(115,0,o),
(171,0,cs)
);
},
{
closed = 1;
nodes = (
(125,19,o),
(108,43,o),
(116,83,cs),
(413,1770,ls),
(421,1813,o),
(440,1839,o),
(490,1839,cs),
(533,1839,o),
(544,1811,o),
(535,1761,cs),
(410,1055,l),
(1237,1055,l),
(1363,1784,ls),
(1367,1812,o),
(1388,1839,o),
(1435,1839,cs),
(1484,1839,o),
(1499,1814,o),
(1490,1769,cs),
(1191,73,ls),
(1187,48,o),
(1174,19,o),
(1124,19,cs),
(1068,19,o),
(1064,52,o),
(1069,83,cs),
(1218,948,l),
(391,948,l),
(239,82,ls),
(234,55,o),
(227,19,o),
(171,19,cs)
);
},
{
closed = 1;
nodes = (
(501,1733,o),
(520,1752,o),
(520,1775,cs),
(520,1798,o),
(501,1817,o),
(478,1817,cs),
(455,1817,o),
(437,1798,o),
(437,1775,cs),
(437,1752,o),
(455,1733,o),
(478,1733,cs)
);
},
{
closed = 1;
nodes = (
(410,1504,l),
(419,1439,l),
(450,1498,l),
(438,1499,l),
(472,1695,l),
(456,1697,l),
(422,1502,l)
);
}
);
vertWidth = 0;
width = 1456;
},
{
.lastUpdate = 718090893.154;
layerId = "140DECC1-64C4-40C0-9C07-503DBC3F4160";
shapes = (
{
closed = 1;
nodes = (
(371,-18,o),
(423,48,o),
(431,113,c),
(548,787,l),
(1178,787,l),
(1066,142,ls),
(1049,49,o),
(1109,-18,o),
(1214,-18,cs),
(1304,-18,o),
(1373,36,o),
(1387,102,c),
(1666,1709,ls),
(1684,1814,o),
(1616,1876,o),
(1517,1876,cs),
(1427,1876,o),
(1360,1827,o),
(1347,1755,cs),
(1229,1082,l),
(599,1082,l),
(708,1703,ls),
(727,1816,o),
(666,1876,o),
(573,1876,cs),
(490,1876,o),
(406,1836,o),
(389,1744,cs),
(108,143,ls),
(92,52,o),
(160,-18,o),
(261,-18,cs)
);
},
{
closed = 1;
nodes = (
(178,19,o),
(133,67,o),
(145,136,cs),
(426,1736,ls),
(439,1808,o),
(501,1839,o),
(573,1839,cs),
(648,1839,o),
(686,1800,o),
(671,1708,cs),
(555,1045,l),
(1261,1045,l),
(1384,1749,ls),
(1393,1804,o),
(1441,1839,o),
(1517,1839,cs),
(1598,1839,o),
(1643,1798,o),
(1629,1717,cs),
(1350,109,ls),
(1340,58,o),
(1289,19,o),
(1214,19,cs),
(1128,19,o),
(1090,63,o),
(1103,137,cs),
(1223,824,l),
(517,824,l),
(394,118,l),
(388,65,o),
(351,19,o),
(261,19,cs)
);
},
{
closed = 1;
nodes = (
(577,1680,o),
(602,1705,o),
(602,1735,cs),
(602,1766,o),
(577,1791,o),
(547,1791,cs),
(516,1791,o),
(491,1766,o),
(491,1735,cs),
(491,1705,o),
(516,1680,o),
(547,1680,cs)
);
},
{
closed = 1;
nodes = (
(476,1449,l),
(490,1385,l),
(525,1442,l),
(513,1444,l),
(548,1639,l),
(523,1643,l),
(488,1448,l)
);
}
);
vertWidth = 0;
width = 1620;
}
);
metricLeft = H;
metricRight = H;
},
{
color = 6;
glyphname = I.ss05;
kernLeft = KO_I.ss04;
kernRight = KO_I.ss04;
lastChange = "2023-10-04 05:41:33 +0000";
layers = (
{
.lastUpdate = 718090892.562;
layerId = m01;
shapes = (
{
closed = 1;
nodes = (
(433,0,ls),
(498,0,o),
(516,37,o),
(516,73,cs),
(516,113,o),
(498,150,o),
(433,150,cs),
(395,150,l),
(670,1710,l),
(729,1710,ls),
(790,1710,o),
(809,1750,o),
(809,1786,cs),
(809,1823,o),
(790,1857,o),
(729,1857,cs),
(476,1857,ls),
(412,1857,o),
(394,1823,o),
(394,1786,cs),
(394,1750,o),
(412,1710,o),
(476,1710,cs),
(504,1710,l),
(232,150,l),
(169,150,ls),
(108,150,o),
(89,112,o),
(89,73,cs),
(89,37,o),
(108,0,o),
(169,0,cs)
);
},
{
closed = 1;
nodes = (
(120,19,o),
(107,43,o),
(107,73,cs),
(107,106,o),
(120,131,o),
(169,131,cs),
(248,131,l),
(526,1729,l),
(476,1729,ls),
(425,1729,o),
(412,1755,o),
(412,1786,cs),
(412,1818,o),
(425,1839,o),
(476,1839,cs),
(729,1839,ls),
(779,1839,o),
(791,1818,o),
(791,1786,cs),
(791,1755,o),
(778,1729,o),
(729,1729,cs),
(654,1729,l),
(374,131,l),
(433,131,ls),
(486,131,o),
(498,106,o),
(498,73,cs),
(498,43,o),
(486,19,o),
(433,19,cs),
(169,19,ls)
);
},
{
closed = 1;
nodes = (
(611,1685,o),
(630,1704,o),
(630,1727,cs),
(630,1750,o),
(611,1769,o),
(588,1769,cs),
(565,1769,o),
(547,1750,o),
(547,1727,cs),
(547,1704,o),
(565,1685,o),
(588,1685,cs)
);
},
{
closed = 1;
nodes = (
(522,1455,l),
(531,1390,l),
(561,1449,l),
(549,1450,l),
(584,1646,l),
(568,1648,l),
(534,1453,l)
);
}
);
vertWidth = 0;
width = 756;
},
{
.lastUpdate = 718090893.156;
layerId = "140DECC1-64C4-40C0-9C07-503DBC3F4160";
shapes = (
{
closed = 1;
nodes = (
(611,-18,ls),
(721,-18,o),
(757,50,o),
(767,122,cs),
(780,202,o),
(737,276,o),
(652,276,cs),
(565,276,l),
(792,1582,l),
(898,1582,ls),
(1001,1582,o),
(1048,1659,o),
(1061,1732,cs),
(1071,1814,o),
(1015,1876,o),
(939,1876,cs),
(428,1876,ls),
(331,1876,o),
(284,1814,o),
(271,1737,cs),
(257,1660,o),
(310,1582,o),
(390,1582,cs),
(464,1582,l),
(239,276,l),
(144,276,ls),
(42,276,o),
(-7,204,o),
(-20,128,cs),
(-34,50,o),
(19,-18,o),
(104,-18,cs)
);
},
{
closed = 1;
nodes = (
(41,19,o),
(5,62,o),
(17,122,cs),
(28,188,o),
(63,239,o),
(144,239,cs),
(270,239,l),
(509,1619,l),
(390,1619,ls),
(333,1619,o),
(297,1671,o),
(308,1732,cs),
(319,1797,o),
(351,1839,o),
(428,1839,cs),
(939,1839,ls),
(995,1839,o),
(1032,1798,o),
(1024,1737,cs),
(1013,1673,o),
(979,1619,o),
(898,1619,cs),
(760,1619,l),
(521,239,l),
(652,239,ls),
(714,239,o),
(741,191,o),
(730,128,cs),
(721,63,o),
(696,19,o),
(611,19,cs),
(104,19,ls)
);
},
{
closed = 1;
nodes = (
(658,1564,o),
(683,1589,o),
(683,1620,cs),
(683,1650,o),
(658,1675,o),
(627,1675,cs),
(597,1675,o),
(572,1650,o),
(572,1620,cs),
(572,1589,o),
(597,1564,o),
(627,1564,cs)
);
},
{
closed = 1;
nodes = (
(558,1334,l),
(572,1269,l),
(607,1326,l),
(595,1328,l),
(629,1523,l),
(604,1527,l),
(570,1332,l)
);
}
);
vertWidth = 0;
width = 797;
}
);
metricLeft = I;
metricRight = I;
},
